{
.appVersion = "924";
classes = (
{
automatic = 1;
code = "A B C D E F G H I J K L M N O P Q R S T U V W X Y Z Agrave Aacute Acircumflex Atilde Adieresis Amacron Abreve Aring Aringacute Adotbelow Aogonek AE AEacute Cacute Ccircumflex Ccaron Cdotaccent Ccedilla Dcaron Dcroat Eth Egrave Eacute Ecircumflex Etilde Ecaron Edieresis Emacron Ebreve Edotaccent Edotbelow Eogonek Gcircumflex Gcaron Gbreve Gdotaccent Gcommaaccent Hcircumflex Hbar Igrave Iacute Icircumflex Itilde Idieresis Imacron Ibreve Idotaccent Idotbelow Iogonek Jcircumflex Kcommaaccent Lacute Lcaron Lcommaaccent Lslash Ldot Nacute Ntilde Ncaron Ncommaaccent Eng Ograve Oacute Ocircumflex Otilde Odieresis Omacron Obreve Ohungarumlaut Odotbelow Oogonek Oslash Oslashacute OE Racute Rcaron Rcommaaccent Sacute Scircumflex Scaron Scedilla Scommaaccent Germandbls Tcaron Tcedilla Tcommaaccent Tbar Thorn Ugrave Uacute Ucircumflex Utilde Udieresis Umacron Ubreve Uring Uhungarumlaut Udotbelow Uogonek Wgrave Wacute Wcircumflex Wdieresis Ygrave Yacute Ycircumflex Ytilde Ydieresis Ymacron Zacute Zcaron Zdotaccent IJ Schwa DZcaron Dzcaron LJ Lj NJ Nj Adblgrave Ainvertedbreve Edblgrave Einvertedbreve Idblgrave Iinvertedbreve Odblgrave Oinvertedbreve Rdblgrave Rinvertedbreve Udblgrave Uinvertedbreve Odieresismacron Otildemacron Odotaccentmacron Abreveacute Abrevedotbelow Abrevegrave Abrevehookabove Abrevetilde Acircumflexacute Acircumflexdotbelow Acircumflexgrave Acircumflexhookabove Acircumflextilde Ahookabove Ecircumflexacute Ecircumflexdotbelow Ecircumflexgrave Ecircumflexhookabove Ecircumflextilde Ehookabove Ocircumflexacute Ocircumflexdotbelow Ocircumflexgrave Ocircumflexhookabove Ocircumflextilde Ohookabove Ohorn Ohornacute Ohorndotbelow Ohorngrave Ohornhookabove Ohorntilde Uhorn Uhornacute Uhorndotbelow Uhorngrave Uhornhookabove Uhorntilde Uhookabove Ydotbelow Yhookabove Ihookabove";
name = Uppercase;
}
);
copyright = "Copyright 2016 The Bevan Project Authors (www.sansoxygen.com)";
customParameters = (
{

glyphs = (
{
glyphname = A;
layers = (
{
anchors = (
{
name = bottom;
position = "{804, 0}";
},
{
name = ogonek;
position = "{1530, 0}";
},
{
name = top;
position = "{850, 1592}";
},
{
name = top_case;
position = "{840, 1592}";
}
);
layerId = "BC722C43-F174-4026-9892-4620CE50CA16";
paths = (
{
closed = 1;
nodes = (
"736 0 LINE",
"736 352 LINE",
"544 352 LINE",
"590 523 LINE",
"951 523 LINE",
"993 352 LINE",
"864 352 LINE",
"864 0 LINE",
"1760 0 LINE",
"1760 352 LINE",
"1601 352 LINE",
"1248 1592 LINE",
"256 1592 LINE",
"256 1240 LINE",
"465 1240 LINE",
"191 352 LINE",
"32 352 LINE",
"32 0 LINE"
);
},
{
closed = 1;
nodes = (
"786 1251 LINE",
"903 763 LINE",
"642 763 LINE"
);
}
);
width = 1760;
}
);
unicode = 0041;
userData = {
com.typemytype.robofont.layerData = {
};
};
},
{
glyphname = AE;
layers = (
{
anchors = (
{
name = top_case;
position = "{1307, 1623}";
}
);
background = {
anchors = (
{
name = top;
position = "{1076, 1592}";
}
);
paths = (
{
closed = 1;
nodes = (
"747 -1 LINE",
"747 375 LINE",
"663 375 LINE SMOOTH",
"649 375 OFFCURVE",
"640 389 OFFCURVE",
"637 417 CURVE SMOOTH",
"634 445 OFFCURVE",
"634 464 OFFCURVE",
"638 475 CURVE",
"641 489 OFFCURVE",
"644 500 OFFCURVE",
"646 507 CURVE SMOOTH",
"648 514 OFFCURVE",
"652 521 OFFCURVE",
"658 528 CURVE SMOOTH",
"664 535 OFFCURVE",
"671 538 OFFCURVE",
"680 538 CURVE SMOOTH",
"955 538 LINE SMOOTH",
"1000 538 OFFCURVE",
"1012 483 OFFCURVE",
"991 374 CURVE",
"871 374 LINE",
"872 -2 LINE",
"2101 -2 LINE",
"2101 685 LINE",
"1828 685 LINE",
"1765 418 LINE",
"1752 348 LINE",
"1533 348 LINE",
"1533 634 LINE",
"1738 634 LINE",
"1738 986 LINE",
"1533 986 LINE",
"1533 1269 LINE",
"1746 1269 LINE",
"1824 969 LINE",
"2092 970 LINE",
"2092 1623 LINE",
"522 1623 LINE",
"451 1274 LINE",
"663 1274 LINE",
"341 608 LINE",
"323 566 LINE SMOOTH",
"314 545 OFFCURVE",
"308 531 OFFCURVE",
"304 523 CURVE SMOOTH",
"300 515 OFFCURVE",
"294 502 OFFCURVE",
"285 485 CURVE SMOOTH",
"276 468 OFFCURVE",
"268 456 OFFCURVE",
"262 449 CURVE SMOOTH",
"256 442 OFFCURVE",
"248 432 OFFCURVE",
"237 419 CURVE SMOOTH",
"226 406 OFFCURVE",
"215 397 OFFCURVE",
"204 391 CURVE SMOOTH",
"193 385 OFFCURVE",
"181 379 OFFCURVE",
"167 372 CURVE SMOOTH",
"153 365 OFFCURVE",
"138 360 OFFCURVE",
"121 357 CURVE SMOOTH",
"104 354 OFFCURVE",
"86 353 OFFCURVE",
"66 353 CURVE",
"66 -2 LINE"
);
},
{
closed = 1;
nodes = (
"984 1290 LINE",
"983 769 LINE",
"744 769 LINE"
);
}
);
};
layerId = "BC722C43-F174-4026-9892-4620CE50CA16";
paths = (
{
closed = 1;
nodes = (
"747 -1 LINE",
"747 375 LINE",
"673 375 LINE SMOOTH",
"649 375 OFFCURVE",
"638 417 OFFCURVE",
"638 458 CURVE SMOOTH",
"638 500 OFFCURVE",
"650 538 OFFCURVE",
"680 538 CURVE SMOOTH",
"955 538 LINE SMOOTH",
"986 538 OFFCURVE",
"1001 512 OFFCURVE",
"1001 460 CURVE SMOOTH",
"1001 436 OFFCURVE",
"997 408 OFFCURVE",
"991 374 CURVE",
"871 374 LINE",
"872 -2 LINE",
"2101 -2 LINE",
"2101 685 LINE",
"1828 685 LINE",
"1752 348 LINE",
"1533 348 LINE",
"1533 634 LINE",
"1738 634 LINE",
"1738 986 LINE",
"1533 986 LINE",
"1533 1269 LINE",
"1746 1269 LINE",
"1824 969 LINE",
"2092 970 LINE",
"2092 1623 LINE",
"522 1623 LINE",
"451 1274 LINE",
"663 1274 LINE",
"341 608 LINE SMOOTH",
"264 450 OFFCURVE",
"208 353 OFFCURVE",
"66 353 CURVE",
"66 -2 LINE"
);
},
{
closed = 1;
nodes = (
"984 1290 LINE",
"983 769 LINE",
"744 769 LINE"
);
}
);
width = 2191;
},
{
anchors = (
{
name = top;
position = "{1076, 1592}";
}
);
associatedMasterId = "BC722C43-F174-4026-9892-4620CE50CA16";
layerId = "567E71F3-4585-488A-9759-D410A9C352D8";
name = "Regular Jul 5 16, 10:33";
paths = (
{
closed = 1;
nodes = (
"747 -1 LINE",
"747 375 LINE",
"663 375 LINE SMOOTH",
"649 375 OFFCURVE",
"640 389 OFFCURVE",
"637 417 CURVE SMOOTH",
"634 445 OFFCURVE",
"634 464 OFFCURVE",
"638 475 CURVE",
"641 489 OFFCURVE",
"644 500 OFFCURVE",
"646 507 CURVE SMOOTH",
"648 514 OFFCURVE",
"652 521 OFFCURVE",
"658 528 CURVE SMOOTH",
"664 535 OFFCURVE",
"671 538 OFFCURVE",
"680 538 CURVE SMOOTH",
"955 538 LINE SMOOTH",
"1000 538 OFFCURVE",
"1012 483 OFFCURVE",
"991 374 CURVE",
"871 374 LINE",
"872 -2 LINE",
"2101 -2 LINE",
"2101 685 LINE",
"1828 685 LINE",
"1765 418 LINE",
"1752 348 LINE",
"1533 348 LINE",
"1533 634 LINE",
"1738 634 LINE",
"1738 986 LINE",
"1533 986 LINE",
"1533 1269 LINE",
"1746 1269 LINE",
"1824 969 LINE",
"2092 970 LINE",
"2092 1623 LINE",
"522 1623 LINE",
"451 1274 LINE",
"663 1274 LINE",
"341 608 LINE",
"323 566 LINE SMOOTH",
"314 545 OFFCURVE",
"308 531 OFFCURVE",
"304 523 CURVE SMOOTH",
"300 515 OFFCURVE",
"294 502 OFFCURVE",
"285 485 CURVE SMOOTH",
"276 468 OFFCURVE",
"268 456 OFFCURVE",
"262 449 CURVE SMOOTH",
"256 442 OFFCURVE",
"248 432 OFFCURVE",
"237 419 CURVE SMOOTH",
"226 406 OFFCURVE",
"215 397 OFFCURVE",
"204 391 CURVE SMOOTH",
"193 385 OFFCURVE",
"181 379 OFFCURVE",
"167 372 CURVE SMOOTH",
"153 365 OFFCURVE",
"138 360 OFFCURVE",
"121 357 CURVE SMOOTH",
"104 354 OFFCURVE",
"86 353 OFFCURVE",
"66 353 CURVE",
"66 -2 LINE"
);
},
{
closed = 1;
nodes = (
"984 1290 LINE",
"983 769 LINE",
"744 769 LINE"
);
}
);
width = 2191;
}
);
unicode = 00C6;
},
{
glyphname = B;
layers = (
{
layerId = "BC722C43-F174-4026-9892-4620CE50CA16";
paths = (
{
closed = 1;
nodes = (
"960 0 LINE SMOOTH",
"1345 0 OFFCURVE",
"1568 151 OFFCURVE",
"1568 424 CURVE SMOOTH",
"1568 655 OFFCURVE",
"1472 764 OFFCURVE",
"1296 840 CURVE",
"1429 888 OFFCURVE",
"1541 1007 OFFCURVE",
"1541 1174 CURVE SMOOTH",
"1541 1529 OFFCURVE",
"1261 1593 OFFCURVE",
"904 1593 CURVE SMOOTH",
"90 1593 LINE",
"90 1240 LINE",
"256 1240 LINE",
"256 352 LINE",
"64 352 LINE",
"64 0 LINE"
);
},
{
closed = 1;
nodes = (
"768 689 LINE",
"810 690 OFFCURVE",
"850 690 OFFCURVE",
"857 690 CURVE SMOOTH",
"981 690 OFFCURVE",
"1056 645 OFFCURVE",
"1056 527 CURVE SMOOTH",
"1056 368 OFFCURVE",
"938 352 OFFCURVE",
"805 352 CURVE SMOOTH",
"768 352 LINE"
);
},
{
closed = 1;
nodes = (
"768 1240 LINE",
"909 1240 LINE SMOOTH",
"989 1240 OFFCURVE",
"1047 1185 OFFCURVE",
"1047 1101 CURVE SMOOTH",
"1047 977 OFFCURVE",
"962 951 OFFCURVE",
"824 951 CURVE SMOOTH",
"768 951 LINE"
);
}
);
width = 1683;
}
);
unicode = 0042;
userData = {
com.typemytype.robofont.layerData = {
};
};
},
{
glyphname = C;
layers = (
{
anchors = (
{
name = bottom;
position = "{755, 0}";
},
{
name = cedilla;
position = "{891, -1}";
},
{
name = top;
position = "{755, 1592}";
},
{
name = top_case;
position = "{874, 1622}";
}
);
layerId = "BC722C43-F174-4026-9892-4620CE50CA16";
paths = (
{
closed = 1;
nodes = (
"1056 -28 OFFCURVE",
"1256 -5 OFFCURVE",
"1440 102 CURVE",
"1440 529 LINE",
"1418 546 LINE",
"1353 501 OFFCURVE",
"1202 418 OFFCURVE",
"1016 418 CURVE SMOOTH",
"784 418 OFFCURVE",
"640 575 OFFCURVE",
"640 846 CURVE SMOOTH",
"640 1053 OFFCURVE",
"762 1260 OFFCURVE",
"921 1260 CURVE SMOOTH",
"1081 1260 OFFCURVE",
"1152 1129 OFFCURVE",
"1152 971 CURVE SMOOTH",
"1152 938 LINE",
"1472 938 LINE",
"1472 1592 LINE",
"1162 1592 LINE",
"1120 1429 LINE",
"1069 1536 OFFCURVE",
"940 1623 OFFCURVE",
"778 1623 CURVE SMOOTH",
"310 1623 OFFCURVE",
"64 1254 OFFCURVE",
"64 805 CURVE SMOOTH",
"64 237 OFFCURVE",
"443 -28 OFFCURVE",
"871 -28 CURVE SMOOTH"
);
}
);
width = 1547;
}
);
unicode = 0043;
userData = {
com.typemytype.robofont.layerData = {
};
};
},
{
glyphname = D;
layers = (
{
anchors = (
{
name = center;
position = "{876, 796}";
},
{
name = top;
position = "{876, 1592}";
},
{
name = top_case;
position = "{823, 1592}";
}
);
layerId = "BC722C43-F174-4026-9892-4620CE50CA16";
paths = (
{
closed = 1;
nodes = (
"799 0 LINE SMOOTH",
"1386 0 OFFCURVE",
"1696 288 OFFCURVE",
"1696 796 CURVE SMOOTH",
"1696 1325 OFFCURVE",
"1375 1592 OFFCURVE",
"800 1592 CURVE SMOOTH",
"64 1592 LINE",
"64 1240 LINE",
"224 1240 LINE",
"224 352 LINE",
"64 352 LINE",
"64 0 LINE"
);
},
{
closed = 1;
nodes = (
"736 1240 LINE",
"799 1240 LINE SMOOTH",
"1040 1240 OFFCURVE",
"1120 1032 OFFCURVE",
"1120 797 CURVE SMOOTH",
"1120 568 OFFCURVE",
"1038 352 OFFCURVE",
"799 352 CURVE SMOOTH",
"736 352 LINE"
);
}
);
width = 1804;
}
);
unicode = 0044;
userData = {
com.typemytype.robofont.layerData = {
};
};
},
{
glyphname = Eth;
layers = (
{
layerId = "BC722C43-F174-4026-9892-4620CE50CA16";
paths = (
{
closed = 1;
nodes = (
"893 0 LINE SMOOTH",
"1028 0 OFFCURVE",
"1150 22 OFFCURVE",
"1259 67 CURVE SMOOTH",
"1368 112 OFFCURVE",
"1457 172 OFFCURVE",
"1526 248 CURVE SMOOTH",
"1595 324 OFFCURVE",
"1648 410 OFFCURVE",
"1685 507 CURVE SMOOTH",
"1722 604 OFFCURVE",
"1740 707 OFFCURVE",
"1740 816 CURVE SMOOTH",
"1740 1080 OFFCURVE",
"1672 1280 OFFCURVE",
"1535 1417 CURVE SMOOTH",
"1398 1554 OFFCURVE",
"1192 1622 OFFCURVE",
"917 1622 CURVE SMOOTH",
"87 1622 LINE",
"87 1270 LINE",
"256 1270 LINE",
"254 952 LINE",
"124 952 LINE",
"124 653 LINE",
"254 653 LINE",
"254 351 LINE",
"91 351 LINE",
"91 0 LINE"
);
},
{
closed = 1;
nodes = (
"838 350 LINE",
"807 350 LINE",
"804 652 LINE",
"889 652 LINE",
"889 951 LINE",
"803 951 LINE",
"803 1052 LINE",
"803 1170 LINE",
"803 1269 LINE",
"850 1269 LINE SMOOTH",
"899 1269 OFFCURVE",
"942 1259 OFFCURVE",
"979 1240 CURVE SMOOTH",
"1016 1221 OFFCURVE",
"1045 1197 OFFCURVE",
"1066 1168 CURVE SMOOTH",
"1087 1139 OFFCURVE",
"1103 1103 OFFCURVE",
"1115 1061 CURVE SMOOTH",
"1127 1019 OFFCURVE",
"1135 979 OFFCURVE",
"1139 941 CURVE SMOOTH",
"1143 903 OFFCURVE",
"1145 861 OFFCURVE",
"1145 815 CURVE SMOOTH",
"1145 770 OFFCURVE",
"1142 727 OFFCURVE",
"1137 687 CURVE SMOOTH",
"1132 647 OFFCURVE",
"1122 605 OFFCURVE",
"1108 562 CURVE SMOOTH",
"1094 519 OFFCURVE",
"1076 482 OFFCURVE",
"1054 452 CURVE SMOOTH",
"1032 422 OFFCURVE",
"1002 397 OFFCURVE",
"965 377 CURVE SMOOTH",
"928 357 OFFCURVE",
"885 347 OFFCURVE",
"836 347 CURVE"
);
}
);
width = 1813;
}
);
unicode = 00D0;
},
{
glyphname = E;
layers = (
{
anchors = (
{
name = bottom;
position = "{750, 0}";
},
{
name = ogonek;
position = "{1292, 1}";
},
{
name = top;
position = "{750, 1592}";
},
{
name = top_case;
position = "{783, 1592}";
}
);
layerId = "BC722C43-F174-4026-9892-4620CE50CA16";
paths = (
{
closed = 1;
nodes = (
"1440 0 LINE",
"1440 677 LINE",
"1184 677 LINE",
"1088 352 LINE",
"800 352 LINE",
"800 716 LINE",
"1056 716 LINE",
"1056 978 LINE",
"800 978 LINE",
"800 1240 LINE",
"1088 1240 LINE",
"1184 959 LINE",
"1440 959 LINE",
"1440 1592 LINE",
"96 1592 LINE",
"96 1240 LINE",
"288 1240 LINE",
"288 352 LINE",
"96 352 LINE",
"96 0 LINE"
);
}
);
width = 1451;
}
);
unicode = 0045;
userData = {
com.typemytype.robofont.layerData = {
};
};
},
{
glyphname = F;
layers = (
{
layerId = "BC722C43-F174-4026-9892-4620CE50CA16";
paths = (
{
closed = 1;
nodes = (
"992 0 LINE",
"992 352 LINE",
"800 352 LINE",
"800 683 LINE",
"1025 683 LINE",
"1025 939 LINE",
"800 939 LINE",
"800 1240 LINE",
"1056 1240 LINE",
"1120 949 LINE",
"1408 949 LINE",
"1408 1592 LINE",
"96 1592 LINE",
"96 1240 LINE",
"288 1240 LINE",
"288 352 LINE",
"96 352 LINE",
"96 0 LINE"
);
}
);
width = 1434;
}
);
unicode = 0046;
userData = {
com.typemytype.robofont.layerData = {
};
};
},
{
glyphname = G;
layers = (
{
anchors = (
{
name = bottom;
position = "{839, 0}";
},
{
name = top;
position = "{839, 1592}";
},
{
name = top_case;
position = "{934, 1592}";
}
);
layerId = "BC722C43-F174-4026-9892-4620CE50CA16";
paths = (
{
closed = 1;
nodes = (
"1184 -29 OFFCURVE",
"1427 30 OFFCURVE",
"1632 140 CURVE",
"1632 855 LINE",
"992 855 LINE",
"992 558 LINE",
"1184 558 LINE",
"1184 416 LINE",
"1184 416 OFFCURVE",
"1092 378 OFFCURVE",
"993 378 CURVE SMOOTH",
"768 378 OFFCURVE",
"640 548 OFFCURVE",
"640 821 CURVE SMOOTH",
"640 1097 OFFCURVE",
"776 1260 OFFCURVE",
"987 1260 CURVE SMOOTH",
"1099 1260 OFFCURVE",
"1248 1187 OFFCURVE",
"1291 1003 CURVE",
"1599 1003 LINE",
"1599 1592 LINE",
"1254 1592 LINE",
"1220 1485 LINE",
"1141 1581 OFFCURVE",
"992 1623 OFFCURVE",
"863 1623 CURVE SMOOTH",
"358 1623 OFFCURVE",
"64 1278 OFFCURVE",
"64 822 CURVE SMOOTH",
"64 220 OFFCURVE",
"488 -29 OFFCURVE",
"952 -29 CURVE SMOOTH"
);
}
);
width = 1723;
}
);
unicode = 0047;
userData = {
com.typemytype.robofont.layerData = {
};
};
},
{
glyphname = H;
layers = (
{
anchors = (
{
name = top;
position = "{917, 1592}";
},
{
name = top_case;
position = "{937, 1592}";
}
);
layerId = "BC722C43-F174-4026-9892-4620CE50CA16";
paths = (
{
closed = 1;
nodes = (
"873 0 LINE",
"873 352 LINE",
"745 352 LINE",
"745 635 LINE",
"1129 635 LINE",
"1129 352 LINE",
"1001 352 LINE",
"1001 0 LINE",
"1801 0 LINE",
"1801 352 LINE",
"1641 352 LINE",
"1641 1240 LINE",
"1801 1240 LINE",
"1801 1592 LINE",
"1001 1594 LINE",
"1001 1240 LINE",
"1129 1240 LINE",
"1129 976 LINE",
"745 976 LINE",
"745 1240 LINE",
"873 1240 LINE",
"873 1594 LINE",
"73 1592 LINE",
"73 1240 LINE",
"233 1240 LINE",
"233 352 LINE",
"73 352 LINE",
"73 0 LINE"
);
}
);
width = 1874;
}
);
unicode = 0048;
userData = {
com.typemytype.robofont.guides = (
);
com.typemytype.robofont.layerData = {
};
};
},
{
glyphname = Hbar;
layers = (
{
anchors = (
{
name = center;
position = "{937, 796}";
},
{
name = top;
position = "{937, 1592}";
}
);
layerId = "BC722C43-F174-4026-9892-4620CE50CA16";
paths = (
{
closed = 1;
nodes = (
"73 1041 LINE",
"1801 1041 LINE",
"1801 1174 LINE",
"73 1174 LINE"
);
},
{
closed = 1;
nodes = (
"873 0 LINE",
"873 352 LINE",
"745 352 LINE",
"745 635 LINE",
"1129 635 LINE",
"1129 352 LINE",
"1001 352 LINE",
"1001 0 LINE",
"1801 0 LINE",
"1801 352 LINE",
"1641 352 LINE",
"1641 1270 LINE",
"1801 1270 LINE",
"1801 1592 LINE",
"1001 1592 LINE",
"1001 1270 LINE",
"1129 1270 LINE",
"1129 946 LINE",
"745 946 LINE",
"745 1270 LINE",
"873 1270 LINE",
"873 1592 LINE",
"73 1592 LINE",
"73 1270 LINE",
"233 1270 LINE",
"233 352 LINE",
"73 352 LINE",
"73 0 LINE"
);
}
);
width = 1874;
}
);
leftMetricsKey = "=H";
rightMetricsKey = "=H";
unicode = 0126;
},
{
glyphname = I;
layers = (
{
anchors = (
{
name = bottom;
position = "{544, 0}";
},
{
name = ogonek;
position = "{844, 0}";
},
{
name = top;
position = "{564, 1592}";
},
{
name = top_case;
position = "{544, 1592}";
}
);
layerId = "BC722C43-F174-4026-9892-4620CE50CA16";
paths = (
{
closed = 1;
nodes = (
"960 0 LINE",
"960 352 LINE",
"800 352 LINE",
"800 1240 LINE",
"960 1240 LINE",
"960 1592 LINE",
"128 1592 LINE",
"128 1240 LINE",
"288 1240 LINE",
"288 352 LINE",
"128 352 LINE",
"128 0 LINE"
);
}
);
width = 1029;
}
);
unicode = 0049;
userData = {
com.typemytype.robofont.guides = (
);
com.typemytype.robofont.layerData = {
};
};
},
{
glyphname = J;
layers = (
{
anchors = (
{
name = top;
position = "{647, 1592}";
},
{
name = top_case;
position = "{880, 1592}";
}
);
layerId = "BC722C43-F174-4026-9892-4620CE50CA16";
paths = (
{
closed = 1;
nodes = (
"965 -30 OFFCURVE",
"1152 167 OFFCURVE",
"1152 475 CURVE SMOOTH",
"1152 1240 LINE",
"1312 1240 LINE",
"1312 1593 LINE",
"448 1593 LINE",
"448 1240 LINE",
"640 1240 LINE",
"640 572 LINE SMOOTH",
"640 458 OFFCURVE",
"583 352 OFFCURVE",
"488 352 CURVE SMOOTH",
"370 352 OFFCURVE",
"352 458 OFFCURVE",
"352 633 CURVE",
"64 633 LINE",
"64 -13 LINE",
"331 -13 LINE",
"368 99 LINE",
"427 26 OFFCURVE",
"523 -30 OFFCURVE",
"656 -30 CURVE SMOOTH"
);
}
);
width = 1368;
}
);
unicode = 004A;
userData = {
com.typemytype.robofont.layerData = {
};
};
},
{
glyphname = K;
layers = (
{
anchors = (
{
name = bottom;
position = "{874, 0}";
},
{
name = top;
position = "{874, 1592}";
}
);
layerId = "BC722C43-F174-4026-9892-4620CE50CA16";
paths = (
{
closed = 1;
nodes = (
"960 0 LINE",
"960 352 LINE",
"800 352 LINE",
"800 630 LINE",
"947 630 LINE SMOOTH",
"1009 630 OFFCURVE",
"1057 543 OFFCURVE",
"1057 482 CURVE SMOOTH",
"1057 307 LINE SMOOTH",
"1057 102 OFFCURVE",
"1169 0 OFFCURVE",
"1393 0 CURVE SMOOTH",
"1760 0 LINE",
"1760 352 LINE",
"1645 352 LINE SMOOTH",
"1602 352 OFFCURVE",
"1578 392 OFFCURVE",
"1578 431 CURVE SMOOTH",
"1578 592 LINE SMOOTH",
"1578 788 OFFCURVE",
"1428 840 OFFCURVE",
"1232 840 CURVE",
"1232 854 LINE",
"1551 1240 LINE",
"1688 1240 LINE",
"1688 1592 LINE",
"1064 1592 LINE",
"1064 1240 LINE",
"800 877 LINE",
"800 1240 LINE",
"928 1240 LINE",
"928 1592 LINE",
"128 1592 LINE",
"128 1240 LINE",
"288 1240 LINE",
"288 352 LINE",
"128 352 LINE",
"128 0 LINE"
);
}
);
width = 1814;
}
);
unicode = 004B;
userData = {
com.typemytype.robofont.layerData = {
};
};
},
{
glyphname = L;
layers = (
{
anchors = (
{
name = bottom;
position = "{680, 0}";
},
{
name = center_case;
position = "{1259, 1032}";
},
{
name = top;
position = "{680, 1592}";
},
{
name = top_case;
position = "{544, 1592}";
},
{
name = topright;
position = "{1096, 1592}";
}
);
layerId = "BC722C43-F174-4026-9892-4620CE50CA16";
paths = (
{
closed = 1;
nodes = (
"1407 0 LINE",
"1407 709 LINE",
"1152 709 LINE",
"1056 359 LINE",
"800 359 LINE",
"800 1240 LINE",
"960 1240 LINE",
"960 1592 LINE",
"128 1592 LINE",
"128 1240 LINE",
"288 1240 LINE",
"288 359 LINE",
"128 359 LINE",
"128 0 LINE"
);
}
);
width = 1435;
}
);
unicode = 004C;
userData = {
com.typemytype.robofont.layerData = {
};
};
},
{
glyphname = Lslash;
layers = (
{
layerId = "BC722C43-F174-4026-9892-4620CE50CA16";
paths = (
{
closed = 1;
nodes = (
"1387 0 LINE",
"1387 709 LINE",
"1101 709 LINE",
"1014 359 LINE",
"823 359 LINE",
"823 1270 LINE",
"977 1270 LINE",
"977 1622 LINE",
"109 1622 LINE",
"109 1270 LINE",
"256 1270 LINE",
"256 359 LINE",
"113 359 LINE",
"114 0 LINE"
);
},
{
closed = 1;
nodes = (
"1046 981 LINE",
"947 1160 LINE",
"78 656 LINE",
"178 478 LINE"
);
}
);
width = 1463;
}
);
unicode = 0141;
},
{
glyphname = M;
layers = (
{
layerId = "BC722C43-F174-4026-9892-4620CE50CA16";
paths = (
{
closed = 1;
nodes = (
"736 0 LINE",
"736 352 LINE",
"640 352 OFFCURVE",
"576 352 OFFCURVE",
"576 352 CURVE",
"576 969 LINE",
"992 0 LINE",
"1280 0 LINE",
"1632 947 LINE",
"1632 352 LINE",
"1504 352 LINE",
"1504 0 LINE",
"2336 0 LINE",
"2336 352 LINE",
"2144 352 LINE",
"2144 1240 LINE",
"2336 1240 LINE",
"2336 1592 LINE",
"1536 1592 LINE",
"1231 826 LINE",
"921 1592 LINE",
"64 1592 LINE",
"64 1240 LINE",
"256 1240 LINE",
"256 352 LINE",
"256 352 OFFCURVE",
"177 352 OFFCURVE",
"64 352 CURVE",
"64 0 LINE"
);
}
);
width = 2371;
}
);
unicode = 004D;
userData = {
com.typemytype.robofont.layerData = {
};
};
},
{
glyphname = N;
layers = (
{
anchors = (
{
name = bottom;
position = "{912, 0}";
},
{
name = top;
position = "{912, 1592}";
},
{
name = top_case;
position = "{948, 1592}";
}
);
layerId = "BC722C43-F174-4026-9892-4620CE50CA16";
paths = (
{
closed = 1;
nodes = (
"718 0 LINE",
"718 359 LINE",
"560 359 LINE",
"560 878 LINE",
"1033 0 LINE",
"1639 0 LINE",
"1639 1240 LINE",
"1797 1240 LINE",
"1797 1592 LINE",
"1160 1592 LINE",
"1160 1240 LINE",
"1318 1240 LINE",
"1318 647 LINE",
"822 1593 LINE",
"87 1593 LINE",
"87 1242 LINE",
"244 1242 LINE",
"244 359 LINE",
"81 359 LINE",
"81 0 LINE"
);
}
);
width = 1851;
}
);
unicode = 004E;
},
{
glyphname = Eng;
layers = (
{
layerId = "BC722C43-F174-4026-9892-4620CE50CA16";
paths = (
{
closed = 1;
nodes = (
"1594 1130 LINE SMOOTH",
"1594 1414 OFFCURVE",
"1469 1621 OFFCURVE",
"1175 1621 CURVE SMOOTH",
"890 1621 OFFCURVE",
"674 1430 OFFCURVE",
"581 1036 CURVE",
"762 1018 LINE",
"762 1182 OFFCURVE",
"810 1303 OFFCURVE",
"934 1303 CURVE SMOOTH",
"1041 1303 OFFCURVE",
"1082 1205 OFFCURVE",
"1082 1049 CURVE SMOOTH",
"1082 47 LINE SMOOTH",
"1082 -121 OFFCURVE",
"1009 -202 OFFCURVE",
"861 -202 CURVE SMOOTH",
"756 -202 OFFCURVE",
"642 -183 OFFCURVE",
"541 -149 CURVE",
"541 -439 LINE",
"678 -473 OFFCURVE",
"810 -490 OFFCURVE",
"931 -490 CURVE SMOOTH",
"1315 -490 OFFCURVE",
"1594 -307 OFFCURVE",
"1594 95 CURVE SMOOTH"
);
},
{
closed = 1;
nodes = (
"763 0 LINE",
"762 1621 LINE",
"90 1562 LINE",
"90 1240 LINE",
"250 1240 LINE",
"250 359 LINE",
"90 359 LINE",
"90 0 LINE"
);
}
);
width = 1634;
}
);
unicode = 014A;
},
{
glyphname = O;
layers = (
{
anchors = (
{
name = bottom;
position = "{864, 0}";
},
{
name = ogonek;
position = "{985, 0}";
},
{
name = top;
position = "{890, 1592}";
},
{
name = top_case;
position = "{859, 1624}";
}
);
layerId = "BC722C43-F174-4026-9892-4620CE50CA16";
paths = (
{
closed = 1;
nodes = (
"1376 -29 OFFCURVE",
"1664 323 OFFCURVE",
"1664 798 CURVE SMOOTH",
"1664 1295 OFFCURVE",
"1376 1623 OFFCURVE",
"864 1623 CURVE SMOOTH",
"352 1623 OFFCURVE",
"64 1295 OFFCURVE",
"64 798 CURVE SMOOTH",
"64 323 OFFCURVE",
"352 -29 OFFCURVE",
"864 -29 CURVE SMOOTH"
);
},
{
closed = 1;
nodes = (
"714 326 OFFCURVE",
"640 524 OFFCURVE",
"640 806 CURVE SMOOTH",
"640 1077 OFFCURVE",
"708 1268 OFFCURVE",
"864 1268 CURVE SMOOTH",
"1020 1268 OFFCURVE",
"1088 1077 OFFCURVE",
"1088 806 CURVE SMOOTH",
"1088 524 OFFCURVE",
"1014 326 OFFCURVE",
"864 326 CURVE SMOOTH"
);
}
);
width = 1779;
}
);
unicode = 004F;
userData = {
com.typemytype.robofont.layerData = {
};
};
},
{
glyphname = Ohorn;
layers = (
{
anchors = (
{
name = bottom;
position = "{864, 0}";
},
{
name = ogonek;
position = "{985, 0}";
},
{
name = top;
position = "{864, 1592}";
},
{
name = top_case;
position = "{864, 1623}";
}
);
layerId = "BC722C43-F174-4026-9892-4620CE50CA16";
paths = (
{
closed = 1;
nodes = (
"64 323 OFFCURVE",
"352 -29 OFFCURVE",
"864 -29 CURVE SMOOTH",
"1376 -29 OFFCURVE",
"1664 323 OFFCURVE",
"1664 798 CURVE SMOOTH",
"1664 1103 OFFCURVE",
"1555 1345 OFFCURVE",
"1353 1486 CURVE",
"1270 1420 LINE",
"1516 1356 OFFCURVE",
"1731 1424 OFFCURVE",
"1731 1637 CURVE SMOOTH",
"1731 1694 OFFCURVE",
"1719 1747 OFFCURVE",
"1695 1796 CURVE",
"1427 1755 LINE",
"1441 1726 OFFCURVE",
"1450 1700 OFFCURVE",
"1450 1667 CURVE SMOOTH",
"1450 1602 OFFCURVE",
"1407 1568 OFFCURVE",
"1326 1568 CURVE SMOOTH",
"1185 1568 OFFCURVE",
"1095 1623 OFFCURVE",
"864 1623 CURVE SMOOTH",
"352 1623 OFFCURVE",
"64 1295 OFFCURVE",
"64 798 CURVE SMOOTH"
);
},
{
closed = 1;
nodes = (
"640 1077 OFFCURVE",
"708 1268 OFFCURVE",
"864 1268 CURVE SMOOTH",
"1020 1268 OFFCURVE",
"1088 1077 OFFCURVE",
"1088 806 CURVE SMOOTH",
"1088 524 OFFCURVE",
"1014 326 OFFCURVE",
"864 326 CURVE SMOOTH",
"714 326 OFFCURVE",
"640 524 OFFCURVE",
"640 806 CURVE SMOOTH"
);
}
);
width = 1779;
},
{
anchors = (
{
name = bottom;
position = "{864, 0}";
},
{
name = ogonek;
position = "{985, 0}";
},
{
name = top;
position = "{890, 1592}";
},
{
name = top_case;
position = "{859, 1624}";
}
);
associatedMasterId = "BC722C43-F174-4026-9892-4620CE50CA16";
layerId = "A9D89B94-CD3C-4973-AEC3-E5B391A5836D";
name = "Regular Jul 25 16, 10:01";
paths = (
{
closed = 1;
nodes = (
"864 1521 LINE",
"1046 1447 OFFCURVE",
"1278 1397 OFFCURVE",
"1439 1397 CURVE SMOOTH",
"1607 1397 OFFCURVE",
"1731 1475 OFFCURVE",
"1731 1637 CURVE SMOOTH",
"1731 1694 OFFCURVE",
"1719 1747 OFFCURVE",
"1695 1796 CURVE",
"1427 1755 LINE",
"1441 1726 OFFCURVE",
"1450 1700 OFFCURVE",
"1450 1667 CURVE SMOOTH",
"1450 1602 OFFCURVE",
"1407 1568 OFFCURVE",
"1326 1568 CURVE SMOOTH",
"1185 1568 OFFCURVE",
"1095 1623 OFFCURVE",
"864 1623 CURVE"
);
},
{
closed = 1;
nodes = (
"1376 -29 OFFCURVE",
"1664 323 OFFCURVE",
"1664 798 CURVE SMOOTH",
"1664 1295 OFFCURVE",
"1376 1623 OFFCURVE",
"864 1623 CURVE SMOOTH",
"352 1623 OFFCURVE",
"64 1295 OFFCURVE",
"64 798 CURVE SMOOTH",
"64 323 OFFCURVE",
"352 -29 OFFCURVE",
"864 -29 CURVE SMOOTH"
);
},
{
closed = 1;
nodes = (
"714 326 OFFCURVE",
"640 524 OFFCURVE",
"640 806 CURVE SMOOTH",
"640 1077 OFFCURVE",
"708 1268 OFFCURVE",
"864 1268 CURVE SMOOTH",
"1020 1268 OFFCURVE",
"1088 1077 OFFCURVE",
"1088 806 CURVE SMOOTH",
"1088 524 OFFCURVE",
"1014 326 OFFCURVE",
"864 326 CURVE SMOOTH"
);
}
);
width = 1779;
}
);
unicode = 01A0;
},
{
glyphname = Oslash;
layers = (
{
anchors = (
{
name = top;
position = "{865, 1592}";
},
{
name = top_case;
position = "{925, 1630}";
}
);
background = {
anchors = (
{
name = top;
position = "{865, 1592}";
}
);
paths = (
{
closed = 1;
nodes = (
"782 -23 LINE",
"816 -27 OFFCURVE",
"851 -29 OFFCURVE",
"886 -29 CURVE SMOOTH",
"1039 -29 OFFCURVE",
"1178 7 OFFCURVE",
"1303 80 CURVE SMOOTH",
"1428 153 OFFCURVE",
"1526 253 OFFCURVE",
"1598 381 CURVE SMOOTH",
"1670 509 OFFCURVE",
"1706 651 OFFCURVE",
"1706 808 CURVE SMOOTH",
"1706 1015 OFFCURVE",
"1656 1189 OFFCURVE",
"1556 1330 CURVE SMOOTH",
"1456 1471 OFFCURVE",
"1321 1566 OFFCURVE",
"1152 1616 CURVE",
"1188 1774 LINE",
"1035 1804 LINE",
"998 1646 LINE",
"956 1651 OFFCURVE",
"919 1653 OFFCURVE",
"887 1653 CURVE SMOOTH",
"730 1653 OFFCURVE",
"590 1620 OFFCURVE",
"467 1553 CURVE SMOOTH",
"344 1486 OFFCURVE",
"247 1388 OFFCURVE",
"175 1259 CURVE SMOOTH",
"103 1130 OFFCURVE",
"67 979 OFFCURVE",
"67 807 CURVE SMOOTH",
"67 618 OFFCURVE",
"118 452 OFFCURVE",
"220 308 CURVE SMOOTH",
"322 164 OFFCURVE",
"456 65 OFFCURVE",
"622 10 CURVE",
"582 -155 LINE",
"744 -194 LINE"
);
},
{
closed = 1;
nodes = (
"713 451 OFFCURVE",
"707 467 OFFCURVE",
"702 484 CURVE SMOOTH",
"697 501 OFFCURVE",
"693 521 OFFCURVE",
"690 543 CURVE SMOOTH",
"687 565 OFFCURVE",
"684 583 OFFCURVE",
"682 597 CURVE SMOOTH",
"680 611 OFFCURVE",
"679 632 OFFCURVE",
"678 660 CURVE SMOOTH",
"677 688 OFFCURVE",
"677 706 OFFCURVE",
"677 714 CURVE SMOOTH",
"677 772 LINE",
"677 819 LINE",
"677 854 LINE SMOOTH",
"676 875 OFFCURVE",
"676 897 OFFCURVE",
"677 920 CURVE SMOOTH",
"678 943 OFFCURVE",
"679 967 OFFCURVE",
"680 991 CURVE SMOOTH",
"681 1015 OFFCURVE",
"683 1039 OFFCURVE",
"687 1063 CURVE SMOOTH",
"691 1087 OFFCURVE",
"696 1110 OFFCURVE",
"702 1132 CURVE SMOOTH",
"708 1154 OFFCURVE",
"716 1175 OFFCURVE",
"727 1194 CURVE SMOOTH",
"738 1213 OFFCURVE",
"750 1230 OFFCURVE",
"764 1244 CURVE SMOOTH",
"778 1258 OFFCURVE",
"795 1269 OFFCURVE",
"816 1277 CURVE SMOOTH",
"837 1285 OFFCURVE",
"860 1289 OFFCURVE",
"886 1289 CURVE",
"888 1294 LINE",
"895 1294 OFFCURVE",
"905 1293 OFFCURVE",
"918 1292 CURVE",
"720 436 LINE"
);
},
{
closed = 1;
nodes = (
"886 312 LINE",
"874 312 OFFCURVE",
"865 312 OFFCURVE",
"860 313 CURVE",
"1054 1178 LINE",
"1061 1163 OFFCURVE",
"1067 1147 OFFCURVE",
"1072 1130 CURVE SMOOTH",
"1077 1113 OFFCURVE",
"1081 1094 OFFCURVE",
"1084 1074 CURVE SMOOTH",
"1087 1054 OFFCURVE",
"1089 1036 OFFCURVE",
"1091 1021 CURVE SMOOTH",
"1093 1006 OFFCURVE",
"1094 987 OFFCURVE",
"1095 963 CURVE SMOOTH",
"1096 939 OFFCURVE",
"1096 922 OFFCURVE",
"1096 911 CURVE SMOOTH",
"1096 857 LINE",
"1096 812 LINE",
"1096 782 LINE SMOOTH",
"1097 759 OFFCURVE",
"1097 735 OFFCURVE",
"1096 710 CURVE SMOOTH",
"1095 685 OFFCURVE",
"1094 659 OFFCURVE",
"1093 633 CURVE SMOOTH",
"1092 607 OFFCURVE",
"1089 581 OFFCURVE",
"1085 555 CURVE SMOOTH",
"1081 529 OFFCURVE",
"1076 504 OFFCURVE",
"1070 480 CURVE SMOOTH",
"1064 456 OFFCURVE",
"1056 433 OFFCURVE",
"1045 412 CURVE SMOOTH",
"1034 391 OFFCURVE",
"1021 373 OFFCURVE",
"1007 358 CURVE SMOOTH",
"993 343 OFFCURVE",
"975 331 OFFCURVE",
"954 322 CURVE SMOOTH",
"933 313 OFFCURVE",
"910 309 OFFCURVE",
"884 309 CURVE"
);
}
);
};
layerId = "BC722C43-F174-4026-9892-4620CE50CA16";
paths = (
{
closed = 1;
nodes = (
"782 -23 LINE",
"816 -27 OFFCURVE",
"851 -29 OFFCURVE",
"886 -29 CURVE SMOOTH",
"1394 -29 OFFCURVE",
"1706 372 OFFCURVE",
"1706 808 CURVE SMOOTH",
"1706 1203 OFFCURVE",
"1509 1510 OFFCURVE",
"1152 1616 CURVE",
"1188 1774 LINE",
"1035 1804 LINE",
"998 1646 LINE",
"956 1651 OFFCURVE",
"919 1653 OFFCURVE",
"887 1653 CURVE SMOOTH",
"356 1653 OFFCURVE",
"67 1272 OFFCURVE",
"67 807 CURVE SMOOTH",
"67 435 OFFCURVE",
"281 123 OFFCURVE",
"622 10 CURVE",
"582 -155 LINE",
"744 -194 LINE"
);
},
{
closed = 1;
nodes = (
"685 513 OFFCURVE",
"677 595 OFFCURVE",
"677 854 CURVE SMOOTH",
"677 1063 OFFCURVE",
"702 1294 OFFCURVE",
"888 1294 CURVE SMOOTH",
"895 1294 OFFCURVE",
"910 1293 OFFCURVE",
"918 1292 CURVE",
"720 436 LINE"
);
},
{
closed = 1;
nodes = (
"875 309 OFFCURVE",
"868 310 OFFCURVE",
"860 313 CURVE",
"1054 1178 LINE",
"1088 1104 OFFCURVE",
"1096 1023 OFFCURVE",
"1096 782 CURVE SMOOTH",
"1096 549 OFFCURVE",
"1072 309 OFFCURVE",
"884 309 CURVE SMOOTH"
);
}
);
width = 1777;
},
{
anchors = (
{
name = top;
position = "{865, 1592}";
}
);
associatedMasterId = "BC722C43-F174-4026-9892-4620CE50CA16";
layerId = "FFF7ABEC-3F4C-43B4-BBC2-A013FCCA4A79";
name = "Regular Jul 5 16, 14:26";
paths = (
{
closed = 1;
nodes = (
"782 -23 LINE",
"816 -27 OFFCURVE",
"851 -29 OFFCURVE",
"886 -29 CURVE SMOOTH",
"1039 -29 OFFCURVE",
"1178 7 OFFCURVE",
"1303 80 CURVE SMOOTH",
"1428 153 OFFCURVE",
"1526 253 OFFCURVE",
"1598 381 CURVE SMOOTH",
"1670 509 OFFCURVE",
"1706 651 OFFCURVE",
"1706 808 CURVE SMOOTH",
"1706 1015 OFFCURVE",
"1656 1189 OFFCURVE",
"1556 1330 CURVE SMOOTH",
"1456 1471 OFFCURVE",
"1321 1566 OFFCURVE",
"1152 1616 CURVE",
"1188 1774 LINE",
"1035 1804 LINE",
"998 1646 LINE",
"956 1651 OFFCURVE",
"919 1653 OFFCURVE",
"887 1653 CURVE SMOOTH",
"730 1653 OFFCURVE",
"590 1620 OFFCURVE",
"467 1553 CURVE SMOOTH",
"344 1486 OFFCURVE",
"247 1388 OFFCURVE",
"175 1259 CURVE SMOOTH",
"103 1130 OFFCURVE",
"67 979 OFFCURVE",
"67 807 CURVE SMOOTH",
"67 618 OFFCURVE",
"118 452 OFFCURVE",
"220 308 CURVE SMOOTH",
"322 164 OFFCURVE",
"456 65 OFFCURVE",
"622 10 CURVE",
"582 -155 LINE",
"744 -194 LINE"
);
},
{
closed = 1;
nodes = (
"713 451 OFFCURVE",
"707 467 OFFCURVE",
"702 484 CURVE SMOOTH",
"697 501 OFFCURVE",
"693 521 OFFCURVE",
"690 543 CURVE SMOOTH",
"687 565 OFFCURVE",
"684 583 OFFCURVE",
"682 597 CURVE SMOOTH",
"680 611 OFFCURVE",
"679 632 OFFCURVE",
"678 660 CURVE SMOOTH",
"677 688 OFFCURVE",
"677 706 OFFCURVE",
"677 714 CURVE SMOOTH",
"677 772 LINE",
"677 819 LINE",
"677 854 LINE SMOOTH",
"676 875 OFFCURVE",
"676 897 OFFCURVE",
"677 920 CURVE SMOOTH",
"678 943 OFFCURVE",
"679 967 OFFCURVE",
"680 991 CURVE SMOOTH",
"681 1015 OFFCURVE",
"683 1039 OFFCURVE",
"687 1063 CURVE SMOOTH",
"691 1087 OFFCURVE",
"696 1110 OFFCURVE",
"702 1132 CURVE SMOOTH",
"708 1154 OFFCURVE",
"716 1175 OFFCURVE",
"727 1194 CURVE SMOOTH",
"738 1213 OFFCURVE",
"750 1230 OFFCURVE",
"764 1244 CURVE SMOOTH",
"778 1258 OFFCURVE",
"795 1269 OFFCURVE",
"816 1277 CURVE SMOOTH",
"837 1285 OFFCURVE",
"860 1289 OFFCURVE",
"886 1289 CURVE",
"888 1294 LINE",
"895 1294 OFFCURVE",
"905 1293 OFFCURVE",
"918 1292 CURVE",
"720 436 LINE"
);
},
{
closed = 1;
nodes = (
"886 312 LINE",
"874 312 OFFCURVE",
"865 312 OFFCURVE",
"860 313 CURVE",
"1054 1178 LINE",
"1061 1163 OFFCURVE",
"1067 1147 OFFCURVE",
"1072 1130 CURVE SMOOTH",
"1077 1113 OFFCURVE",
"1081 1094 OFFCURVE",
"1084 1074 CURVE SMOOTH",
"1087 1054 OFFCURVE",
"1089 1036 OFFCURVE",
"1091 1021 CURVE SMOOTH",
"1093 1006 OFFCURVE",
"1094 987 OFFCURVE",
"1095 963 CURVE SMOOTH",
"1096 939 OFFCURVE",
"1096 922 OFFCURVE",
"1096 911 CURVE SMOOTH",
"1096 857 LINE",
"1096 812 LINE",
"1096 782 LINE SMOOTH",
"1097 759 OFFCURVE",
"1097 735 OFFCURVE",
"1096 710 CURVE SMOOTH",
"1095 685 OFFCURVE",
"1094 659 OFFCURVE",
"1093 633 CURVE SMOOTH",
"1092 607 OFFCURVE",
"1089 581 OFFCURVE",
"1085 555 CURVE SMOOTH",
"1081 529 OFFCURVE",
"1076 504 OFFCURVE",
"1070 480 CURVE SMOOTH",
"1064 456 OFFCURVE",
"1056 433 OFFCURVE",
"1045 412 CURVE SMOOTH",
"1034 391 OFFCURVE",
"1021 373 OFFCURVE",
"1007 358 CURVE SMOOTH",
"993 343 OFFCURVE",
"975 331 OFFCURVE",
"954 322 CURVE SMOOTH",
"933 313 OFFCURVE",
"910 309 OFFCURVE",
"884 309 CURVE"
);
}
);
width = 1777;
visible = 1;
}
);
unicode = 00D8;
},
{
glyphname = OE;
layers = (
{
anchors = (
{
name = top;
position = "{1135, 1592}";
}
);
layerId = "BC722C43-F174-4026-9892-4620CE50CA16";
paths = (
{
closed = 1;
nodes = (
"909 0 LINE",
"2229 0 LINE",
"2229 687 LINE",
"1956 687 LINE",
"1893 420 LINE",
"1880 350 LINE",
"1661 350 LINE",
"1661 636 LINE",
"1866 636 LINE",
"1866 988 LINE",
"1661 988 LINE",
"1661 1258 LINE",
"1874 1258 LINE",
"1950 956 LINE",
"2218 957 LINE",
"2218 1610 LINE",
"903 1610 LINE SMOOTH",
"739 1610 OFFCURVE",
"593 1575 OFFCURVE",
"466 1506 CURVE SMOOTH",
"339 1437 OFFCURVE",
"241 1340 OFFCURVE",
"172 1216 CURVE SMOOTH",
"103 1092 OFFCURVE",
"68 951 OFFCURVE",
"68 792 CURVE SMOOTH",
"69 552 OFFCURVE",
"145 360 OFFCURVE",
"297 216 CURVE SMOOTH",
"449 72 OFFCURVE",
"652 0 OFFCURVE",
"907 0 CURVE SMOOTH"
);
},
{
closed = 1;
nodes = (
"879 350 OFFCURVE",
"853 354 OFFCURVE",
"830 362 CURVE SMOOTH",
"807 370 OFFCURVE",
"788 380 OFFCURVE",
"773 393 CURVE SMOOTH",
"758 406 OFFCURVE",
"745 423 OFFCURVE",
"734 445 CURVE SMOOTH",
"723 467 OFFCURVE",
"714 488 OFFCURVE",
"708 509 CURVE SMOOTH",
"702 530 OFFCURVE",
"697 555 OFFCURVE",
"694 585 CURVE SMOOTH",
"691 615 OFFCURVE",
"689 642 OFFCURVE",
"688 666 CURVE SMOOTH",
"687 690 OFFCURVE",
"686 719 OFFCURVE",
"686 754 CURVE",
"684 755 LINE",
"684 817 LINE",
"682 852 OFFCURVE",
"682 887 OFFCURVE",
"684 923 CURVE SMOOTH",
"686 959 OFFCURVE",
"688 993 OFFCURVE",
"690 1026 CURVE SMOOTH",
"692 1059 OFFCURVE",
"698 1089 OFFCURVE",
"708 1117 CURVE SMOOTH",
"718 1145 OFFCURVE",
"730 1169 OFFCURVE",
"745 1190 CURVE SMOOTH",
"760 1211 OFFCURVE",
"780 1227 OFFCURVE",
"806 1239 CURVE SMOOTH",
"832 1251 OFFCURVE",
"862 1257 OFFCURVE",
"897 1257 CURVE SMOOTH",
"1107 1257 LINE",
"1107 350 LINE",
"908 350 LINE SMOOTH"
);
}
);
width = 2319;
}
);
unicode = 0152;
},
{
glyphname = P;
layers = (
{
layerId = "BC722C43-F174-4026-9892-4620CE50CA16";
paths = (
{
closed = 1;
nodes = (
"943 0 LINE",
"943 359 LINE",
"797 359 LINE",
"797 569 LINE",
"850 562 OFFCURVE",
"900 559 OFFCURVE",
"947 559 CURVE SMOOTH",
"1372 559 OFFCURVE",
"1609 714 OFFCURVE",
"1609 1133 CURVE SMOOTH",
"1609 1519 OFFCURVE",
"1260 1593 OFFCURVE",
"938 1593 CURVE SMOOTH",
"87 1593 LINE",
"87 1240 LINE",
"238 1240 LINE",
"238 359 LINE",
"82 359 LINE",
"82 0 LINE"
);
},
{
closed = 1;
nodes = (
"798 1240 LINE",
"882 1240 LINE SMOOTH",
"992 1240 OFFCURVE",
"1066 1186 OFFCURVE",
"1066 1086 CURVE SMOOTH",
"1066 952 OFFCURVE",
"990 885 OFFCURVE",
"839 885 CURVE SMOOTH",
"798 885 LINE"
);
}
);
width = 1681;
}
);
unicode = 0050;
},
{
glyphname = Thorn;
layers = (
{
layerId = "BC722C43-F174-4026-9892-4620CE50CA16";
paths = (
{
closed = 1;
nodes = (
"939 0 LINE",
"939 363 LINE",
"793 363 LINE",
"793 569 LINE",
"846 562 OFFCURVE",
"896 559 OFFCURVE",
"943 559 CURVE SMOOTH",
"1044 559 OFFCURVE",
"1134 568 OFFCURVE",
"1213 587 CURVE SMOOTH",
"1292 606 OFFCURVE",
"1361 635 OFFCURVE",
"1420 675 CURVE SMOOTH",
"1479 715 OFFCURVE",
"1524 768 OFFCURVE",
"1555 834 CURVE SMOOTH",
"1586 900 OFFCURVE",
"1602 977 OFFCURVE",
"1602 1066 CURVE SMOOTH",
"1602 1115 OFFCURVE",
"1597 1160 OFFCURVE",
"1587 1201 CURVE SMOOTH",
"1577 1242 OFFCURVE",
"1563 1277 OFFCURVE",
"1546 1307 CURVE SMOOTH",
"1529 1337 OFFCURVE",
"1507 1364 OFFCURVE",
"1480 1388 CURVE SMOOTH",
"1453 1412 OFFCURVE",
"1425 1432 OFFCURVE",
"1396 1448 CURVE SMOOTH",
"1367 1464 OFFCURVE",
"1333 1478 OFFCURVE",
"1293 1490 CURVE SMOOTH",
"1253 1502 OFFCURVE",
"1215 1511 OFFCURVE",
"1179 1518 CURVE SMOOTH",
"1143 1525 OFFCURVE",
"1101 1530 OFFCURVE",
"1054 1534 CURVE SMOOTH",
"1007 1538 OFFCURVE",
"964 1540 OFFCURVE",
"925 1541 CURVE SMOOTH",
"886 1542 OFFCURVE",
"842 1542 OFFCURVE",
"793 1542 CURVE",
"794 1842 LINE",
"84 1842 LINE",
"84 1487 LINE",
"235 1487 LINE",
"235 362 LINE",
"78 363 LINE",
"78 0 LINE"
);
},
{
closed = 1;
nodes = (
"794 1207 LINE",
"898 1207 LINE SMOOTH",
"949 1207 OFFCURVE",
"992 1194 OFFCURVE",
"1028 1169 CURVE SMOOTH",
"1064 1144 OFFCURVE",
"1082 1106 OFFCURVE",
"1082 1055 CURVE SMOOTH",
"1082 998 OFFCURVE",
"1062 957 OFFCURVE",
"1023 932 CURVE SMOOTH",
"984 907 OFFCURVE",
"928 894 OFFCURVE",
"855 894 CURVE SMOOTH",
"794 894 LINE"
);
}
);
width = 1673;
}
);
unicode = 00DE;
},
{
glyphname = Q;
layers = (
{
layerId = "BC722C43-F174-4026-9892-4620CE50CA16";
paths = (
{
closed = 1;
nodes = (
"970 -29 OFFCURVE",
"1049 -18 OFFCURVE",
"1122 1 CURVE",
"1760 1 LINE",
"1760 360 LINE",
"1597 360 LINE",
"1594 359 LINE",
"1667 484 OFFCURVE",
"1708 633 OFFCURVE",
"1708 798 CURVE SMOOTH",
"1708 1295 OFFCURVE",
"1393 1623 OFFCURVE",
"888 1623 CURVE SMOOTH",
"383 1623 OFFCURVE",
"68 1295 OFFCURVE",
"68 798 CURVE SMOOTH",
"68 323 OFFCURVE",
"407 -29 OFFCURVE",
"888 -29 CURVE SMOOTH"
);
},
{
closed = 1;
nodes = (
"738 318 OFFCURVE",
"668 564 OFFCURVE",
"668 806 CURVE SMOOTH",
"668 1037 OFFCURVE",
"732 1260 OFFCURVE",
"888 1260 CURVE SMOOTH",
"1044 1260 OFFCURVE",
"1108 1037 OFFCURVE",
"1108 806 CURVE SMOOTH",
"1108 564 OFFCURVE",
"1038 318 OFFCURVE",
"888 318 CURVE SMOOTH"
);
}
);
width = 1835;
}
);
unicode = 0051;
},
{
glyphname = R;
layers = (
{
anchors = (
{
name = bottom;
position = "{916, 0}";
},
{
name = top;
position = "{916, 1592}";
},
{
name = top_case;
position = "{879, 1592}";
}
);
layerId = "BC722C43-F174-4026-9892-4620CE50CA16";
paths = (
{
closed = 1;
nodes = (
"128 0 OFFCURVE",
"960 0 OFFCURVE",
"960 0 CURVE",
"960 352 LINE",
"800 352 LINE",
"800 683 LINE",
"921 683 LINE SMOOTH",
"1074 683 OFFCURVE",
"1107 592 OFFCURVE",
"1107 440 CURVE SMOOTH",
"1107 -2 OFFCURVE",
"1214 0 OFFCURVE",
"1471 0 CURVE SMOOTH",
"1792 0 LINE",
"1792 358 LINE",
"1792 358 OFFCURVE",
"1568 358 OFFCURVE",
"1568 358 CURVE SMOOTH",
"1568 488 LINE SMOOTH",
"1568 646 OFFCURVE",
"1500 775 OFFCURVE",
"1298 807 CURVE",
"1497 844 OFFCURVE",
"1632 941 OFFCURVE",
"1632 1160 CURVE SMOOTH",
"1632 1473 OFFCURVE",
"1477 1592 OFFCURVE",
"1150 1592 CURVE SMOOTH",
"128 1592 LINE",
"128 1240 LINE",
"288 1240 LINE",
"288 352 LINE",
"128 352 LINE",
"128 0 LINE"
);
},
{
closed = 1;
nodes = (
"800 1240 LINE",
"958 1240 LINE SMOOTH",
"1071 1240 OFFCURVE",
"1152 1183 OFFCURVE",
"1152 1085 CURVE SMOOTH",
"1152 949 OFFCURVE",
"1073 909 OFFCURVE",
"938 909 CURVE SMOOTH",
"800 909 LINE"
);
}
);
width = 1780;
}
);
unicode = 0052;
userData = {
com.typemytype.robofont.layerData = {
};
};
},
{
glyphname = S;
layers = (
{
anchors = (
{
name = bottom;
position = "{719, 0}";
},
{
name = cedilla;
position = "{785, 0}";
},
{
name = top;
position = "{659, 1592}";
},
{
name = top_case;
position = "{754, 1592}";
}
);
layerId = "BC722C43-F174-4026-9892-4620CE50CA16";
paths = (
{
closed = 1;
nodes = (
"1133 -29 OFFCURVE",
"1332 203 OFFCURVE",
"1332 501 CURVE SMOOTH",
"1332 873 OFFCURVE",
"1068 991 OFFCURVE",
"756 1062 CURVE SMOOTH",
"656 1085 OFFCURVE",
"546 1112 OFFCURVE",
"546 1183 CURVE SMOOTH",
"546 1242 OFFCURVE",
"599 1275 OFFCURVE",
"692 1275 CURVE SMOOTH",
"811 1275 OFFCURVE",
"873 1238 OFFCURVE",
"929 1117 CURVE",
"1236 1117 LINE",
"1236 1593 LINE",
"951 1593 LINE",
"900 1500 LINE",
"828 1576 OFFCURVE",
"726 1623 OFFCURVE",
"594 1623 CURVE SMOOTH",
"274 1623 OFFCURVE",
"78 1423 OFFCURVE",
"78 1133 CURVE SMOOTH",
"78 735 OFFCURVE",
"347 626 OFFCURVE",
"670 538 CURVE SMOOTH",
"743 518 OFFCURVE",
"830 494 OFFCURVE",
"830 420 CURVE SMOOTH",
"830 364 OFFCURVE",
"763 334 OFFCURVE",
"691 334 CURVE SMOOTH",
"573 334 OFFCURVE",
"480 368 OFFCURVE",
"437 488 CURVE",
"115 488 LINE",
"115 0 LINE",
"438 0 LINE",
"474 92 LINE",
"576 11 OFFCURVE",
"652 -29 OFFCURVE",
"825 -29 CURVE SMOOTH"
);
}
);
width = 1406;
}
);
unicode = 0053;
},
{
glyphname = Germandbls;
layers = (
{
layerId = "BC722C43-F174-4026-9892-4620CE50CA16";
paths = (
{
closed = 1;
nodes = (
"1380 -21 OFFCURVE",
"1629 111 OFFCURVE",
"1629 481 CURVE SMOOTH",
"1629 749 OFFCURVE",
"1494 877 OFFCURVE",
"1228 899 CURVE",
"1464 1180 LINE",
"1464 1486 LINE",
"1316 1557 OFFCURVE",
"1078 1623 OFFCURVE",
"826 1623 CURVE SMOOTH",
"424 1623 OFFCURVE",
"201 1478 OFFCURVE",
"201 1092 CURVE SMOOTH",
"201 352 LINE",
"73 352 LINE",
"73 0 LINE",
"865 0 LINE",
"865 353 LINE",
"714 352 LINE",
"713 1131 LINE SMOOTH",
"713 1228 OFFCURVE",
"787 1274 OFFCURVE",
"905 1274 CURVE SMOOTH",
"973 1274 OFFCURVE",
"1031 1264 OFFCURVE",
"1078 1249 CURVE",
"789 899 LINE",
"789 748 LINE",
"1007 748 OFFCURVE",
"1147 682 OFFCURVE",
"1147 539 CURVE SMOOTH",
"1147 448 OFFCURVE",
"1109 374 OFFCURVE",
"1002 346 CURVE",
"1003 -21 LINE"
);
}
);
width = 1719;
}
);
unicode = 1E9E;
},
{
glyphname = Schwa;
layers = (
{
anchors = (
{
name = bottom;
position = "{870, 0}";
},
{
name = top;
position = "{919, 1623}";
}
);
layerId = "BC722C43-F174-4026-9892-4620CE50CA16";
paths = (
{
closed = 1;
nodes = (
"490 1623 OFFCURVE",
"270 1548 OFFCURVE",
"111 1449 CURVE",
"111 1053 LINE",
"134 1043 LINE",
"323 1155 OFFCURVE",
"511 1201 OFFCURVE",
"654 1201 CURVE SMOOTH",
"843 1201 OFFCURVE",
"1012 1090 OFFCURVE",
"1012 898 CURVE",
"88 898 LINE",
"77 861 OFFCURVE",
"64 794 OFFCURVE",
"64 745 CURVE SMOOTH",
"64 272 OFFCURVE",
"367 -29 OFFCURVE",
"820 -29 CURVE SMOOTH",
"1286 -29 OFFCURVE",
"1587 286 OFFCURVE",
"1587 795 CURVE SMOOTH",
"1587 1299 OFFCURVE",
"1271 1623 OFFCURVE",
"763 1623 CURVE SMOOTH"
);
},
{
closed = 1;
nodes = (
"1012 594 LINE SMOOTH",
"1012 481 OFFCURVE",
"934 349 OFFCURVE",
"823 349 CURVE SMOOTH",
"691 349 OFFCURVE",
"633 475 OFFCURVE",
"633 606 CURVE SMOOTH",
"633 637 LINE",
"1012 637 LINE"
);
}
);
width = 1702;
}
);
leftMetricsKey = "=O";
rightMetricsKey = "=O";
unicode = 018F;
},
{
glyphname = T;
layers = (
{
anchors = (
{
name = bottom;
position = "{779, 0}";
},
{
name = cedilla;
position = "{810, 0}";
},
{
name = center;
position = "{779, 796}";
},
{
name = top;
position = "{779, 1592}";
},
{
name = top_case;
position = "{812, 1592}";
}
);
layerId = "BC722C43-F174-4026-9892-4620CE50CA16";
paths = (
{
closed = 1;
nodes = (
"1255 0 LINE",
"1255 360 LINE",
"1091 360 LINE",
"1091 1240 LINE",
"1237 1240 LINE",
"1279 965 LINE",
"1560 965 LINE",
"1560 1592 LINE",
"63 1592 LINE",
"63 965 LINE",
"344 965 LINE",
"388 1240 LINE",
"528 1240 LINE",
"528 360 LINE",
"364 360 LINE",
"364 0 LINE"
);
}
);
width = 1636;
}
);
unicode = 0054;
},
{
glyphname = Tbar;
layers = (
{
components = (
{
name = T;
}
);
layerId = "BC722C43-F174-4026-9892-4620CE50CA16";
paths = (
{
closed = 1;
nodes = (
"263 634 LINE",
"1360 634 LINE",
"1360 767 LINE",
"263 767 LINE"
);
}
);
width = 1636;
}
);
unicode = 0166;
},
{
glyphname = U;
layers = (
{
anchors = (
{
name = bottom;
position = "{876, 0}";
},
{
name = ogonek;
position = "{957, 0}";
},
{
name = top;
position = "{828, 1592}";
},
{
name = top_case;
position = "{831, 1592}";
}
);
layerId = "BC722C43-F174-4026-9892-4620CE50CA16";
paths = (
{
closed = 1;
nodes = (
"1220 -29 OFFCURVE",
"1483 151 OFFCURVE",
"1483 550 CURVE SMOOTH",
"1483 1240 LINE",
"1637 1240 LINE",
"1637 1592 LINE",
"983 1592 LINE",
"983 1240 LINE",
"1147 1240 LINE",
"1147 536 LINE SMOOTH",
"1147 417 OFFCURVE",
"1075 346 OFFCURVE",
"961 346 CURVE SMOOTH",
"815 346 OFFCURVE",
"762 448 OFFCURVE",
"762 570 CURVE SMOOTH",
"762 1240 LINE",
"910 1240 LINE",
"910 1592 LINE",
"41 1592 LINE",
"41 1240 LINE",
"202 1240 LINE",
"202 704 LINE SMOOTH",
"202 245 OFFCURVE",
"381 -29 OFFCURVE",
"872 -29 CURVE SMOOTH"
);
}
);
width = 1691;
}
);
unicode = 0055;
},
{
glyphname = Uhorn;
layers = (
{
anchors = (
{
name = bottom;
position = "{876, 0}";
},
{
name = ogonek;
position = "{957, 0}";
},
{
name = top;
position = "{831, 1592}";
},
{
name = top_case;
position = "{831, 1592}";
}
);
layerId = "BC722C43-F174-4026-9892-4620CE50CA16";
paths = (
{
closed = 1;
nodes = (
"202 1240 LINE",
"202 704 LINE SMOOTH",
"202 245 OFFCURVE",
"381 -29 OFFCURVE",
"872 -29 CURVE SMOOTH",
"1220 -29 OFFCURVE",
"1483 151 OFFCURVE",
"1483 550 CURVE SMOOTH",
"1483 1240 LINE",
"1483 1315 LINE",
"1416 1280 LINE",
"1439 1276 OFFCURVE",
"1461 1274 OFFCURVE",
"1481 1274 CURVE SMOOTH",
"1655 1274 OFFCURVE",
"1866 1387 OFFCURVE",
"1866 1661 CURVE SMOOTH",
"1866 1722 OFFCURVE",
"1854 1778 OFFCURVE",
"1830 1830 CURVE",
"1557 1779 LINE",
"1571 1750 OFFCURVE",
"1580 1724 OFFCURVE",
"1580 1691 CURVE SMOOTH",
"1580 1626 OFFCURVE",
"1557 1592 OFFCURVE",
"1494 1592 CURVE SMOOTH",
"983 1592 LINE",
"983 1240 LINE",
"1147 1240 LINE",
"1147 536 LINE SMOOTH",
"1147 417 OFFCURVE",
"1075 346 OFFCURVE",
"961 346 CURVE SMOOTH",
"815 346 OFFCURVE",
"762 448 OFFCURVE",
"762 570 CURVE SMOOTH",
"762 1240 LINE",
"910 1240 LINE",
"910 1592 LINE",
"41 1592 LINE",
"41 1240 LINE"
);
}
);
width = 1904;
},
{
anchors = (
{
name = bottom;
position = "{876, 0}";
},
{
name = ogonek;
position = "{957, 0}";
},
{
name = top;
position = "{828, 1592}";
},
{
name = top_case;
position = "{831, 1592}";
}
);
associatedMasterId = "BC722C43-F174-4026-9892-4620CE50CA16";
layerId = "7B9F5F02-A91B-425D-808A-F3EBA917D195";
name = "Regular Jul 25 16, 10:02";
paths = (
{
closed = 1;
nodes = (
"1778 1431 OFFCURVE",
"1904 1506 OFFCURVE",
"1904 1661 CURVE SMOOTH",
"1904 1722 OFFCURVE",
"1892 1778 OFFCURVE",
"1868 1830 CURVE",
"1595 1779 LINE",
"1609 1750 OFFCURVE",
"1618 1724 OFFCURVE",
"1618 1691 CURVE SMOOTH",
"1618 1626 OFFCURVE",
"1575 1592 OFFCURVE",
"1494 1592 CURVE",
"1494 1431 LINE",
"1607 1431 LINE SMOOTH"
);
},
{
closed = 1;
nodes = (
"1220 -29 OFFCURVE",
"1483 151 OFFCURVE",
"1483 550 CURVE SMOOTH",
"1483 1240 LINE",
"1637 1240 LINE",
"1637 1592 LINE",
"983 1592 LINE",
"983 1240 LINE",
"1147 1240 LINE",
"1147 536 LINE SMOOTH",
"1147 417 OFFCURVE",
"1075 346 OFFCURVE",
"961 346 CURVE SMOOTH",
"815 346 OFFCURVE",
"762 448 OFFCURVE",
"762 570 CURVE SMOOTH",
"762 1240 LINE",
"910 1240 LINE",
"910 1592 LINE",
"41 1592 LINE",
"41 1240 LINE",
"202 1240 LINE",
"202 704 LINE SMOOTH",
"202 245 OFFCURVE",
"381 -29 OFFCURVE",
"872 -29 CURVE SMOOTH"
);
}
);
width = 1691;
}
);
unicode = 01AF;
},
{
glyphname = V;
layers = (
{
layerId = "BC722C43-F174-4026-9892-4620CE50CA16";
paths = (
{
closed = 1;
nodes = (
"1150 0 LINE",
"1549 1240 LINE",
"1729 1240 LINE",
"1729 1592 LINE",
"1035 1592 LINE",
"1035 1239 LINE",
"1165 1239 LINE",
"990 517 LINE",
"788 1240 LINE",
"904 1240 LINE",
"904 1592 LINE",
"39 1592 LINE",
"39 1240 LINE",
"205 1240 LINE",
"566 0 LINE"
);
}
);
width = 1778;
}
);
unicode = 0056;
},
{
glyphname = W;
layers = (
{
anchors = (
{
name = top;
position = "{1279, 1592}";
},
{
name = top_case;
position = "{1370, 1592}";
}
);
layerId = "BC722C43-F174-4026-9892-4620CE50CA16";
paths = (
{
closed = 1;
nodes = (
"1088 0 LINE",
"1290 706 LINE",
"1483 0 LINE",
"2026 0 LINE",
"2367 1240 LINE",
"2536 1240 LINE",
"2536 1593 LINE",
"1875 1593 LINE",
"1875 1240 LINE",
"2015 1240 LINE",
"1860 703 LINE",
"1607 1593 LINE",
"1198 1593 LINE",
"938 672 LINE",
"779 1240 LINE",
"930 1240 LINE",
"930 1593 LINE",
"39 1593 LINE",
"39 1240 LINE",
"202 1240 LINE",
"551 0 LINE"
);
}
);
width = 2585;
}
);
unicode = 0057;
},
{
glyphname = X;
layers = (
{
layerId = "BC722C43-F174-4026-9892-4620CE50CA16";
paths = (
{
closed = 1;
nodes = (
"899 0 LINE",
"899 359 LINE",
"770 359 OFFCURVE",
"695 359 OFFCURVE",
"676 358 CURVE",
"882 614 LINE",
"1125 359 LINE",
"999 359 LINE",
"999 0 LINE",
"1928 0 LINE",
"1928 359 LINE",
"1776 359 LINE",
"1347 809 LINE",
"1680 1240 LINE",
"1877 1240 LINE",
"1877 1593 LINE",
"1130 1593 LINE",
"1130 1240 LINE",
"1274 1240 LINE",
"1126 1044 LINE",
"964 1240 LINE",
"1046 1240 LINE",
"1046 1593 LINE",
"128 1593 LINE",
"128 1240 LINE",
"299 1240 LINE",
"670 842 LINE",
"236 358 LINE",
"77 358 LINE",
"77 0 LINE"
);
}
);
width = 2003;
}
);
unicode = 0058;
},
{
glyphname = Y;
layers = (
{
anchors = (
{
name = bottom;
position = "{852, 0}";
},
{
name = top;
position = "{857, 1592}";
},
{
name = top_case;
position = "{857, 1592}";
},
{
name = topleft;
position = "{20, 1592}";
}
);
layerId = "BC722C43-F174-4026-9892-4620CE50CA16";
paths = (
{
closed = 1;
nodes = (
"1286 0 LINE",
"1286 359 LINE",
"1129 359 LINE",
"1129 704 LINE",
"1438 1240 LINE",
"1617 1240 LINE",
"1617 1592 LINE",
"980 1592 LINE",
"980 1240 LINE",
"1127 1240 LINE",
"983 973 LINE",
"800 1240 LINE",
"891 1240 LINE",
"891 1592 LINE",
"39 1592 LINE",
"39 1240 LINE",
"151 1240 LINE",
"572 652 LINE",
"572 359 LINE",
"417 359 LINE",
"417 0 LINE"
);
}
);
width = 1666;
}
);
unicode = 0059;
},
{
glyphname = Z;
layers = (
{
anchors = (
{
name = top;
position = "{786, 1592}";
},
{
name = top_case;
position = "{840, 1592}";
}
);
layerId = "BC722C43-F174-4026-9892-4620CE50CA16";
paths = (
{
closed = 1;
nodes = (
"1504 0 LINE",
"1504 695 LINE",
"1222 695 LINE",
"1115 359 LINE",
"806 359 LINE",
"1483 1263 LINE",
"1483 1592 LINE",
"89 1592 LINE",
"89 928 LINE",
"377 928 LINE",
"457 1240 LINE",
"772 1240 LINE",
"94 350 LINE",
"94 0 LINE"
);
}
);
width = 1588;
}
);
unicode = 005A;
},
{
glyphname = a;
layers = (
{
anchors = (
{
name = bottom;
position = "{743, 0}";
},
{
name = ogonek;
position = "{1219, 10}";
},
{
name = top;
position = "{678, 1091}";
},
{
name = top_case;
position = "{678, 1091}";
}
);
layerId = "BC722C43-F174-4026-9892-4620CE50CA16";
paths = (
{
closed = 1;
nodes = (
"570 -18 OFFCURVE",
"708 47 OFFCURVE",
"767 164 CURVE",
"814 0 LINE",
"1326 0 LINE",
"1326 301 LINE",
"1230 301 LINE",
"1230 750 LINE SMOOTH",
"1230 1032 OFFCURVE",
"919 1091 OFFCURVE",
"622 1091 CURVE SMOOTH",
"498 1091 OFFCURVE",
"316 1074 OFFCURVE",
"142 1012 CURVE",
"142 721 LINE",
"169 709 LINE",
"257 762 OFFCURVE",
"404 801 OFFCURVE",
"499 801 CURVE SMOOTH",
"647 801 OFFCURVE",
"750 748 OFFCURVE",
"750 637 CURVE SMOOTH",
"750 592 LINE",
"674 617 OFFCURVE",
"598 630 OFFCURVE",
"497 630 CURVE SMOOTH",
"285 630 OFFCURVE",
"78 529 OFFCURVE",
"78 308 CURVE SMOOTH",
"78 104 OFFCURVE",
"249 -18 OFFCURVE",
"446 -18 CURVE SMOOTH"
);
},
{
closed = 1;
nodes = (
"568 237 OFFCURVE",
"526 288 OFFCURVE",
"526 340 CURVE SMOOTH",
"526 414 OFFCURVE",
"571 461 OFFCURVE",
"644 461 CURVE SMOOTH",
"680 461 OFFCURVE",
"725 445 OFFCURVE",
"750 440 CURVE",
"750 273 LINE",
"733 256 OFFCURVE",
"679 237 OFFCURVE",
"635 237 CURVE SMOOTH"
);
}
);
width = 1396;
}
);
unicode = 0061;
userData = {
com.typemytype.robofont.layerData = {
};
};
},
{
glyphname = ae;
layers = (
{
anchors = (
{
name = top;
position = "{961, 1072}";
}
);
background = {
anchors = (
{
name = top;
position = "{961, 1072}";
}
);
paths = (
{
closed = 1;
nodes = (
"598 -29 OFFCURVE",
"705 -20 OFFCURVE",
"788 -1 CURVE SMOOTH",
"871 18 OFFCURVE",
"947 53 OFFCURVE",
"1016 104 CURVE",
"1111 17 OFFCURVE",
"1222 -26 OFFCURVE",
"1348 -26 CURVE SMOOTH",
"1455 -26 OFFCURVE",
"1551 -15 OFFCURVE",
"1636 7 CURVE SMOOTH",
"1721 29 OFFCURVE",
"1807 66 OFFCURVE",
"1895 119 CURVE",
"1895 357 LINE",
"1588 357 LINE",
"1587 308 OFFCURVE",
"1575 272 OFFCURVE",
"1553 249 CURVE SMOOTH",
"1531 226 OFFCURVE",
"1496 214 OFFCURVE",
"1448 214 CURVE SMOOTH",
"1393 214 OFFCURVE",
"1350 236 OFFCURVE",
"1318 280 CURVE SMOOTH",
"1286 324 OFFCURVE",
"1270 377 OFFCURVE",
"1270 439 CURVE",
"1872 439 LINE SMOOTH",
"1885 439 OFFCURVE",
"1893 440 OFFCURVE",
"1896 442 CURVE SMOOTH",
"1899 444 OFFCURVE",
"1903 452 OFFCURVE",
"1909 466 CURVE",
"1912 496 OFFCURVE",
"1914 522 OFFCURVE",
"1914 545 CURVE SMOOTH",
"1914 645 OFFCURVE",
"1893 735 OFFCURVE",
"1851 815 CURVE SMOOTH",
"1809 895 OFFCURVE",
"1746 959 OFFCURVE",
"1661 1008 CURVE SMOOTH",
"1576 1057 OFFCURVE",
"1476 1081 OFFCURVE",
"1361 1081 CURVE SMOOTH",
"1319 1081 OFFCURVE",
"1278 1077 OFFCURVE",
"1239 1068 CURVE SMOOTH",
"1200 1059 OFFCURVE",
"1168 1049 OFFCURVE",
"1142 1037 CURVE SMOOTH",
"1116 1025 OFFCURVE",
"1093 1013 OFFCURVE",
"1073 1001 CURVE SMOOTH",
"1053 989 OFFCURVE",
"1039 979 OFFCURVE",
"1030 970 CURVE SMOOTH",
"1016 957 LINE",
"1013 960 OFFCURVE",
"1008 964 OFFCURVE",
"1001 969 CURVE SMOOTH",
"994 974 OFFCURVE",
"979 984 OFFCURVE",
"956 998 CURVE SMOOTH",
"933 1012 OFFCURVE",
"908 1024 OFFCURVE",
"882 1035 CURVE SMOOTH",
"856 1046 OFFCURVE",
"822 1056 OFFCURVE",
"779 1065 CURVE SMOOTH",
"736 1074 OFFCURVE",
"692 1078 OFFCURVE",
"647 1078 CURVE SMOOTH",
"576 1078 OFFCURVE",
"500 1072 OFFCURVE",
"419 1060 CURVE SMOOTH",
"338 1048 OFFCURVE",
"275 1036 OFFCURVE",
"230 1024 CURVE SMOOTH",
"163 1007 LINE",
"163 693 LINE",
"338 693 LINE",
"386 756 OFFCURVE",
"458 788 OFFCURVE",
"553 788 CURVE SMOOTH",
"694 788 OFFCURVE",
"764 733 OFFCURVE",
"764 622 CURVE SMOOTH",
"764 577 LINE",
"691 602 OFFCURVE",
"606 615 OFFCURVE",
"509 615 CURVE SMOOTH",
"454 615 OFFCURVE",
"401 608 OFFCURVE",
"350 594 CURVE SMOOTH",
"299 580 OFFCURVE",
"253 560 OFFCURVE",
"212 534 CURVE SMOOTH",
"171 508 OFFCURVE",
"138 474 OFFCURVE",
"113 432 CURVE SMOOTH",
"88 390 OFFCURVE",
"75 343 OFFCURVE",
"75 292 CURVE",
"78 299 LINE",
"78 232 OFFCURVE",
"96 174 OFFCURVE",
"133 124 CURVE SMOOTH",
"170 74 OFFCURVE",
"217 36 OFFCURVE",
"275 11 CURVE SMOOTH",
"333 -14 OFFCURVE",
"397 -27 OFFCURVE",
"467 -28 CURVE SMOOTH"
);
},
{
closed = 1;
nodes = (
"632 207 OFFCURVE",
"609 216 OFFCURVE",
"592 235 CURVE SMOOTH",
"575 254 OFFCURVE",
"566 278 OFFCURVE",
"566 308 CURVE",
"565 310 LINE",
"565 339 OFFCURVE",
"575 365 OFFCURVE",
"596 388 CURVE SMOOTH",
"617 411 OFFCURVE",
"642 422 OFFCURVE",
"671 422 CURVE SMOOTH",
"686 422 OFFCURVE",
"701 420 OFFCURVE",
"717 416 CURVE SMOOTH",
"733 412 OFFCURVE",
"746 408 OFFCURVE",
"755 405 CURVE SMOOTH",
"769 400 LINE",
"769 253 LINE",
"757 241 LINE SMOOTH",
"752 236 OFFCURVE",
"740 229 OFFCURVE",
"721 220 CURVE SMOOTH",
"702 211 OFFCURVE",
"682 207 OFFCURVE",
"661 207 CURVE SMOOTH"
);
},
{
closed = 1;
nodes = (
"1270 611 LINE",
"1270 640 LINE SMOOTH",
"1270 681 OFFCURVE",
"1279 717 OFFCURVE",
"1297 749 CURVE SMOOTH",
"1315 781 OFFCURVE",
"1342 797 OFFCURVE",
"1378 797 CURVE SMOOTH",
"1403 797 OFFCURVE",
"1423 791 OFFCURVE",
"1439 779 CURVE SMOOTH",
"1455 767 OFFCURVE",
"1466 750 OFFCURVE",
"1472 728 CURVE SMOOTH",
"1478 706 OFFCURVE",
"1482 686 OFFCURVE",
"1484 669 CURVE SMOOTH",
"1486 652 OFFCURVE",
"1486 632 OFFCURVE",
"1485 609 CURVE"
);
}
);
};
layerId = "BC722C43-F174-4026-9892-4620CE50CA16";
paths = (
{
closed = 1;
nodes = (
"684 788 OFFCURVE",
"764 733 OFFCURVE",
"764 622 CURVE SMOOTH",
"764 577 LINE",
"691 602 OFFCURVE",
"606 615 OFFCURVE",
"509 615 CURVE SMOOTH",
"264 615 OFFCURVE",
"75 484 OFFCURVE",
"78 299 CURVE SMOOTH",
"78 80 OFFCURVE",
"300 -28 OFFCURVE",
"517 -28 CURVE SMOOTH",
"755 -28 OFFCURVE",
"917 35 OFFCURVE",
"1054 206 CURVE",
"934 195 LINE",
"1032 71 OFFCURVE",
"1139 -28 OFFCURVE",
"1398 -28 CURVE SMOOTH",
"1633 -28 OFFCURVE",
"1761 23 OFFCURVE",
"1878 91 CURVE",
"1878 358 LINE",
"1863 365 LINE",
"1735 288 OFFCURVE",
"1608 257 OFFCURVE",
"1512 257 CURVE SMOOTH",
"1384 257 OFFCURVE",
"1270 323 OFFCURVE",
"1270 439 CURVE",
"1897 439 LINE",
"1908 465 OFFCURVE",
"1914 511 OFFCURVE",
"1914 545 CURVE",
"1914 888 OFFCURVE",
"1671 1081 OFFCURVE",
"1361 1081 CURVE SMOOTH",
"1235 1081 OFFCURVE",
"1099 1036 OFFCURVE",
"1016 957 CURVE",
"936 1029 OFFCURVE",
"789 1078 OFFCURVE",
"607 1078 CURVE SMOOTH",
"493 1078 OFFCURVE",
"327 1061 OFFCURVE",
"167 999 CURVE",
"167 708 LINE",
"194 696 LINE",
"282 749 OFFCURVE",
"429 788 OFFCURVE",
"524 788 CURVE SMOOTH"
);
},
{
closed = 1;
nodes = (
"602 207 OFFCURVE",
"565 250 OFFCURVE",
"565 310 CURVE SMOOTH",
"565 382 OFFCURVE",
"607 422 OFFCURVE",
"665 422 CURVE SMOOTH",
"704 422 OFFCURVE",
"742 412 OFFCURVE",
"769 400 CURVE",
"769 253 LINE",
"737 221 OFFCURVE",
"698 207 OFFCURVE",
"659 207 CURVE SMOOTH"
);
},
{
closed = 1;
nodes = (
"1270 611 LINE",
"1270 734 OFFCURVE",
"1306 797 OFFCURVE",
"1378 797 CURVE SMOOTH",
"1462 797 OFFCURVE",
"1490 724 OFFCURVE",
"1485 609 CURVE"
);
}
);
width = 1990;
},
{
anchors = (
{
name = top;
position = "{961, 1072}";
}
);
associatedMasterId = "BC722C43-F174-4026-9892-4620CE50CA16";
layerId = "6AC030CB-5809-43C0-BBCC-0158E4C0C119";
name = "Regular Jul 5 16, 10:35";
paths = (
{
closed = 1;
nodes = (
"598 -29 OFFCURVE",
"705 -20 OFFCURVE",
"788 -1 CURVE SMOOTH",
"871 18 OFFCURVE",
"947 53 OFFCURVE",
"1016 104 CURVE",
"1111 17 OFFCURVE",
"1222 -26 OFFCURVE",
"1348 -26 CURVE SMOOTH",
"1455 -26 OFFCURVE",
"1551 -15 OFFCURVE",
"1636 7 CURVE SMOOTH",
"1721 29 OFFCURVE",
"1807 66 OFFCURVE",
"1895 119 CURVE",
"1895 357 LINE",
"1588 357 LINE",
"1587 308 OFFCURVE",
"1575 272 OFFCURVE",
"1553 249 CURVE SMOOTH",
"1531 226 OFFCURVE",
"1496 214 OFFCURVE",
"1448 214 CURVE SMOOTH",
"1393 214 OFFCURVE",
"1350 236 OFFCURVE",
"1318 280 CURVE SMOOTH",
"1286 324 OFFCURVE",
"1270 377 OFFCURVE",
"1270 439 CURVE",
"1872 439 LINE SMOOTH",
"1885 439 OFFCURVE",
"1893 440 OFFCURVE",
"1896 442 CURVE SMOOTH",
"1899 444 OFFCURVE",
"1903 452 OFFCURVE",
"1909 466 CURVE",
"1912 496 OFFCURVE",
"1914 522 OFFCURVE",
"1914 545 CURVE SMOOTH",
"1914 645 OFFCURVE",
"1893 735 OFFCURVE",
"1851 815 CURVE SMOOTH",
"1809 895 OFFCURVE",
"1746 959 OFFCURVE",
"1661 1008 CURVE SMOOTH",
"1576 1057 OFFCURVE",
"1476 1081 OFFCURVE",
"1361 1081 CURVE SMOOTH",
"1319 1081 OFFCURVE",
"1278 1077 OFFCURVE",
"1239 1068 CURVE SMOOTH",
"1200 1059 OFFCURVE",
"1168 1049 OFFCURVE",
"1142 1037 CURVE SMOOTH",
"1116 1025 OFFCURVE",
"1093 1013 OFFCURVE",
"1073 1001 CURVE SMOOTH",
"1053 989 OFFCURVE",
"1039 979 OFFCURVE",
"1030 970 CURVE SMOOTH",
"1016 957 LINE",
"1013 960 OFFCURVE",
"1008 964 OFFCURVE",
"1001 969 CURVE SMOOTH",
"994 974 OFFCURVE",
"979 984 OFFCURVE",
"956 998 CURVE SMOOTH",
"933 1012 OFFCURVE",
"908 1024 OFFCURVE",
"882 1035 CURVE SMOOTH",
"856 1046 OFFCURVE",
"822 1056 OFFCURVE",
"779 1065 CURVE SMOOTH",
"736 1074 OFFCURVE",
"692 1078 OFFCURVE",
"647 1078 CURVE SMOOTH",
"576 1078 OFFCURVE",
"500 1072 OFFCURVE",
"419 1060 CURVE SMOOTH",
"338 1048 OFFCURVE",
"275 1036 OFFCURVE",
"230 1024 CURVE SMOOTH",
"163 1007 LINE",
"163 693 LINE",
"338 693 LINE",
"386 756 OFFCURVE",
"458 788 OFFCURVE",
"553 788 CURVE SMOOTH",
"694 788 OFFCURVE",
"764 733 OFFCURVE",
"764 622 CURVE SMOOTH",
"764 577 LINE",
"691 602 OFFCURVE",
"606 615 OFFCURVE",
"509 615 CURVE SMOOTH",
"454 615 OFFCURVE",
"401 608 OFFCURVE",
"350 594 CURVE SMOOTH",
"299 580 OFFCURVE",
"253 560 OFFCURVE",
"212 534 CURVE SMOOTH",
"171 508 OFFCURVE",
"138 474 OFFCURVE",
"113 432 CURVE SMOOTH",
"88 390 OFFCURVE",
"75 343 OFFCURVE",
"75 292 CURVE",
"78 299 LINE",
"78 232 OFFCURVE",
"96 174 OFFCURVE",
"133 124 CURVE SMOOTH",
"170 74 OFFCURVE",
"217 36 OFFCURVE",
"275 11 CURVE SMOOTH",
"333 -14 OFFCURVE",
"397 -27 OFFCURVE",
"467 -28 CURVE SMOOTH"
);
},
{
closed = 1;
nodes = (
"632 207 OFFCURVE",
"609 216 OFFCURVE",
"592 235 CURVE SMOOTH",
"575 254 OFFCURVE",
"566 278 OFFCURVE",
"566 308 CURVE",
"565 310 LINE",
"565 339 OFFCURVE",
"575 365 OFFCURVE",
"596 388 CURVE SMOOTH",
"617 411 OFFCURVE",
"642 422 OFFCURVE",
"671 422 CURVE SMOOTH",
"686 422 OFFCURVE",
"701 420 OFFCURVE",
"717 416 CURVE SMOOTH",
"733 412 OFFCURVE",
"746 408 OFFCURVE",
"755 405 CURVE SMOOTH",
"769 400 LINE",
"769 253 LINE",
"757 241 LINE SMOOTH",
"752 236 OFFCURVE",
"740 229 OFFCURVE",
"721 220 CURVE SMOOTH",
"702 211 OFFCURVE",
"682 207 OFFCURVE",
"661 207 CURVE SMOOTH"
);
},
{
closed = 1;
nodes = (
"1270 611 LINE",
"1270 640 LINE SMOOTH",
"1270 681 OFFCURVE",
"1279 717 OFFCURVE",
"1297 749 CURVE SMOOTH",
"1315 781 OFFCURVE",
"1342 797 OFFCURVE",
"1378 797 CURVE SMOOTH",
"1403 797 OFFCURVE",
"1423 791 OFFCURVE",
"1439 779 CURVE SMOOTH",
"1455 767 OFFCURVE",
"1466 750 OFFCURVE",
"1472 728 CURVE SMOOTH",
"1478 706 OFFCURVE",
"1482 686 OFFCURVE",
"1484 669 CURVE SMOOTH",
"1486 652 OFFCURVE",
"1486 632 OFFCURVE",
"1485 609 CURVE"
);
}
);
width = 1990;
visible = 1;
}
);
unicode = 00E6;
},
{
glyphname = b;
layers = (
{
layerId = "BC722C43-F174-4026-9892-4620CE50CA16";
paths = (
{
closed = 1;
nodes = (
"1274 -18 OFFCURVE",
"1428 228 OFFCURVE",
"1428 538 CURVE SMOOTH",
"1428 837 OFFCURVE",
"1280 1092 OFFCURVE",
"982 1092 CURVE SMOOTH",
"883 1092 OFFCURVE",
"765 1050 OFFCURVE",
"660 965 CURVE",
"660 1560 LINE",
"52 1495 LINE",
"52 1222 LINE",
"180 1222 LINE",
"180 0 LINE",
"628 0 LINE",
"668 115 LINE",
"724 51 OFFCURVE",
"828 -18 OFFCURVE",
"961 -18 CURVE SMOOTH"
);
},
{
closed = 1;
nodes = (
"756 274 OFFCURVE",
"687 301 OFFCURVE",
"660 324 CURVE",
"660 733 LINE",
"682 763 OFFCURVE",
"748 799 OFFCURVE",
"816 799 CURVE SMOOTH",
"938 799 OFFCURVE",
"980 646 OFFCURVE",
"980 509 CURVE SMOOTH",
"980 389 OFFCURVE",
"916 274 OFFCURVE",
"816 274 CURVE SMOOTH"
);
}
);
width = 1500;
}
);
unicode = 0062;
userData = {
com.typemytype.robofont.layerData = {
};
};
},
{
glyphname = c;
layers = (
{
anchors = (
{
name = bottom;
position = "{657, 0}";
},
{
name = cedilla;
position = "{670, 0}";
},
{
name = top;
position = "{647, 1091}";
}
);
layerId = "BC722C43-F174-4026-9892-4620CE50CA16";
paths = (
{
closed = 1;
nodes = (
"954 -18 OFFCURVE",
"1120 98 OFFCURVE",
"1120 98 CURVE",
"1120 377 LINE",
"1105 387 LINE",
"1011 308 OFFCURVE",
"882 280 OFFCURVE",
"800 280 CURVE SMOOTH",
"700 280 OFFCURVE",
"544 319 OFFCURVE",
"544 545 CURVE SMOOTH",
"544 751 OFFCURVE",
"618 799 OFFCURVE",
"721 799 CURVE SMOOTH",
"796 799 OFFCURVE",
"853 737 OFFCURVE",
"864 628 CURVE",
"1152 628 LINE",
"1152 1072 LINE",
"935 1072 LINE",
"894 965 LINE",
"853 1061 OFFCURVE",
"672 1091 OFFCURVE",
"581 1091 CURVE SMOOTH",
"265 1091 OFFCURVE",
"64 860 OFFCURVE",
"64 546 CURVE SMOOTH",
"64 200 OFFCURVE",
"306 -18 OFFCURVE",
"672 -18 CURVE SMOOTH"
);
}
);
width = 1250;
}
);
unicode = 0063;
userData = {
com.typemytype.robofont.layerData = {
};
};
},
{
glyphname = d;
layers = (
{
anchors = (
{
name = topright;
position = "{1410, 1560}";
}
);
layerId = "BC722C43-F174-4026-9892-4620CE50CA16";
paths = (
{
closed = 1;
nodes = (
"669 -17 OFFCURVE",
"771 47 OFFCURVE",
"832 128 CURVE",
"832 0 LINE",
"1448 0 LINE",
"1448 301 LINE",
"1320 301 LINE",
"1320 1560 LINE",
"680 1495 LINE",
"680 1222 LINE",
"840 1222 LINE",
"840 960 LINE",
"761 1040 OFFCURVE",
"673 1091 OFFCURVE",
"529 1091 CURVE SMOOTH",
"242 1091 OFFCURVE",
"72 835 OFFCURVE",
"72 550 CURVE SMOOTH",
"72 246 OFFCURVE",
"233 -18 OFFCURVE",
"537 -18 CURVE SMOOTH"
);
},
{
closed = 1;
nodes = (
"575 274 OFFCURVE",
"520 396 OFFCURVE",
"520 551 CURVE SMOOTH",
"520 718 OFFCURVE",
"597 799 OFFCURVE",
"697 799 CURVE SMOOTH",
"757 799 OFFCURVE",
"813 760 OFFCURVE",
"840 729 CURVE",
"840 350 LINE",
"818 315 OFFCURVE",
"765 274 OFFCURVE",
"697 274 CURVE SMOOTH"
);
}
);
width = 1514;
}
);
unicode = 0064;
},
{
glyphname = eth;
layers = (
{
layerId = "BC722C43-F174-4026-9892-4620CE50CA16";
paths = (
{
closed = 1;
nodes = (
"767 -19 OFFCURVE",
"847 -7 OFFCURVE",
"919 18 CURVE SMOOTH",
"991 43 OFFCURVE",
"1051 77 OFFCURVE",
"1100 120 CURVE SMOOTH",
"1149 163 OFFCURVE",
"1190 215 OFFCURVE",
"1223 275 CURVE SMOOTH",
"1256 335 OFFCURVE",
"1280 399 OFFCURVE",
"1295 468 CURVE SMOOTH",
"1310 537 OFFCURVE",
"1317 610 OFFCURVE",
"1317 688 CURVE SMOOTH",
"1317 715 OFFCURVE",
"1317 735 OFFCURVE",
"1316 748 CURVE SMOOTH",
"1303 1009 OFFCURVE",
"1246 1214 OFFCURVE",
"1145 1363 CURVE",
"1302 1426 LINE",
"1237 1585 LINE",
"1023 1499 LINE",
"900 1602 OFFCURVE",
"740 1654 OFFCURVE",
"543 1654 CURVE SMOOTH",
"450 1654 OFFCURVE",
"352 1643 OFFCURVE",
"249 1621 CURVE",
"249 1310 LINE",
"280 1317 OFFCURVE",
"322 1321 OFFCURVE",
"374 1321 CURVE SMOOTH",
"430 1321 OFFCURVE",
"479 1313 OFFCURVE",
"520 1297 CURVE",
"340 1225 LINE",
"403 1068 LINE",
"654 1169 LINE",
"670 1137 OFFCURVE",
"686 1090 OFFCURVE",
"702 1029 CURVE",
"669 1029 LINE SMOOTH",
"590 1029 OFFCURVE",
"517 1020 OFFCURVE",
"450 1002 CURVE SMOOTH",
"383 984 OFFCURVE",
"326 960 OFFCURVE",
"280 929 CURVE SMOOTH",
"234 898 OFFCURVE",
"195 862 OFFCURVE",
"163 820 CURVE SMOOTH",
"131 778 OFFCURVE",
"107 733 OFFCURVE",
"92 686 CURVE SMOOTH",
"77 639 OFFCURVE",
"69 590 OFFCURVE",
"69 539 CURVE SMOOTH",
"69 470 OFFCURVE",
"82 402 OFFCURVE",
"109 336 CURVE SMOOTH",
"136 270 OFFCURVE",
"174 210 OFFCURVE",
"224 157 CURVE SMOOTH",
"274 104 OFFCURVE",
"338 61 OFFCURVE",
"417 29 CURVE SMOOTH",
"496 -3 OFFCURVE",
"583 -19 OFFCURVE",
"678 -19 CURVE SMOOTH"
);
},
{
closed = 1;
nodes = (
"627 336 OFFCURVE",
"590 413 OFFCURVE",
"590 566 CURVE SMOOTH",
"590 705 OFFCURVE",
"626 775 OFFCURVE",
"699 775 CURVE SMOOTH",
"764 775 OFFCURVE",
"797 703 OFFCURVE",
"797 558 CURVE SMOOTH",
"797 540 OFFCURVE",
"796 521 OFFCURVE",
"794 500 CURVE SMOOTH",
"792 479 OFFCURVE",
"788 455 OFFCURVE",
"782 428 CURVE SMOOTH",
"776 401 OFFCURVE",
"766 379 OFFCURVE",
"752 362 CURVE SMOOTH",
"738 345 OFFCURVE",
"721 336 OFFCURVE",
"701 336 CURVE SMOOTH"
);
}
);
width = 1401;
}
);
unicode = 00F0;
},
{
glyphname = dcroat;
layers = (
{
anchors = (
{
name = center;
position = "{714, 536}";
}
);
layerId = "BC722C43-F174-4026-9892-4620CE50CA16";
paths = (
{
closed = 1;
nodes = (
"480 1242 LINE",
"1448 1242 LINE",
"1448 1425 LINE",
"480 1425 LINE"
);
},
{
closed = 1;
nodes = (
"669 -17 OFFCURVE",
"771 47 OFFCURVE",
"832 128 CURVE",
"832 0 LINE",
"1448 0 LINE",
"1448 301 LINE",
"1320 301 LINE",
"1320 1560 LINE",
"840 1560 LINE",
"840 960 LINE",
"761 1040 OFFCURVE",
"673 1091 OFFCURVE",
"529 1091 CURVE SMOOTH",
"242 1091 OFFCURVE",
"72 835 OFFCURVE",
"72 550 CURVE SMOOTH",
"72 246 OFFCURVE",
"233 -18 OFFCURVE",
"537 -18 CURVE SMOOTH"
);
},
{
closed = 1;
nodes = (
"575 274 OFFCURVE",
"520 396 OFFCURVE",
"520 551 CURVE SMOOTH",
"520 718 OFFCURVE",
"597 799 OFFCURVE",
"697 799 CURVE SMOOTH",
"757 799 OFFCURVE",
"813 760 OFFCURVE",
"840 729 CURVE",
"840 350 LINE",
"818 315 OFFCURVE",
"765 274 OFFCURVE",
"697 274 CURVE SMOOTH"
);
}
);
width = 1514;
}
);
unicode = 0111;
},
{
glyphname = e;
layers = (
{
anchors = (
{
name = bottom;
position = "{605, 0}";
},
{
name = ogonek;
position = "{984, 61}";
},
{
name = top;
position = "{645, 1072}";
},
{
name = top_case;
position = "{645, 1072}";
}
);
layerId = "BC722C43-F174-4026-9892-4620CE50CA16";
paths = (
{
closed = 1;
nodes = (
"907 -18 OFFCURVE",
"1035 33 OFFCURVE",
"1152 101 CURVE",
"1152 368 LINE",
"1137 375 LINE",
"1009 298 OFFCURVE",
"882 267 OFFCURVE",
"786 267 CURVE SMOOTH",
"658 267 OFFCURVE",
"544 342 OFFCURVE",
"544 473 CURVE",
"1168 473 LINE",
"1175 498 OFFCURVE",
"1184 543 OFFCURVE",
"1184 576 CURVE SMOOTH",
"1184 891 OFFCURVE",
"966 1091 OFFCURVE",
"640 1091 CURVE SMOOTH",
"290 1091 OFFCURVE",
"64 881 OFFCURVE",
"64 542 CURVE SMOOTH",
"64 201 OFFCURVE",
"297 -18 OFFCURVE",
"672 -18 CURVE SMOOTH"
);
},
{
closed = 1;
nodes = (
"544 678 LINE SMOOTH",
"544 754 OFFCURVE",
"597 843 OFFCURVE",
"672 843 CURVE SMOOTH",
"761 843 OFFCURVE",
"800 758 OFFCURVE",
"800 670 CURVE SMOOTH",
"800 649 LINE",
"544 649 LINE"
);
}
);
width = 1276;
}
);
unicode = 0065;
userData = {
com.typemytype.robofont.layerData = {
};
};
},
{
glyphname = schwa;
layers = (
{
anchors = (
{
name = bottom;
position = "{608, 0}";
},
{
name = top;
position = "{617, 1091}";
}
);
layerId = "BC722C43-F174-4026-9892-4620CE50CA16";
paths = (
{
closed = 1;
nodes = (
"341 1091 OFFCURVE",
"213 1040 OFFCURVE",
"96 972 CURVE",
"96 705 LINE",
"111 698 LINE",
"239 775 OFFCURVE",
"366 806 OFFCURVE",
"462 806 CURVE SMOOTH",
"590 806 OFFCURVE",
"704 731 OFFCURVE",
"704 600 CURVE",
"80 600 LINE",
"73 575 OFFCURVE",
"64 530 OFFCURVE",
"64 497 CURVE SMOOTH",
"64 182 OFFCURVE",
"282 -18 OFFCURVE",
"608 -18 CURVE SMOOTH",
"958 -18 OFFCURVE",
"1184 192 OFFCURVE",
"1184 531 CURVE SMOOTH",
"1184 872 OFFCURVE",
"951 1091 OFFCURVE",
"576 1091 CURVE SMOOTH"
);
},
{
closed = 1;
nodes = (
"704 395 LINE SMOOTH",
"704 319 OFFCURVE",
"651 230 OFFCURVE",
"576 230 CURVE SMOOTH",
"487 230 OFFCURVE",
"448 315 OFFCURVE",
"448 403 CURVE SMOOTH",
"448 424 LINE",
"704 424 LINE"
);
}
);
width = 1276;
}
);
leftMetricsKey = "=e";
rightMetricsKey = "=e";
unicode = 0259;
},
{
glyphname = f;
layers = (
{
layerId = "BC722C43-F174-4026-9892-4620CE50CA16";
paths = (
{
closed = 1;
nodes = (
"913 0 LINE",
"913 301 LINE",
"721 301 LINE",
"721 779 LINE",
"913 779 LINE",
"913 1072 LINE",
"721 1072 LINE",
"721 1107 LINE SMOOTH",
"721 1180 OFFCURVE",
"739 1242 OFFCURVE",
"809 1242 CURVE SMOOTH",
"843 1242 OFFCURVE",
"862 1238 OFFCURVE",
"913 1229 CURVE",
"913 1523 LINE",
"843 1546 OFFCURVE",
"709 1570 OFFCURVE",
"598 1570 CURVE SMOOTH",
"360 1570 OFFCURVE",
"241 1436 OFFCURVE",
"241 1167 CURVE SMOOTH",
"241 1072 LINE",
"81 1072 LINE",
"81 779 LINE",
"241 779 LINE",
"241 301 LINE",
"81 301 LINE",
"81 0 LINE"
);
}
);
width = 1003;
}
);
unicode = 0066;
},
{
glyphname = g;
layers = (
{
anchors = (
{
name = top;
position = "{804, 1072}";
}
);
layerId = "BC722C43-F174-4026-9892-4620CE50CA16";
paths = (
{
closed = 1;
nodes = (
"1042 -390 OFFCURVE",
"1323 -226 OFFCURVE",
"1323 135 CURVE SMOOTH",
"1323 761 LINE",
"1419 761 LINE",
"1419 1072 LINE",
"909 1072 LINE",
"838 922 LINE",
"781 1003 OFFCURVE",
"681 1091 OFFCURVE",
"523 1091 CURVE SMOOTH",
"227 1091 OFFCURVE",
"75 839 OFFCURVE",
"75 541 CURVE SMOOTH",
"75 252 OFFCURVE",
"222 0 OFFCURVE",
"523 0 CURVE SMOOTH",
"669 0 OFFCURVE",
"776 61 OFFCURVE",
"838 117 CURVE",
"837 -68 OFFCURVE",
"730 -122 OFFCURVE",
"596 -122 CURVE SMOOTH",
"467 -122 OFFCURVE",
"312 -71 OFFCURVE",
"205 -39 CURVE",
"205 -328 LINE",
"363 -369 OFFCURVE",
"516 -390 OFFCURVE",
"655 -390 CURVE SMOOTH"
);
},
{
closed = 1;
nodes = (
"585 274 OFFCURVE",
"523 382 OFFCURVE",
"523 535 CURVE SMOOTH",
"523 699 OFFCURVE",
"594 799 OFFCURVE",
"703 799 CURVE SMOOTH",
"773 799 OFFCURVE",
"820 767 OFFCURVE",
"843 725 CURVE",
"843 360 LINE",
"833 325 OFFCURVE",
"778 274 OFFCURVE",
"711 274 CURVE SMOOTH"
);
}
);
width = 1490;
}
);
unicode = 0067;
},
{
glyphname = h;
layers = (
{
anchors = (
{
name = center;
position = "{751, 536}";
},
{
name = top;
position = "{751, 1072}";
},
{
name = top_case;
position = "{464, 1514}";
}
);
layerId = "BC722C43-F174-4026-9892-4620CE50CA16";
paths = (
{
closed = 1;
nodes = (
"800 0 LINE",
"800 301 LINE",
"704 301 LINE",
"704 661 LINE SMOOTH",
"704 740 OFFCURVE",
"746 790 OFFCURVE",
"813 790 CURVE SMOOTH",
"868 790 OFFCURVE",
"928 737 OFFCURVE",
"928 654 CURVE SMOOTH",
"928 0 LINE",
"1536 0 LINE",
"1536 301 LINE",
"1408 301 LINE",
"1408 702 LINE SMOOTH",
"1408 944 OFFCURVE",
"1293 1091 OFFCURVE",
"1057 1091 CURVE SMOOTH",
"891 1091 OFFCURVE",
"753 1004 OFFCURVE",
"704 916 CURVE",
"704 1560 LINE",
"96 1495 LINE",
"96 1222 LINE",
"224 1222 LINE",
"224 301 LINE",
"96 301 LINE",
"96 0 LINE"
);
}
);
width = 1552;
}
);
unicode = 0068;
userData = {
com.typemytype.robofont.layerData = {
};
};
},
{
glyphname = hbar;
layers = (
{
background = {
paths = (
{
closed = 1;
nodes = (
"741 0 LINE",
"741 305 LINE",
"661 305 LINE",
"661 626 LINE SMOOTH",
"661 705 OFFCURVE",
"695 744 OFFCURVE",
"762 744 CURVE SMOOTH",
"817 744 OFFCURVE",
"845 702 OFFCURVE",
"846 619 CURVE SMOOTH",
"846 0 LINE",
"1422 0 LINE",
"1422 305 LINE",
"1336 305 LINE",
"1336 702 LINE SMOOTH",
"1336 828 OFFCURVE",
"1305 924 OFFCURVE",
"1242 990 CURVE SMOOTH",
"1179 1056 OFFCURVE",
"1091 1089 OFFCURVE",
"978 1089 CURVE SMOOTH",
"955 1089 OFFCURVE",
"932 1087 OFFCURVE",
"910 1083 CURVE SMOOTH",
"888 1079 OFFCURVE",
"870 1075 OFFCURVE",
"855 1071 CURVE SMOOTH",
"840 1067 OFFCURVE",
"823 1059 OFFCURVE",
"805 1048 CURVE SMOOTH",
"787 1037 OFFCURVE",
"773 1028 OFFCURVE",
"764 1022 CURVE SMOOTH",
"755 1016 OFFCURVE",
"742 1004 OFFCURVE",
"725 987 CURVE SMOOTH",
"692 954 LINE SMOOTH",
"687 949 OFFCURVE",
"675 936 OFFCURVE",
"657 916 CURVE",
"657 1133 LINE",
"832 1133 LINE",
"832 1272 LINE",
"657 1272 LINE",
"657 1640 LINE",
"168 1636 LINE",
"168 1272 LINE",
"84 1272 LINE",
"84 1133 LINE",
"168 1133 LINE",
"168 305 LINE",
"89 305 LINE",
"88 0 LINE"
);
}
);
};
layerId = "BC722C43-F174-4026-9892-4620CE50CA16";
paths = (
{
closed = 1;
nodes = (
"741 0 LINE",
"741 305 LINE",
"661 305 LINE",
"661 626 LINE SMOOTH",
"661 705 OFFCURVE",
"695 744 OFFCURVE",
"762 744 CURVE SMOOTH",
"817 744 OFFCURVE",
"845 702 OFFCURVE",
"846 619 CURVE SMOOTH",
"846 0 LINE",
"1422 0 LINE",
"1422 305 LINE",
"1336 305 LINE",
"1336 702 LINE SMOOTH",
"1336 947 OFFCURVE",
"1211 1089 OFFCURVE",
"978 1089 CURVE SMOOTH",
"839 1089 OFFCURVE",
"769 1041 OFFCURVE",
"657 916 CURVE",
"657 1242 LINE",
"1012 1242 LINE",
"1012 1425 LINE",
"657 1425 LINE",
"657 1560 LINE",
"168 1560 LINE",
"168 1425 LINE",
"59 1425 LINE",
"59 1242 LINE",
"168 1242 LINE",
"168 305 LINE",
"89 305 LINE",
"88 0 LINE"
);
}
);
width = 1490;
},
{
associatedMasterId = "BC722C43-F174-4026-9892-4620CE50CA16";
layerId = "27F78916-5AC8-4DB5-8919-4DF85834EE8C";
name = "Regular Jul 5 16, 10:51";
paths = (
{
closed = 1;
nodes = (
"741 0 LINE",
"741 305 LINE",
"661 305 LINE",
"661 626 LINE SMOOTH",
"661 705 OFFCURVE",
"695 744 OFFCURVE",
"762 744 CURVE SMOOTH",
"817 744 OFFCURVE",
"845 702 OFFCURVE",
"846 619 CURVE SMOOTH",
"846 0 LINE",
"1422 0 LINE",
"1422 305 LINE",
"1336 305 LINE",
"1336 702 LINE SMOOTH",
"1336 828 OFFCURVE",
"1305 924 OFFCURVE",
"1242 990 CURVE SMOOTH",
"1179 1056 OFFCURVE",
"1091 1089 OFFCURVE",
"978 1089 CURVE SMOOTH",
"955 1089 OFFCURVE",
"932 1087 OFFCURVE",
"910 1083 CURVE SMOOTH",
"888 1079 OFFCURVE",
"870 1075 OFFCURVE",
"855 1071 CURVE SMOOTH",
"840 1067 OFFCURVE",
"823 1059 OFFCURVE",
"805 1048 CURVE SMOOTH",
"787 1037 OFFCURVE",
"773 1028 OFFCURVE",
"764 1022 CURVE SMOOTH",
"755 1016 OFFCURVE",
"742 1004 OFFCURVE",
"725 987 CURVE SMOOTH",
"692 954 LINE SMOOTH",
"687 949 OFFCURVE",
"675 936 OFFCURVE",
"657 916 CURVE",
"657 1133 LINE",
"832 1133 LINE",
"832 1272 LINE",
"657 1272 LINE",
"657 1640 LINE",
"168 1636 LINE",
"168 1272 LINE",
"84 1272 LINE",
"84 1133 LINE",
"168 1133 LINE",
"168 305 LINE",
"89 305 LINE",
"88 0 LINE"
);
}
);
width = 1490;
visible = 1;
}
);
unicode = 0127;
},
{
glyphname = i;
layers = (
{
anchors = (
{
name = bottom;
position = "{455, 0}";
},
{
name = ogonek;
position = "{685, 0}";
}
);
layerId = "BC722C43-F174-4026-9892-4620CE50CA16";
paths = (
{
closed = 1;
nodes = (
"823 0 LINE",
"823 301 LINE",
"695 301 LINE",
"695 1072 LINE",
"87 1008 LINE",
"87 761 LINE",
"215 761 LINE",
"215 301 LINE",
"87 301 LINE",
"87 0 LINE"
);
},
{
closed = 1;
nodes = (
"613 1175 OFFCURVE",
"743 1249 OFFCURVE",
"743 1405 CURVE SMOOTH",
"743 1562 OFFCURVE",
"617 1630 OFFCURVE",
"456 1630 CURVE SMOOTH",
"299 1630 OFFCURVE",
"167 1560 OFFCURVE",
"167 1405 CURVE SMOOTH",
"167 1250 OFFCURVE",
"300 1175 OFFCURVE",
"455 1175 CURVE SMOOTH"
);
}
);
width = 889;
}
);
unicode = 0069;
userData = {
com.typemytype.robofont.layerData = {
};
};
},
{
glyphname = idotless;
layers = (
{
anchors = (
{
name = ogonek;
position = "{671, 10}";
},
{
name = top;
position = "{413, 1072}";
}
);
layerId = "BC722C43-F174-4026-9892-4620CE50CA16";
paths = (
{
closed = 1;
nodes = (
"737 0 LINE",
"737 299 LINE",
"653 299 LINE",
"653 1072 LINE",
"83 1008 LINE",
"83 747 LINE",
"172 747 LINE",
"172 299 LINE",
"90 299 LINE",
"90 0 LINE"
);
}
);
width = 810;
}
);
unicode = 0131;
},
{
glyphname = ij;
layers = (
{
layerId = "BC722C43-F174-4026-9892-4620CE50CA16";
paths = (
{
closed = 1;
nodes = (
"1305 -395 OFFCURVE",
"1447 -227 OFFCURVE",
"1447 129 CURVE SMOOTH",
"1447 1072 LINE",
"655 1072 LINE",
"85 1008 LINE",
"85 764 LINE",
"174 764 LINE",
"174 308 LINE",
"92 308 LINE",
"92 3 LINE",
"739 3 LINE",
"739 308 LINE",
"655 308 LINE",
"655 763 LINE",
"950 763 LINE",
"950 -6 LINE SMOOTH",
"950 -51 OFFCURVE",
"901 -70 OFFCURVE",
"858 -70 CURVE SMOOTH",
"852 -70 OFFCURVE",
"847 -70 OFFCURVE",
"842 -69 CURVE",
"844 -395 LINE"
);
},
{
closed = 1;
nodes = (
"534 1138 OFFCURVE",
"660 1232 OFFCURVE",
"660 1388 CURVE SMOOTH",
"660 1538 OFFCURVE",
"541 1633 OFFCURVE",
"373 1633 CURVE SMOOTH",
"212 1633 OFFCURVE",
"95 1539 OFFCURVE",
"95 1388 CURVE SMOOTH",
"95 1233 OFFCURVE",
"219 1138 OFFCURVE",
"374 1138 CURVE SMOOTH"
);
},
{
closed = 1;
nodes = (
"1323 1137 OFFCURVE",
"1449 1231 OFFCURVE",
"1449 1387 CURVE SMOOTH",
"1449 1537 OFFCURVE",
"1330 1632 OFFCURVE",
"1162 1632 CURVE SMOOTH",
"1001 1632 OFFCURVE",
"884 1538 OFFCURVE",
"884 1387 CURVE SMOOTH",
"884 1232 OFFCURVE",
"1008 1137 OFFCURVE",
"1163 1137 CURVE SMOOTH"
);
}
);
width = 1539;
}
);
unicode = 0133;
},
{
glyphname = j;
layers = (
{
layerId = "BC722C43-F174-4026-9892-4620CE50CA16";
paths = (
{
closed = 1;
nodes = (
"486 -398 OFFCURVE",
"709 -317 OFFCURVE",
"709 81 CURVE SMOOTH",
"709 1072 LINE",
"69 1008 LINE",
"69 761 LINE",
"229 761 LINE",
"229 0 LINE SMOOTH",
"229 -56 OFFCURVE",
"197 -92 OFFCURVE",
"101 -92 CURVE SMOOTH",
"69 -92 LINE",
"69 -398 LINE"
);
},
{
closed = 1;
nodes = (
"579 1175 OFFCURVE",
"709 1249 OFFCURVE",
"709 1405 CURVE SMOOTH",
"709 1562 OFFCURVE",
"583 1630 OFFCURVE",
"422 1630 CURVE SMOOTH",
"265 1630 OFFCURVE",
"133 1560 OFFCURVE",
"133 1405 CURVE SMOOTH",
"133 1250 OFFCURVE",
"266 1175 OFFCURVE",
"421 1175 CURVE SMOOTH"
);
}
);
width = 800;
}
);
unicode = 006A;
userData = {
com.typemytype.robofont.layerData = {
};
};
},
{
glyphname = jdotless;
layers = (
{
anchors = (
{
name = top;
position = "{443, 1072}";
}
);
layerId = "BC722C43-F174-4026-9892-4620CE50CA16";
paths = (
{
closed = 1;
nodes = (
"479 -398 OFFCURVE",
"686 -269 OFFCURVE",
"686 129 CURVE SMOOTH",
"686 1072 LINE",
"69 1008 LINE",
"69 761 LINE",
"199 761 LINE",
"199 -9 LINE SMOOTH",
"197 -65 OFFCURVE",
"127 -72 OFFCURVE",
"74 -72 CURVE SMOOTH",
"62 -72 LINE",
"62 -398 LINE"
);
}
);
width = 773;
}
);
unicode = 0237;
},
{
glyphname = k;
layers = (
{
anchors = (
{
name = bottom;
position = "{724, 0}";
}
);
components = (
{
name = lc_tall_stem_2;
}
);
layerId = "BC722C43-F174-4026-9892-4620CE50CA16";
paths = (
{
closed = 1;
nodes = (
"1474 0 LINE",
"1474 301 LINE",
"1316 301 LINE",
"1109 618 LINE",
"1110 618 OFFCURVE",
"1282 762 OFFCURVE",
"1282 761 CURVE",
"1442 761 LINE",
"1442 1072 LINE",
"802 1072 LINE",
"802 761 LINE",
"914 761 LINE",
"705 587 LINE",
"705 438 LINE",
"998 0 LINE"
);
}
);
width = 1509;
}
);
unicode = 006B;
userData = {
com.typemytype.robofont.layerData = {
};
};
},
{
glyphname = kgreenlandic;
layers = (
{
layerId = "BC722C43-F174-4026-9892-4620CE50CA16";
paths = (
{
closed = 1;
nodes = (
"676 0 LINE",
"676 428 LINE",
"961 0 LINE",
"1434 0 LINE",
"1434 301 LINE",
"1279 301 LINE",
"1072 578 LINE",
"1073 578 OFFCURVE",
"1245 762 OFFCURVE",
"1245 761 CURVE",
"1416 761 LINE",
"1416 1072 LINE",
"782 1072 LINE",
"782 761 LINE",
"877 761 LINE",
"676 547 LINE",
"676 1072 LINE",
"85 1007 LINE",
"85 734 LINE",
"189 734 LINE",
"189 301 LINE",
"86 301 LINE",
"86 0 LINE"
);
}
);
width = 1517;
}
);
unicode = 0138;
},
{
glyphname = ldot;
layers = (
{
components = (
{
alignment = -1;
name = l;
},
{
name = periodcentered.loclCAT;
transform = "{1, 0, 0, 1, 792, 69}";
}
);
layerId = "BC722C43-F174-4026-9892-4620CE50CA16";
width = 1237;
},
{
associatedMasterId = "BC722C43-F174-4026-9892-4620CE50CA16";
layerId = "5E4C292E-397E-44CB-BB75-E2CB2830C9EA";
name = "Regular Jul 5 16, 14:57";
paths = (
{
closed = 1;
nodes = (
"796 0 LINE",
"796 304 LINE",
"698 304 LINE",
"698 1560 LINE",
"78 1495 LINE",
"78 1222 LINE",
"203 1222 LINE",
"203 304 LINE",
"88 304 LINE",
"88 0 LINE"
);
},
{
closed = 1;
nodes = (
"1259 514 OFFCURVE",
"1385 608 OFFCURVE",
"1385 764 CURVE SMOOTH",
"1385 914 OFFCURVE",
"1266 1009 OFFCURVE",
"1098 1009 CURVE SMOOTH",
"937 1009 OFFCURVE",
"820 915 OFFCURVE",
"820 764 CURVE SMOOTH",
"820 609 OFFCURVE",
"944 514 OFFCURVE",
"1099 514 CURVE SMOOTH"
);
}
);
width = 1445;
}
);
unicode = 0140;
},
{
glyphname = lslash;
layers = (
{
layerId = "BC722C43-F174-4026-9892-4620CE50CA16";
paths = (
{
closed = 1;
nodes = (
"838 0 LINE",
"838 305 LINE",
"760 305 LINE",
"760 861 LINE",
"970 974 LINE",
"871 1153 LINE",
"760 1093 LINE",
"760 1630 LINE",
"181 1630 LINE",
"181 1317 LINE",
"265 1317 LINE",
"265 828 LINE",
"59 718 LINE",
"159 540 LINE",
"265 596 LINE",
"265 305 LINE",
"191 305 LINE",
"191 0 LINE"
);
}
);
width = 1024;
}
);
unicode = 0142;
},
{
glyphname = eng;
layers = (
{
anchors = (
{
name = bottom;
position = "{737, 0}";
},
{
name = top;
position = "{737, 1072}";
}
);
components = (
{
name = lc_xheight_stem;
transform = "{1, 0, 0, 1, 1, 0}";
}
);
layerId = "BC722C43-F174-4026-9892-4620CE50CA16";
paths = (
{
closed = 1;
nodes = (
"1414 680 LINE SMOOTH",
"1414 955 OFFCURVE",
"1305 1091 OFFCURVE",
"1085 1091 CURVE SMOOTH",
"838 1091 OFFCURVE",
"643 976 OFFCURVE",
"548 506 CURVE",
"729 506 LINE",
"729 636 OFFCURVE",
"729 791 OFFCURVE",
"843 791 CURVE SMOOTH",
"903 791 OFFCURVE",
"934 747 OFFCURVE",
"934 677 CURVE SMOOTH",
"934 47 LINE SMOOTH",
"933 -134 OFFCURVE",
"857 -222 OFFCURVE",
"701 -222 CURVE SMOOTH",
"619 -222 OFFCURVE",
"519 -202 OFFCURVE",
"451 -189 CURVE",
"451 -448 LINE",
"556 -476 OFFCURVE",
"658 -490 OFFCURVE",
"751 -490 CURVE SMOOTH",
"1135 -490 OFFCURVE",
"1414 -307 OFFCURVE",
"1414 95 CURVE SMOOTH"
);
}
);
width = 1579;
}
);
unicode = 014B;
},
{
glyphname = o;
layers = (
{
anchors = (
{
name = bottom;
position = "{683, -8}";
},
{
name = ogonek;
position = "{766, 0}";
},
{
name = top;
position = "{683, 1072}";
},
{
name = top_case;
position = "{683, 1072}";
}
);
layerId = "BC722C43-F174-4026-9892-4620CE50CA16";
paths = (
{
closed = 1;
nodes = (
"1044 -18 OFFCURVE",
"1291 187 OFFCURVE",
"1291 547 CURVE SMOOTH",
"1291 902 OFFCURVE",
"1043 1091 OFFCURVE",
"683 1091 CURVE SMOOTH",
"323 1091 OFFCURVE",
"75 902 OFFCURVE",
"75 547 CURVE SMOOTH",
"75 187 OFFCURVE",
"322 -18 OFFCURVE",
"683 -18 CURVE SMOOTH"
);
},
{
closed = 1;
nodes = (
"598 274 OFFCURVE",
"555 352 OFFCURVE",
"555 546 CURVE SMOOTH",
"555 724 OFFCURVE",
"594 799 OFFCURVE",
"683 799 CURVE SMOOTH",
"772 799 OFFCURVE",
"811 724 OFFCURVE",
"811 546 CURVE SMOOTH",
"811 352 OFFCURVE",
"767 274 OFFCURVE",
"683 274 CURVE SMOOTH"
);
}
);
width = 1365;
}
);
unicode = 006F;
},
{
glyphname = ohorn;
layers = (
{
anchors = (
{
name = bottom;
position = "{683, -8}";
},
{
name = ogonek;
position = "{766, 0}";
},
{
name = top;
position = "{683, 1072}";
}
);
layerId = "BC722C43-F174-4026-9892-4620CE50CA16";
paths = (
{
closed = 1;
nodes = (
"75 187 OFFCURVE",
"322 -18 OFFCURVE",
"683 -18 CURVE SMOOTH",
"1044 -18 OFFCURVE",
"1291 187 OFFCURVE",
"1291 547 CURVE SMOOTH",
"1291 738 OFFCURVE",
"1219 881 OFFCURVE",
"1097 972 CURVE",
"1027 888 LINE",
"1110 883 OFFCURVE",
"1176 875 OFFCURVE",
"1244 875 CURVE SMOOTH",
"1398 875 OFFCURVE",
"1490 999 OFFCURVE",
"1490 1154 CURVE SMOOTH",
"1490 1211 OFFCURVE",
"1478 1264 OFFCURVE",
"1454 1313 CURVE",
"1211 1272 LINE",
"1225 1243 OFFCURVE",
"1234 1217 OFFCURVE",
"1234 1184 CURVE SMOOTH",
"1234 1119 OFFCURVE",
"1205 1036 OFFCURVE",
"1124 1036 CURVE SMOOTH",
"983 1036 OFFCURVE",
"914 1091 OFFCURVE",
"683 1091 CURVE SMOOTH",
"323 1091 OFFCURVE",
"75 902 OFFCURVE",
"75 547 CURVE SMOOTH"
);
},
{
closed = 1;
nodes = (
"555 724 OFFCURVE",
"594 799 OFFCURVE",
"683 799 CURVE SMOOTH",
"772 799 OFFCURVE",
"811 724 OFFCURVE",
"811 546 CURVE SMOOTH",
"811 352 OFFCURVE",
"767 274 OFFCURVE",
"683 274 CURVE SMOOTH",
"598 274 OFFCURVE",
"555 352 OFFCURVE",
"555 546 CURVE SMOOTH"
);
}
);
width = 1495;
},
{
anchors = (
{
name = bottom;
position = "{683, -8}";
},
{
name = ogonek;
position = "{766, 0}";
},
{
name = top;
position = "{683, 1072}";
}
);
associatedMasterId = "BC722C43-F174-4026-9892-4620CE50CA16";
layerId = "C150BD11-F548-4FB0-AB4C-007137C3D2C9";
name = "Regular Jul 25 16, 01:34";
paths = (
{
closed = 1;
nodes = (
"683 989 LINE",
"865 921 OFFCURVE",
"1097 875 OFFCURVE",
"1258 875 CURVE SMOOTH",
"1412 875 OFFCURVE",
"1525 950 OFFCURVE",
"1525 1105 CURVE SMOOTH",
"1525 1162 OFFCURVE",
"1513 1215 OFFCURVE",
"1489 1264 CURVE",
"1246 1223 LINE",
"1260 1194 OFFCURVE",
"1269 1168 OFFCURVE",
"1269 1135 CURVE SMOOTH",
"1269 1070 OFFCURVE",
"1226 1036 OFFCURVE",
"1145 1036 CURVE SMOOTH",
"1004 1036 OFFCURVE",
"914 1091 OFFCURVE",
"683 1091 CURVE"
);
},
{
closed = 1;
nodes = (
"1044 -18 OFFCURVE",
"1291 187 OFFCURVE",
"1291 547 CURVE SMOOTH",
"1291 902 OFFCURVE",
"1043 1091 OFFCURVE",
"683 1091 CURVE SMOOTH",
"323 1091 OFFCURVE",
"75 902 OFFCURVE",
"75 547 CURVE SMOOTH",
"75 187 OFFCURVE",
"322 -18 OFFCURVE",
"683 -18 CURVE SMOOTH"
);
},
{
closed = 1;
nodes = (
"598 274 OFFCURVE",
"555 352 OFFCURVE",
"555 546 CURVE SMOOTH",
"555 724 OFFCURVE",
"594 799 OFFCURVE",
"683 799 CURVE SMOOTH",
"772 799 OFFCURVE",
"811 724 OFFCURVE",
"811 546 CURVE SMOOTH",
"811 352 OFFCURVE",
"767 274 OFFCURVE",
"683 274 CURVE SMOOTH"
);
}
);
width = 1365;
}
);
unicode = 01A1;
},
{
glyphname = oslash;
layers = (
{
anchors = (
{
name = top;
position = "{636, 1072}";
}
);
layerId = "BC722C43-F174-4026-9892-4620CE50CA16";
paths = (
{
closed = 1;
nodes = (
"792 -18 OFFCURVE",
"896 4 OFFCURVE",
"986 48 CURVE SMOOTH",
"1076 92 OFFCURVE",
"1147 157 OFFCURVE",
"1198 243 CURVE SMOOTH",
"1249 329 OFFCURVE",
"1274 430 OFFCURVE",
"1274 547 CURVE SMOOTH",
"1274 720 OFFCURVE",
"1220 854 OFFCURVE",
"1113 949 CURVE SMOOTH",
"1006 1044 OFFCURVE",
"859 1091 OFFCURVE",
"672 1091 CURVE SMOOTH",
"485 1091 OFFCURVE",
"338 1044 OFFCURVE",
"231 949 CURVE SMOOTH",
"124 854 OFFCURVE",
"70 720 OFFCURVE",
"70 547 CURVE",
"72 547 LINE",
"72 430 OFFCURVE",
"97 329 OFFCURVE",
"148 243 CURVE SMOOTH",
"199 157 OFFCURVE",
"270 92 OFFCURVE",
"360 48 CURVE SMOOTH",
"450 4 OFFCURVE",
"554 -18 OFFCURVE",
"673 -18 CURVE SMOOTH"
);
},
{
closed = 1;
nodes = (
"579 294 OFFCURVE",
"533 378 OFFCURVE",
"533 545 CURVE",
"535 545 LINE",
"535 579 OFFCURVE",
"536 608 OFFCURVE",
"539 632 CURVE SMOOTH",
"542 656 OFFCURVE",
"548 680 OFFCURVE",
"557 705 CURVE SMOOTH",
"566 730 OFFCURVE",
"580 749 OFFCURVE",
"599 762 CURVE SMOOTH",
"618 775 OFFCURVE",
"642 781 OFFCURVE",
"671 781 CURVE SMOOTH",
"700 781 OFFCURVE",
"724 775 OFFCURVE",
"743 762 CURVE SMOOTH",
"762 749 OFFCURVE",
"776 730 OFFCURVE",
"785 705 CURVE SMOOTH",
"794 680 OFFCURVE",
"800 656 OFFCURVE",
"803 632 CURVE SMOOTH",
"806 608 OFFCURVE",
"807 579 OFFCURVE",
"807 545 CURVE SMOOTH",
"807 378 OFFCURVE",
"761 294 OFFCURVE",
"670 294 CURVE SMOOTH"
);
},
{
closed = 1;
nodes = (
"1059 1142 LINE",
"972 1192 LINE",
"271 -54 LINE",
"358 -104 LINE"
);
}
);
width = 1343;
}
);
unicode = 00F8;
},
{
glyphname = oe;
layers = (
{
anchors = (
{
name = top;
position = "{955, 1072}";
}
);
layerId = "BC722C43-F174-4026-9892-4620CE50CA16";
paths = (
{
closed = 1;
nodes = (
"676 -26 LINE",
"720 -26 OFFCURVE",
"762 -21 OFFCURVE",
"802 -11 CURVE SMOOTH",
"842 -1 OFFCURVE",
"875 10 OFFCURVE",
"900 22 CURVE SMOOTH",
"925 34 OFFCURVE",
"948 48 OFFCURVE",
"970 64 CURVE SMOOTH",
"992 80 OFFCURVE",
"1006 91 OFFCURVE",
"1012 97 CURVE SMOOTH",
"1018 103 OFFCURVE",
"1023 108 OFFCURVE",
"1026 112 CURVE",
"1038 97 LINE",
"1047 88 OFFCURVE",
"1060 76 OFFCURVE",
"1078 62 CURVE SMOOTH",
"1096 48 OFFCURVE",
"1117 34 OFFCURVE",
"1141 20 CURVE SMOOTH",
"1165 6 OFFCURVE",
"1195 -6 OFFCURVE",
"1231 -16 CURVE SMOOTH",
"1267 -26 OFFCURVE",
"1305 -31 OFFCURVE",
"1344 -31 CURVE SMOOTH",
"1451 -32 OFFCURVE",
"1547 -21 OFFCURVE",
"1632 1 CURVE SMOOTH",
"1717 23 OFFCURVE",
"1804 61 OFFCURVE",
"1893 114 CURVE",
"1893 352 LINE",
"1586 352 LINE",
"1585 303 OFFCURVE",
"1573 267 OFFCURVE",
"1551 244 CURVE SMOOTH",
"1529 221 OFFCURVE",
"1494 209 OFFCURVE",
"1446 209 CURVE SMOOTH",
"1391 209 OFFCURVE",
"1348 231 OFFCURVE",
"1316 275 CURVE SMOOTH",
"1284 319 OFFCURVE",
"1268 372 OFFCURVE",
"1268 434 CURVE",
"1870 434 LINE SMOOTH",
"1881 434 OFFCURVE",
"1888 435 OFFCURVE",
"1891 436 CURVE",
"1895 438 OFFCURVE",
"1900 447 OFFCURVE",
"1907 462 CURVE",
"1910 492 OFFCURVE",
"1912 518 OFFCURVE",
"1912 541 CURVE SMOOTH",
"1912 641 OFFCURVE",
"1891 731 OFFCURVE",
"1849 811 CURVE SMOOTH",
"1807 891 OFFCURVE",
"1744 955 OFFCURVE",
"1659 1004 CURVE SMOOTH",
"1574 1053 OFFCURVE",
"1474 1077 OFFCURVE",
"1359 1077 CURVE SMOOTH",
"1316 1077 OFFCURVE",
"1275 1072 OFFCURVE",
"1236 1063 CURVE SMOOTH",
"1197 1054 OFFCURVE",
"1166 1044 OFFCURVE",
"1143 1033 CURVE SMOOTH",
"1120 1022 OFFCURVE",
"1099 1009 OFFCURVE",
"1080 995 CURVE SMOOTH",
"1061 981 OFFCURVE",
"1049 971 OFFCURVE",
"1044 965 CURVE SMOOTH",
"1039 959 OFFCURVE",
"1035 954 OFFCURVE",
"1032 951 CURVE",
"1018 964 LINE SMOOTH",
"1009 973 OFFCURVE",
"994 983 OFFCURVE",
"974 995 CURVE SMOOTH",
"954 1007 OFFCURVE",
"931 1019 OFFCURVE",
"905 1031 CURVE SMOOTH",
"879 1043 OFFCURVE",
"845 1053 OFFCURVE",
"804 1062 CURVE SMOOTH",
"763 1071 OFFCURVE",
"721 1075 OFFCURVE",
"677 1075 CURVE SMOOTH",
"490 1075 OFFCURVE",
"343 1028 OFFCURVE",
"236 933 CURVE SMOOTH",
"129 838 OFFCURVE",
"75 704 OFFCURVE",
"75 531 CURVE SMOOTH",
"75 414 OFFCURVE",
"100 313 OFFCURVE",
"151 227 CURVE SMOOTH",
"202 141 OFFCURVE",
"273 76 OFFCURVE",
"363 32 CURVE SMOOTH",
"453 -12 OFFCURVE",
"557 -34 OFFCURVE",
"676 -34 CURVE"
);
},
{
closed = 1;
nodes = (
"583 317 OFFCURVE",
"537 387 OFFCURVE",
"537 528 CURVE",
"539 529 LINE",
"539 557 OFFCURVE",
"540 581 OFFCURVE",
"543 601 CURVE SMOOTH",
"546 621 OFFCURVE",
"552 641 OFFCURVE",
"561 661 CURVE SMOOTH",
"570 681 OFFCURVE",
"584 696 OFFCURVE",
"603 707 CURVE SMOOTH",
"622 718 OFFCURVE",
"646 723 OFFCURVE",
"675 723 CURVE SMOOTH",
"704 723 OFFCURVE",
"728 718 OFFCURVE",
"747 707 CURVE SMOOTH",
"766 696 OFFCURVE",
"780 680 OFFCURVE",
"789 660 CURVE SMOOTH",
"798 640 OFFCURVE",
"804 620 OFFCURVE",
"807 600 CURVE SMOOTH",
"810 580 OFFCURVE",
"811 556 OFFCURVE",
"811 528 CURVE SMOOTH",
"811 387 OFFCURVE",
"765 317 OFFCURVE",
"674 317 CURVE SMOOTH"
);
},
{
closed = 1;
nodes = (
"1267 638 LINE SMOOTH",
"1267 679 OFFCURVE",
"1276 715 OFFCURVE",
"1294 747 CURVE SMOOTH",
"1312 779 OFFCURVE",
"1339 795 OFFCURVE",
"1375 795 CURVE SMOOTH",
"1400 795 OFFCURVE",
"1420 789 OFFCURVE",
"1436 777 CURVE SMOOTH",
"1452 765 OFFCURVE",
"1463 748 OFFCURVE",
"1469 726 CURVE SMOOTH",
"1475 704 OFFCURVE",
"1479 684 OFFCURVE",
"1481 667 CURVE SMOOTH",
"1483 650 OFFCURVE",
"1483 630 OFFCURVE",
"1482 607 CURVE",
"1267 607 LINE"
);
}
);
width = 1988;
}
);
unicode = 0153;
},
{
glyphname = p;
layers = (
{
layerId = "BC722C43-F174-4026-9892-4620CE50CA16";
paths = (
{
closed = 1;
nodes = (
"800 -398 LINE",
"800 -96 LINE",
"672 -96 LINE",
"672 119 LINE",
"734 53 OFFCURVE",
"845 -18 OFFCURVE",
"991 -18 CURVE SMOOTH",
"1292 -18 OFFCURVE",
"1440 242 OFFCURVE",
"1440 541 CURVE SMOOTH",
"1440 839 OFFCURVE",
"1289 1092 OFFCURVE",
"993 1092 CURVE SMOOTH",
"835 1092 OFFCURVE",
"729 1003 OFFCURVE",
"672 922 CURVE",
"672 1091 LINE",
"64 1030 LINE",
"64 761 LINE",
"192 761 LINE",
"192 -94 LINE",
"64 -94 LINE",
"64 -398 LINE"
);
},
{
closed = 1;
nodes = (
"749 274 OFFCURVE",
"701 306 OFFCURVE",
"672 360 CURVE",
"672 707 LINE",
"695 761 OFFCURVE",
"752 799 OFFCURVE",
"822 799 CURVE SMOOTH",
"921 799 OFFCURVE",
"992 699 OFFCURVE",
"992 535 CURVE SMOOTH",
"992 391 OFFCURVE",
"942 274 OFFCURVE",
"816 274 CURVE SMOOTH"
);
}
);
width = 1511;
}
);
unicode = 0070;
userData = {
com.typemytype.robofont.layerData = {
};
};
},
{
glyphname = thorn;
layers = (
{
layerId = "BC722C43-F174-4026-9892-4620CE50CA16";
paths = (
{
closed = 1;
nodes = (
"737 -397 LINE",
"737 -96 LINE",
"626 -96 LINE",
"626 119 LINE",
"655 84 OFFCURVE",
"697 54 OFFCURVE",
"752 29 CURVE SMOOTH",
"807 4 OFFCURVE",
"869 -9 OFFCURVE",
"938 -9 CURVE SMOOTH",
"1011 -9 OFFCURVE",
"1077 7 OFFCURVE",
"1136 38 CURVE SMOOTH",
"1195 69 OFFCURVE",
"1243 111 OFFCURVE",
"1279 163 CURVE SMOOTH",
"1315 215 OFFCURVE",
"1343 273 OFFCURVE",
"1362 338 CURVE SMOOTH",
"1381 403 OFFCURVE",
"1391 470 OFFCURVE",
"1391 540 CURVE SMOOTH",
"1391 611 OFFCURVE",
"1381 679 OFFCURVE",
"1361 743 CURVE SMOOTH",
"1341 807 OFFCURVE",
"1312 864 OFFCURVE",
"1275 915 CURVE SMOOTH",
"1238 966 OFFCURVE",
"1190 1006 OFFCURVE",
"1132 1036 CURVE SMOOTH",
"1074 1066 OFFCURVE",
"1010 1081 OFFCURVE",
"939 1081 CURVE SMOOTH",
"878 1081 OFFCURVE",
"825 1071 OFFCURVE",
"780 1051 CURVE SMOOTH",
"735 1031 OFFCURVE",
"691 999 OFFCURVE",
"648 954 CURVE",
"638 954 LINE",
"638 1445 LINE",
"74 1445 LINE",
"74 1139 LINE",
"148 1139 LINE",
"148 -96 LINE",
"64 -96 LINE",
"63 -398 LINE"
);
},
{
closed = 1;
nodes = (
"734 306 OFFCURVE",
"715 310 OFFCURVE",
"698 317 CURVE SMOOTH",
"681 324 OFFCURVE",
"668 333 OFFCURVE",
"659 344 CURVE SMOOTH",
"650 355 OFFCURVE",
"643 365 OFFCURVE",
"637 375 CURVE SMOOTH",
"631 385 OFFCURVE",
"627 394 OFFCURVE",
"626 401 CURVE",
"629 404 LINE",
"627 415 LINE",
"627 643 LINE",
"628 646 OFFCURVE",
"629 649 OFFCURVE",
"630 653 CURVE SMOOTH",
"631 657 OFFCURVE",
"635 664 OFFCURVE",
"642 675 CURVE SMOOTH",
"649 686 OFFCURVE",
"657 696 OFFCURVE",
"666 704 CURVE SMOOTH",
"675 712 OFFCURVE",
"688 719 OFFCURVE",
"704 726 CURVE SMOOTH",
"720 733 OFFCURVE",
"738 736 OFFCURVE",
"759 736 CURVE SMOOTH",
"868 736 OFFCURVE",
"922 671 OFFCURVE",
"922 542 CURVE SMOOTH",
"922 513 OFFCURVE",
"919 485 OFFCURVE",
"914 459 CURVE SMOOTH",
"909 433 OFFCURVE",
"901 408 OFFCURVE",
"889 384 CURVE SMOOTH",
"877 360 OFFCURVE",
"860 341 OFFCURVE",
"837 327 CURVE SMOOTH",
"814 313 OFFCURVE",
"787 306 OFFCURVE",
"755 306 CURVE SMOOTH"
);
}
);
width = 1460;
}
);
unicode = 00FE;
},
{
glyphname = q;
layers = (
{
layerId = "BC722C43-F174-4026-9892-4620CE50CA16";
paths = (
{
closed = 1;
nodes = (
"1446 -398 LINE",
"1446 -94 LINE",
"1328 -94 LINE",
"1328 761 LINE",
"1422 761 LINE",
"1422 1072 LINE",
"914 1072 LINE",
"841 922 LINE",
"784 1003 OFFCURVE",
"685 1091 OFFCURVE",
"527 1091 CURVE SMOOTH",
"231 1091 OFFCURVE",
"75 839 OFFCURVE",
"75 541 CURVE SMOOTH",
"75 242 OFFCURVE",
"228 -18 OFFCURVE",
"529 -18 CURVE SMOOTH",
"675 -18 OFFCURVE",
"779 53 OFFCURVE",
"841 119 CURVE",
"841 -96 LINE",
"730 -96 LINE",
"730 -398 LINE"
);
},
{
closed = 1;
nodes = (
"587 294 OFFCURVE",
"547 405 OFFCURVE",
"546 535 CURVE SMOOTH",
"546 699 OFFCURVE",
"600 779 OFFCURVE",
"709 779 CURVE SMOOTH",
"779 779 OFFCURVE",
"828 739 OFFCURVE",
"841 685 CURVE",
"841 390 LINE SMOOTH",
"841 335 OFFCURVE",
"780 294 OFFCURVE",
"713 294 CURVE SMOOTH"
);
}
);
width = 1515;
}
);
unicode = 0071;
},
{
glyphname = r;
layers = (
{
anchors = (
{
name = bottom;
position = "{490, 0}";
},
{
name = top;
position = "{490, 1072}";
}
);
layerId = "BC722C43-F174-4026-9892-4620CE50CA16";
paths = (
{
closed = 1;
nodes = (
"832 0 LINE",
"832 301 LINE",
"672 301 LINE",
"672 506 LINE SMOOTH",
"672 600 OFFCURVE",
"688 707 OFFCURVE",
"832 707 CURVE SMOOTH",
"880 707 OFFCURVE",
"944 695 OFFCURVE",
"1024 667 CURVE",
"1024 1091 LINE",
"924 1091 OFFCURVE",
"739 1026 OFFCURVE",
"672 917 CURVE",
"672 1092 LINE",
"64 1032 LINE",
"64 761 LINE",
"192 761 LINE",
"192 301 LINE",
"64 301 LINE",
"64 0 LINE"
);
}
);
width = 1072;
}
);
unicode = 0072;
userData = {
com.typemytype.robofont.layerData = {
};
};
},
{
glyphname = s;
layers = (
{
anchors = (
{
name = bottom;
position = "{570, 0}";
},
{
name = cedilla;
position = "{650, 0}";
},
{
name = top;
position = "{570, 1072}";
}
);
layerId = "BC722C43-F174-4026-9892-4620CE50CA16";
paths = (
{
closed = 1;
nodes = (
"875 -18 OFFCURVE",
"1088 101 OFFCURVE",
"1088 343 CURVE SMOOTH",
"1088 723 OFFCURVE",
"584 711 OFFCURVE",
"576 843 CURVE",
"576 883 OFFCURVE",
"608 890 OFFCURVE",
"649 890 CURVE SMOOTH",
"735 890 OFFCURVE",
"798 835 OFFCURVE",
"832 752 CURVE",
"1024 752 LINE",
"1024 1072 LINE",
"858 1072 LINE",
"834 1005 LINE",
"742 1062 OFFCURVE",
"638 1091 OFFCURVE",
"531 1091 CURVE SMOOTH",
"287 1091 OFFCURVE",
"64 980 OFFCURVE",
"64 775 CURVE SMOOTH",
"64 430 OFFCURVE",
"564 412 OFFCURVE",
"564 268 CURVE SMOOTH",
"564 215 OFFCURVE",
"523 198 OFFCURVE",
"491 198 CURVE SMOOTH",
"385 198 OFFCURVE",
"304 303 OFFCURVE",
"287 396 CURVE",
"64 396 LINE",
"64 0 LINE",
"249 0 LINE",
"282 90 LINE",
"389 16 OFFCURVE",
"516 -18 OFFCURVE",
"646 -18 CURVE SMOOTH"
);
}
);
width = 1185;
}
);
unicode = 0073;
userData = {
com.typemytype.robofont.layerData = {
};
};
},
{
glyphname = germandbls;
layers = (
{
background = {
paths = (
{
closed = 1;
nodes = (
"1071 -21 OFFCURVE",
"1163 -9 OFFCURVE",
"1244 16 CURVE SMOOTH",
"1325 41 OFFCURVE",
"1391 74 OFFCURVE",
"1441 116 CURVE SMOOTH",
"1491 158 OFFCURVE",
"1529 205 OFFCURVE",
"1555 258 CURVE SMOOTH",
"1581 311 OFFCURVE",
"1594 367 OFFCURVE",
"1594 426 CURVE SMOOTH",
"1594 525 OFFCURVE",
"1559 618 OFFCURVE",
"1489 705 CURVE SMOOTH",
"1419 792 OFFCURVE",
"1320 856 OFFCURVE",
"1193 897 CURVE",
"1264 937 OFFCURVE",
"1319 987 OFFCURVE",
"1359 1048 CURVE SMOOTH",
"1399 1109 OFFCURVE",
"1419 1171 OFFCURVE",
"1419 1235 CURVE SMOOTH",
"1419 1275 OFFCURVE",
"1411 1313 OFFCURVE",
"1396 1350 CURVE SMOOTH",
"1381 1387 OFFCURVE",
"1357 1422 OFFCURVE",
"1324 1455 CURVE SMOOTH",
"1291 1488 OFFCURVE",
"1250 1517 OFFCURVE",
"1202 1541 CURVE SMOOTH",
"1154 1565 OFFCURVE",
"1094 1584 OFFCURVE",
"1023 1598 CURVE SMOOTH",
"952 1612 OFFCURVE",
"873 1619 OFFCURVE",
"787 1619 CURVE",
"791 1623 LINE",
"711 1623 OFFCURVE",
"639 1618 OFFCURVE",
"576 1607 CURVE SMOOTH",
"513 1596 OFFCURVE",
"454 1578 OFFCURVE",
"400 1553 CURVE SMOOTH",
"346 1528 OFFCURVE",
"301 1495 OFFCURVE",
"265 1455 CURVE SMOOTH",
"229 1415 OFFCURVE",
"201 1364 OFFCURVE",
"181 1303 CURVE SMOOTH",
"161 1242 OFFCURVE",
"151 1172 OFFCURVE",
"151 1092 CURVE SMOOTH",
"151 369 LINE",
"-21 369 LINE",
"-21 0 LINE",
"830 0 LINE",
"830 350 LINE",
"813 349 OFFCURVE",
"763 349 OFFCURVE",
"679 349 CURVE",
"678 1131 LINE SMOOTH",
"678 1181 OFFCURVE",
"691 1217 OFFCURVE",
"718 1240 CURVE SMOOTH",
"745 1263 OFFCURVE",
"779 1274 OFFCURVE",
"820 1274 CURVE SMOOTH",
"869 1274 OFFCURVE",
"906 1260 OFFCURVE",
"930 1232 CURVE SMOOTH",
"954 1204 OFFCURVE",
"966 1167 OFFCURVE",
"966 1122 CURVE SMOOTH",
"966 1069 OFFCURVE",
"945 1019 OFFCURVE",
"903 971 CURVE SMOOTH",
"861 923 OFFCURVE",
"810 899 OFFCURVE",
"751 899 CURVE",
"754 748 LINE",
"871 748 OFFCURVE",
"960 727 OFFCURVE",
"1021 685 CURVE SMOOTH",
"1082 643 OFFCURVE",
"1112 591 OFFCURVE",
"1112 530 CURVE SMOOTH",
"1112 462 OFFCURVE",
"1064 401 OFFCURVE",
"967 346 CURVE",
"968 -21 LINE"
);
}
);
};
layerId = "BC722C43-F174-4026-9892-4620CE50CA16";
paths = (
{
closed = 1;
nodes = (
"1345 -21 OFFCURVE",
"1594 103 OFFCURVE",
"1594 451 CURVE SMOOTH",
"1594 698 OFFCURVE",
"1428 835 OFFCURVE",
"1193 897 CURVE",
"1337 947 OFFCURVE",
"1419 1061 OFFCURVE",
"1419 1235 CURVE SMOOTH",
"1419 1501 OFFCURVE",
"1188 1623 OFFCURVE",
"831 1623 CURVE SMOOTH",
"424 1623 OFFCURVE",
"198 1478 OFFCURVE",
"198 1092 CURVE SMOOTH",
"198 301 LINE",
"70 301 LINE",
"70 0 LINE",
"830 0 LINE",
"830 302 LINE",
"679 301 LINE",
"678 1131 LINE SMOOTH",
"678 1228 OFFCURVE",
"733 1274 OFFCURVE",
"820 1274 CURVE SMOOTH",
"925 1274 OFFCURVE",
"966 1206 OFFCURVE",
"966 1102 CURVE SMOOTH",
"966 980 OFFCURVE",
"891 899 OFFCURVE",
"751 899 CURVE",
"754 748 LINE",
"972 748 OFFCURVE",
"1112 682 OFFCURVE",
"1112 539 CURVE SMOOTH",
"1112 448 OFFCURVE",
"1074 374 OFFCURVE",
"967 346 CURVE",
"968 -21 LINE"
);
}
);
width = 1660;
},
{
associatedMasterId = "BC722C43-F174-4026-9892-4620CE50CA16";
layerId = "52293D27-2032-4E8D-9616-F17F33BD3BAE";
name = "Regular Jul 5 16, 11:06";
paths = (
{
closed = 1;
nodes = (
"1159 -21 OFFCURVE",
"1251 -9 OFFCURVE",
"1332 16 CURVE SMOOTH",
"1413 41 OFFCURVE",
"1479 74 OFFCURVE",
"1529 116 CURVE SMOOTH",
"1579 158 OFFCURVE",
"1617 205 OFFCURVE",
"1643 258 CURVE SMOOTH",
"1669 311 OFFCURVE",
"1682 367 OFFCURVE",
"1682 426 CURVE SMOOTH",
"1682 525 OFFCURVE",
"1647 618 OFFCURVE",
"1577 705 CURVE SMOOTH",
"1507 792 OFFCURVE",
"1408 856 OFFCURVE",
"1281 897 CURVE",
"1352 937 OFFCURVE",
"1407 987 OFFCURVE",
"1447 1048 CURVE SMOOTH",
"1487 1109 OFFCURVE",
"1507 1171 OFFCURVE",
"1507 1235 CURVE SMOOTH",
"1507 1275 OFFCURVE",
"1499 1313 OFFCURVE",
"1484 1350 CURVE SMOOTH",
"1469 1387 OFFCURVE",
"1445 1422 OFFCURVE",
"1412 1455 CURVE SMOOTH",
"1379 1488 OFFCURVE",
"1338 1517 OFFCURVE",
"1290 1541 CURVE SMOOTH",
"1242 1565 OFFCURVE",
"1182 1584 OFFCURVE",
"1111 1598 CURVE SMOOTH",
"1040 1612 OFFCURVE",
"961 1619 OFFCURVE",
"875 1619 CURVE",
"879 1623 LINE",
"799 1623 OFFCURVE",
"727 1618 OFFCURVE",
"664 1607 CURVE SMOOTH",
"601 1596 OFFCURVE",
"542 1578 OFFCURVE",
"488 1553 CURVE SMOOTH",
"434 1528 OFFCURVE",
"389 1495 OFFCURVE",
"353 1455 CURVE SMOOTH",
"317 1415 OFFCURVE",
"289 1364 OFFCURVE",
"269 1303 CURVE SMOOTH",
"249 1242 OFFCURVE",
"239 1172 OFFCURVE",
"239 1092 CURVE SMOOTH",
"239 369 LINE",
"67 369 LINE",
"67 0 LINE",
"918 0 LINE",
"918 350 LINE",
"901 349 OFFCURVE",
"851 349 OFFCURVE",
"767 349 CURVE",
"766 1131 LINE SMOOTH",
"766 1181 OFFCURVE",
"779 1217 OFFCURVE",
"806 1240 CURVE SMOOTH",
"833 1263 OFFCURVE",
"867 1274 OFFCURVE",
"908 1274 CURVE SMOOTH",
"957 1274 OFFCURVE",
"994 1260 OFFCURVE",
"1018 1232 CURVE SMOOTH",
"1042 1204 OFFCURVE",
"1054 1167 OFFCURVE",
"1054 1122 CURVE SMOOTH",
"1054 1069 OFFCURVE",
"1033 1019 OFFCURVE",
"991 971 CURVE SMOOTH",
"949 923 OFFCURVE",
"898 899 OFFCURVE",
"839 899 CURVE",
"842 748 LINE",
"959 748 OFFCURVE",
"1048 727 OFFCURVE",
"1109 685 CURVE SMOOTH",
"1170 643 OFFCURVE",
"1200 591 OFFCURVE",
"1200 530 CURVE SMOOTH",
"1200 462 OFFCURVE",
"1152 401 OFFCURVE",
"1055 346 CURVE",
"1056 -21 LINE"
);
}
);
width = 1748;
}
);
unicode = 00DF;
},
{
glyphname = t;
layers = (
{
anchors = (
{
name = bottom;
position = "{516, 0}";
},
{
name = cedilla;
position = "{552, 0}";
},
{
name = topright;
position = "{762, 1759}";
}
);
layerId = "BC722C43-F174-4026-9892-4620CE50CA16";
paths = (
{
closed = 1;
nodes = (
"668 -18 OFFCURVE",
"770 -2 OFFCURVE",
"864 41 CURVE",
"864 320 LINE",
"840 316 OFFCURVE",
"820 314 OFFCURVE",
"790 314 CURVE SMOOTH",
"723 314 OFFCURVE",
"672 357 OFFCURVE",
"672 418 CURVE SMOOTH",
"672 779 LINE",
"864 779 LINE",
"864 1072 LINE",
"672 1072 LINE",
"672 1406 LINE",
"192 1301 LINE",
"192 1072 LINE",
"32 1072 LINE",
"32 779 LINE",
"192 779 LINE",
"192 382 LINE SMOOTH",
"192 115 OFFCURVE",
"317 -18 OFFCURVE",
"578 -18 CURVE SMOOTH"
);
}
);
width = 954;
}
);
unicode = 0074;
userData = {
com.typemytype.robofont.layerData = {
};
};
},
{
glyphname = tbar;
layers = (
{
components = (
{
name = t;
}
);
layerId = "BC722C43-F174-4026-9892-4620CE50CA16";
paths = (
{
closed = 1;
nodes = (
"32 460 LINE",
"864 460 LINE",
"864 643 LINE",
"32 643 LINE"
);
}
);
width = 954;
}
);
unicode = 0167;
},
{
glyphname = u;
layers = (
{
anchors = (
{
name = bottom;
position = "{829, 0}";
},
{
name = ogonek;
position = "{1324, 0}";
},
{
name = top;
position = "{743, 1072}";
}
);
layerId = "BC722C43-F174-4026-9892-4620CE50CA16";
paths = (
{
closed = 1;
nodes = (
"683 -18 OFFCURVE",
"796 51 OFFCURVE",
"864 156 CURVE",
"864 0 LINE",
"1472 0 LINE",
"1472 301 LINE",
"1344 301 LINE",
"1344 1092 LINE",
"768 1032 LINE",
"768 761 LINE",
"864 761 LINE",
"864 388 LINE SMOOTH",
"864 329 OFFCURVE",
"831 280 OFFCURVE",
"768 280 CURVE SMOOTH",
"712 280 OFFCURVE",
"672 336 OFFCURVE",
"672 386 CURVE SMOOTH",
"672 1092 LINE",
"64 1032 LINE",
"64 761 LINE",
"192 761 LINE",
"192 385 LINE SMOOTH",
"192 116 OFFCURVE",
"302 -18 OFFCURVE",
"515 -18 CURVE SMOOTH"
);
}
);
width = 1538;
}
);
unicode = 0075;
userData = {
com.typemytype.robofont.layerData = {
};
};
},
{
glyphname = uhorn;
layers = (
{
anchors = (
{
name = bottom;
position = "{829, 0}";
},
{
name = ogonek;
position = "{1324, 0}";
},
{
name = top;
position = "{743, 1072}";
}
);
layerId = "BC722C43-F174-4026-9892-4620CE50CA16";
paths = (
{
closed = 1;
nodes = (
"1366 922 LINE SMOOTH",
"1520 922 OFFCURVE",
"1633 997 OFFCURVE",
"1633 1152 CURVE SMOOTH",
"1633 1209 OFFCURVE",
"1621 1262 OFFCURVE",
"1597 1311 CURVE",
"1354 1270 LINE",
"1368 1241 OFFCURVE",
"1377 1215 OFFCURVE",
"1377 1182 CURVE SMOOTH",
"1377 1117 OFFCURVE",
"1334 1092 OFFCURVE",
"1253 1083 CURVE SMOOTH",
"768 1032 LINE",
"768 761 LINE",
"864 761 LINE",
"864 388 LINE SMOOTH",
"864 329 OFFCURVE",
"831 280 OFFCURVE",
"768 280 CURVE SMOOTH",
"712 280 OFFCURVE",
"672 336 OFFCURVE",
"672 386 CURVE SMOOTH",
"672 1092 LINE",
"64 1032 LINE",
"64 761 LINE",
"192 761 LINE",
"192 385 LINE SMOOTH",
"192 116 OFFCURVE",
"302 -18 OFFCURVE",
"515 -18 CURVE SMOOTH",
"683 -18 OFFCURVE",
"796 51 OFFCURVE",
"864 156 CURVE",
"864 0 LINE",
"1472 0 LINE",
"1472 301 LINE",
"1344 301 LINE",
"1344 988 LINE",
"1290 922 LINE"
);
}
);
width = 1603;
}
);
unicode = 01B0;
},
{
glyphname = v;
layers = (
{
layerId = "BC722C43-F174-4026-9892-4620CE50CA16";
paths = (
{
closed = 1;
nodes = (
"992 0 LINE",
"1305 761 LINE",
"1440 761 LINE",
"1440 1072 LINE",
"896 1072 LINE",
"896 761 LINE",
"1024 761 LINE",
"832 258 LINE",
"658 761 LINE",
"768 761 LINE",
"768 1072 LINE",
"0 1072 LINE",
"0 761 LINE",
"148 761 LINE",
"481 0 LINE"
);
}
);
width = 1482;
}
);
unicode = 0076;
userData = {
com.typemytype.robofont.layerData = {
};
};
},
{
glyphname = w;
layers = (
{
anchors = (
{
name = top;
position = "{999, 1072}";
}
);
layerId = "BC722C43-F174-4026-9892-4620CE50CA16";
paths = (
{
closed = 1;
nodes = (
"879 0 LINE",
"1030 430 LINE",
"1160 0 LINE",
"1635 0 LINE",
"1861 761 LINE",
"1996 761 LINE",
"1996 1072 LINE",
"1446 1072 LINE",
"1446 761 LINE",
"1564 761 LINE",
"1465 379 LINE",
"1247 1072 LINE",
"981 1072 LINE",
"771 392 LINE",
"678 761 LINE",
"772 761 LINE",
"772 1072 LINE",
"64 1072 LINE",
"64 761 LINE",
"197 761 LINE",
"435 0 LINE"
);
}
);
width = 2061;
}
);
unicode = 0077;
},
{
glyphname = x;
layers = (
{
layerId = "BC722C43-F174-4026-9892-4620CE50CA16";
paths = (
{
closed = 1;
nodes = (
"380 0 LINE",
"587 277 LINE",
"776 0 LINE",
"1249 0 LINE",
"1249 301 LINE",
"1118 301 LINE",
"925 580 LINE",
"1088 761 LINE",
"1218 761 LINE",
"1218 1072 LINE",
"944 1072 LINE",
"759 821 LINE",
"597 1072 LINE",
"103 1072 LINE",
"103 761 LINE",
"232 761 LINE",
"414 512 LINE",
"234 301 LINE",
"83 301 LINE",
"83 0 LINE"
);
}
);
width = 1329;
}
);
unicode = 0078;
},
{
glyphname = y;
layers = (
{
anchors = (
{
name = bottom;
position = "{1420, 152}";
},
{
name = top;
position = "{768, 1072}";
}
);
layerId = "BC722C43-F174-4026-9892-4620CE50CA16";
paths = (
{
closed = 1;
nodes = (
"1091 -377 LINE",
"1091 -62 LINE",
"939 -62 LINE",
"1374 761 LINE",
"1483 761 LINE",
"1483 1072 LINE",
"923 1072 LINE",
"923 761 LINE",
"1033 761 LINE",
"881 454 LINE",
"715 761 LINE",
"813 761 LINE",
"813 1072 LINE",
"63 1072 LINE",
"63 761 LINE",
"191 761 LINE",
"657 31 LINE",
"602 -62 LINE",
"400 -62 LINE",
"400 -377 LINE"
);
}
);
width = 1547;
}
);
unicode = 0079;
},
{
glyphname = z;
layers = (
{
anchors = (
{
name = top;
position = "{650, 1072}";
}
);
layerId = "BC722C43-F174-4026-9892-4620CE50CA16";
paths = (
{
closed = 1;
nodes = (
"1167 0 LINE",
"1167 451 LINE",
"984 451 LINE",
"949 294 LINE",
"662 294 LINE",
"1131 795 LINE",
"1131 1072 LINE",
"109 1072 LINE",
"109 636 LINE",
"306 636 LINE",
"370 779 LINE",
"576 779 LINE",
"82 283 LINE",
"82 0 LINE"
);
}
);
width = 1248;
}
);
unicode = 007A;
},
{
glyphname = f_f;
layers = (
{
layerId = "BC722C43-F174-4026-9892-4620CE50CA16";
paths = (
{
closed = 1;
nodes = (
"81 1071 LINE",
"81 760 LINE",
"165 760 LINE",
"165 298 LINE",
"81 298 LINE",
"81 -1 LINE",
"761 -1 LINE",
"761 298 LINE",
"651 298 LINE",
"651 760 LINE",
"823 760 LINE",
"823 1071 LINE",
"646 1071 LINE",
"646 1106 LINE SMOOTH",
"646 1179 OFFCURVE",
"664 1241 OFFCURVE",
"734 1241 CURVE SMOOTH",
"768 1241 OFFCURVE",
"787 1237 OFFCURVE",
"838 1228 CURVE",
"838 1522 LINE",
"768 1545 OFFCURVE",
"634 1569 OFFCURVE",
"523 1569 CURVE SMOOTH",
"285 1569 OFFCURVE",
"166 1435 OFFCURVE",
"166 1166 CURVE SMOOTH",
"166 1071 LINE"
);
},
{
closed = 1;
nodes = (
"1515 1191 OFFCURVE",
"1534 1266 OFFCURVE",
"1633 1266 CURVE SMOOTH",
"1658 1266 OFFCURVE",
"1690 1262 OFFCURVE",
"1729 1253 CURVE",
"1729 1564 LINE",
"1661 1587 OFFCURVE",
"1531 1610 OFFCURVE",
"1421 1610 CURVE SMOOTH",
"1168 1610 OFFCURVE",
"1041 1476 OFFCURVE",
"1041 1207 CURVE SMOOTH",
"1041 1119 OFFCURVE",
"1043 1074 OFFCURVE",
"1043 1072 CURVE",
"960 1072 LINE",
"960 760 LINE",
"1044 760 LINE",
"1044 299 LINE",
"960 299 LINE",
"960 0 LINE",
"1640 0 LINE",
"1640 299 LINE",
"1530 299 LINE",
"1530 759 LINE",
"1722 759 LINE",
"1722 1072 LINE",
"1522 1072 LINE"
);
}
);
width = 1819;
},
{
associatedMasterId = "BC722C43-F174-4026-9892-4620CE50CA16";
layerId = "F449DF54-172C-4D8C-8B42-1812F7801936";
name = "Regular Jul 5 16, 14:39";
paths = (
{
closed = 1;
nodes = (
"913 0 LINE",
"913 301 LINE",
"721 301 LINE",
"721 779 LINE",
"913 779 LINE",
"913 1072 LINE",
"721 1072 LINE",
"721 1107 LINE SMOOTH",
"721 1180 OFFCURVE",
"739 1242 OFFCURVE",
"809 1242 CURVE SMOOTH",
"843 1242 OFFCURVE",
"862 1238 OFFCURVE",
"913 1229 CURVE",
"913 1523 LINE",
"843 1546 OFFCURVE",
"709 1570 OFFCURVE",
"598 1570 CURVE SMOOTH",
"360 1570 OFFCURVE",
"241 1436 OFFCURVE",
"241 1167 CURVE SMOOTH",
"241 1072 LINE",
"81 1072 LINE",
"81 779 LINE",
"241 779 LINE",
"241 301 LINE",
"81 301 LINE",
"81 0 LINE"
);
},
{
closed = 1;
nodes = (
"1916 0 LINE",
"1916 301 LINE",
"1724 301 LINE",
"1724 779 LINE",
"1916 779 LINE",
"1916 1072 LINE",
"1724 1072 LINE",
"1724 1107 LINE SMOOTH",
"1724 1180 OFFCURVE",
"1742 1242 OFFCURVE",
"1812 1242 CURVE SMOOTH",
"1846 1242 OFFCURVE",
"1865 1238 OFFCURVE",
"1916 1229 CURVE",
"1916 1523 LINE",
"1846 1546 OFFCURVE",
"1712 1570 OFFCURVE",
"1601 1570 CURVE SMOOTH",
"1363 1570 OFFCURVE",
"1244 1436 OFFCURVE",
"1244 1167 CURVE SMOOTH",
"1244 1072 LINE",
"1084 1072 LINE",
"1084 779 LINE",
"1244 779 LINE",
"1244 301 LINE",
"1084 301 LINE",
"1084 0 LINE"
);
},
{
closed = 0;
nodes = (
"2943 1630 LINE",
"2364 1630 LINE SMOOTH",
"1896 1630 OFFCURVE",
"1566 1603 OFFCURVE",
"1566 1206 CURVE SMOOTH",
"1566 1118 OFFCURVE",
"1568 1073 OFFCURVE",
"1568 1071 CURVE",
"1485 1071 LINE",
"1485 760 LINE",
"1569 760 LINE",
"1569 298 LINE",
"1485 298 LINE",
"1485 -1 LINE",
"2165 -1 LINE",
"2165 298 LINE",
"2055 298 LINE",
"2055 760 LINE",
"2227 760 LINE",
"2227 1071 LINE",
"2050 1071 LINE",
"2050 1175 LINE SMOOTH",
"2050 1298 OFFCURVE",
"2152 1314 OFFCURVE",
"2280 1314 CURVE SMOOTH",
"2448 1314 LINE"
);
}
);
width = 2006;
},
{
associatedMasterId = "BC722C43-F174-4026-9892-4620CE50CA16";
layerId = "B4A8E126-CADE-4970-B029-4E12AB340CB9";
name = "Regular Jul 5 16, 14:45";
paths = (
{
closed = 1;
nodes = (
"1716 0 LINE",
"1716 301 LINE",
"1524 301 LINE",
"1524 760 LINE",
"1716 760 LINE",
"1716 1072 LINE",
"1524 1072 LINE",
"1524 1107 LINE SMOOTH",
"1524 1180 OFFCURVE",
"1542 1242 OFFCURVE",
"1612 1242 CURVE SMOOTH",
"1646 1242 OFFCURVE",
"1665 1238 OFFCURVE",
"1716 1229 CURVE",
"1716 1523 LINE",
"1646 1546 OFFCURVE",
"1512 1570 OFFCURVE",
"1401 1570 CURVE SMOOTH",
"1163 1570 OFFCURVE",
"1044 1436 OFFCURVE",
"1044 1167 CURVE SMOOTH",
"1044 1072 LINE",
"961 1072 LINE",
"961 760 LINE",
"1044 760 LINE",
"1044 301 LINE",
"884 301 LINE",
"884 0 LINE"
);
},
{
closed = 1;
nodes = (
"1087 1510 OFFCURVE",
"898 1562 OFFCURVE",
"690 1562 CURVE SMOOTH",
"313 1562 OFFCURVE",
"162 1434 OFFCURVE",
"162 1126 CURVE SMOOTH",
"162 1090 OFFCURVE",
"164 1072 OFFCURVE",
"164 1071 CURVE",
"81 1071 LINE",
"81 760 LINE",
"165 760 LINE",
"165 298 LINE",
"81 298 LINE",
"81 -1 LINE",
"761 -1 LINE",
"761 298 LINE",
"651 298 LINE",
"651 760 LINE",
"823 760 LINE",
"823 1071 LINE",
"646 1071 LINE",
"646 1095 LINE SMOOTH",
"646 1200 OFFCURVE",
"701 1234 OFFCURVE",
"826 1234 CURVE SMOOTH",
"947 1234 OFFCURVE",
"1063 1205 OFFCURVE",
"1181 1151 CURVE",
"1285 1428 LINE"
);
}
);
width = 1806;
}
);
leftMetricsKey = f;
rightMetricsKey = f;
},
{
glyphname = f_f_i;
layers = (
{
layerId = "BC722C43-F174-4026-9892-4620CE50CA16";
paths = (
{
closed = 1;
nodes = (
"1634 0 LINE",
"1634 299 LINE",
"1524 299 LINE",
"1524 761 LINE",
"1917 761 LINE",
"1917 299 LINE",
"1835 299 LINE",
"1835 0 LINE",
"2482 0 LINE",
"2482 299 LINE",
"2398 299 LINE",
"2398 1072 LINE",
"1516 1074 LINE",
"1512 1146 OFFCURVE",
"1519 1196 OFFCURVE",
"1537 1224 CURVE SMOOTH",
"1555 1252 OFFCURVE",
"1585 1266 OFFCURVE",
"1627 1266 CURVE SMOOTH",
"1652 1266 OFFCURVE",
"1684 1262 OFFCURVE",
"1723 1253 CURVE",
"1723 1564 LINE",
"1714 1567 OFFCURVE",
"1701 1571 OFFCURVE",
"1683 1576 CURVE SMOOTH",
"1665 1581 OFFCURVE",
"1629 1588 OFFCURVE",
"1575 1597 CURVE SMOOTH",
"1521 1606 OFFCURVE",
"1468 1610 OFFCURVE",
"1415 1610 CURVE SMOOTH",
"1162 1610 OFFCURVE",
"1035 1476 OFFCURVE",
"1035 1207 CURVE SMOOTH",
"1036 1119 OFFCURVE",
"1037 1074 OFFCURVE",
"1037 1072 CURVE",
"954 1072 LINE",
"954 761 LINE",
"1038 761 LINE",
"1038 299 LINE",
"954 299 LINE",
"954 0 LINE"
);
},
{
closed = 1;
nodes = (
"2116 1137 LINE",
"2197 1137 OFFCURVE",
"2265 1159 OFFCURVE",
"2320 1204 CURVE SMOOTH",
"2375 1249 OFFCURVE",
"2402 1310 OFFCURVE",
"2402 1387 CURVE SMOOTH",
"2402 1462 OFFCURVE",
"2375 1522 OFFCURVE",
"2322 1566 CURVE SMOOTH",
"2269 1610 OFFCURVE",
"2200 1632 OFFCURVE",
"2115 1632 CURVE SMOOTH",
"2034 1632 OFFCURVE",
"1967 1610 OFFCURVE",
"1915 1566 CURVE SMOOTH",
"1863 1522 OFFCURVE",
"1837 1462 OFFCURVE",
"1837 1387 CURVE SMOOTH",
"1837 1310 OFFCURVE",
"1863 1249 OFFCURVE",
"1916 1204 CURVE SMOOTH",
"1969 1159 OFFCURVE",
"2035 1136 OFFCURVE",
"2114 1136 CURVE"
);
},
{
closed = 1;
nodes = (
"81 1071 LINE",
"81 760 LINE",
"165 760 LINE",
"165 298 LINE",
"81 298 LINE",
"81 -1 LINE",
"761 -1 LINE",
"761 298 LINE",
"651 298 LINE",
"651 760 LINE",
"823 760 LINE",
"823 1071 LINE",
"646 1071 LINE",
"646 1106 LINE SMOOTH",
"646 1179 OFFCURVE",
"664 1241 OFFCURVE",
"734 1241 CURVE SMOOTH",
"768 1241 OFFCURVE",
"787 1237 OFFCURVE",
"838 1228 CURVE",
"838 1522 LINE",
"768 1545 OFFCURVE",
"634 1569 OFFCURVE",
"523 1569 CURVE SMOOTH",
"285 1569 OFFCURVE",
"166 1435 OFFCURVE",
"166 1166 CURVE SMOOTH",
"166 1071 LINE"
);
}
);
width = 2548;
}
);
leftMetricsKey = f;
rightMetricsKey = i;
},
{
glyphname = f_f_ij;
layers = (
{
layerId = "BC722C43-F174-4026-9892-4620CE50CA16";
paths = (
{
closed = 1;
nodes = (
"81 1071 LINE",
"81 760 LINE",
"165 760 LINE",
"165 298 LINE",
"81 298 LINE",
"81 -1 LINE",
"761 -1 LINE",
"761 298 LINE",
"651 298 LINE",
"651 760 LINE",
"823 760 LINE",
"823 1071 LINE",
"646 1071 LINE",
"646 1106 LINE SMOOTH",
"646 1179 OFFCURVE",
"664 1241 OFFCURVE",
"734 1241 CURVE SMOOTH",
"768 1241 OFFCURVE",
"787 1237 OFFCURVE",
"838 1228 CURVE",
"838 1522 LINE",
"768 1545 OFFCURVE",
"634 1569 OFFCURVE",
"523 1569 CURVE SMOOTH",
"285 1569 OFFCURVE",
"166 1435 OFFCURVE",
"166 1166 CURVE SMOOTH",
"166 1071 LINE"
);
},
{
closed = 1;
nodes = (
"2282 1138 OFFCURVE",
"2408 1232 OFFCURVE",
"2408 1388 CURVE SMOOTH",
"2408 1538 OFFCURVE",
"2289 1633 OFFCURVE",
"2121 1633 CURVE SMOOTH",
"1960 1633 OFFCURVE",
"1843 1539 OFFCURVE",
"1843 1388 CURVE SMOOTH",
"1843 1233 OFFCURVE",
"1967 1138 OFFCURVE",
"2122 1138 CURVE SMOOTH"
);
},
{
closed = 1;
nodes = (
"3071 1137 OFFCURVE",
"3197 1231 OFFCURVE",
"3197 1387 CURVE SMOOTH",
"3197 1537 OFFCURVE",
"3078 1632 OFFCURVE",
"2910 1632 CURVE SMOOTH",
"2749 1632 OFFCURVE",
"2632 1538 OFFCURVE",
"2632 1387 CURVE SMOOTH",
"2632 1232 OFFCURVE",
"2756 1137 OFFCURVE",
"2911 1137 CURVE SMOOTH"
);
},
{
closed = 1;
nodes = (
"2485 308 LINE",
"2403 308 LINE",
"2403 763 LINE",
"2698 763 LINE",
"2698 -6 LINE SMOOTH",
"2698 -51 OFFCURVE",
"2649 -70 OFFCURVE",
"2606 -70 CURVE SMOOTH",
"2600 -70 OFFCURVE",
"2595 -70 OFFCURVE",
"2590 -69 CURVE",
"2592 -395 LINE",
"3053 -395 OFFCURVE",
"3195 -227 OFFCURVE",
"3195 129 CURVE SMOOTH",
"3195 1072 LINE",
"1522 1074 LINE",
"1515 1192 OFFCURVE",
"1534 1266 OFFCURVE",
"1633 1266 CURVE SMOOTH",
"1658 1266 OFFCURVE",
"1690 1262 OFFCURVE",
"1729 1253 CURVE",
"1729 1564 LINE",
"1661 1587 OFFCURVE",
"1531 1610 OFFCURVE",
"1421 1610 CURVE SMOOTH",
"1168 1610 OFFCURVE",
"1041 1476 OFFCURVE",
"1041 1207 CURVE SMOOTH",
"1041 1119 OFFCURVE",
"1043 1074 OFFCURVE",
"1043 1072 CURVE",
"960 1072 LINE",
"960 760 LINE",
"1044 760 LINE",
"1044 299 LINE",
"960 299 LINE",
"960 0 LINE",
"1640 0 LINE",
"1640 299 LINE",
"1530 299 LINE",
"1530 760 LINE",
"1923 760 LINE",
"1923 299 LINE",
"1841 299 LINE",
"1841 0 LINE",
"2485 0 LINE"
);
}
);
width = 3287;
}
);
leftMetricsKey = f;
rightMetricsKey = ij;
},
{
glyphname = f_f_l;
layers = (
{
layerId = "BC722C43-F174-4026-9892-4620CE50CA16";
paths = (
{
closed = 1;
nodes = (
"2496 -3 LINE",
"2496 303 LINE",
"2418 303 LINE",
"2418 1630 LINE",
"1839 1630 LINE SMOOTH",
"1371 1630 OFFCURVE",
"1041 1603 OFFCURVE",
"1041 1206 CURVE SMOOTH",
"1041 1118 OFFCURVE",
"1043 1073 OFFCURVE",
"1043 1071 CURVE",
"960 1071 LINE",
"960 760 LINE",
"1044 760 LINE",
"1044 298 LINE",
"960 298 LINE",
"960 -1 LINE",
"1640 -1 LINE",
"1640 298 LINE",
"1530 298 LINE",
"1530 760 LINE",
"1702 760 LINE",
"1702 1071 LINE",
"1525 1071 LINE",
"1525 1175 LINE SMOOTH",
"1525 1298 OFFCURVE",
"1627 1314 OFFCURVE",
"1755 1314 CURVE SMOOTH",
"1923 1314 LINE",
"1923 303 LINE",
"1849 303 LINE",
"1849 -3 LINE"
);
},
{
closed = 1;
nodes = (
"81 1071 LINE",
"81 760 LINE",
"165 760 LINE",
"165 298 LINE",
"81 298 LINE",
"81 -1 LINE",
"761 -1 LINE",
"761 298 LINE",
"651 298 LINE",
"651 760 LINE",
"823 760 LINE",
"823 1071 LINE",
"646 1071 LINE",
"646 1106 LINE SMOOTH",
"646 1179 OFFCURVE",
"664 1241 OFFCURVE",
"734 1241 CURVE SMOOTH",
"768 1241 OFFCURVE",
"787 1237 OFFCURVE",
"838 1228 CURVE",
"838 1522 LINE",
"768 1545 OFFCURVE",
"634 1569 OFFCURVE",
"523 1569 CURVE SMOOTH",
"285 1569 OFFCURVE",
"166 1435 OFFCURVE",
"166 1166 CURVE SMOOTH",
"166 1071 LINE"
);
}
);
width = 2572;
}
);
leftMetricsKey = f;
rightMetricsKey = "=l";
},
{
glyphname = f_ij;
layers = (
{
layerId = "BC722C43-F174-4026-9892-4620CE50CA16";
paths = (
{
closed = 1;
nodes = (
"1403 1138 OFFCURVE",
"1529 1232 OFFCURVE",
"1529 1388 CURVE SMOOTH",
"1529 1538 OFFCURVE",
"1410 1633 OFFCURVE",
"1242 1633 CURVE SMOOTH",
"1081 1633 OFFCURVE",
"964 1539 OFFCURVE",
"964 1388 CURVE SMOOTH",
"964 1233 OFFCURVE",
"1088 1138 OFFCURVE",
"1243 1138 CURVE SMOOTH"
);
},
{
closed = 1;
nodes = (
"2192 1137 OFFCURVE",
"2318 1231 OFFCURVE",
"2318 1387 CURVE SMOOTH",
"2318 1537 OFFCURVE",
"2199 1632 OFFCURVE",
"2031 1632 CURVE SMOOTH",
"1870 1632 OFFCURVE",
"1753 1538 OFFCURVE",
"1753 1387 CURVE SMOOTH",
"1753 1232 OFFCURVE",
"1877 1137 OFFCURVE",
"2032 1137 CURVE SMOOTH"
);
},
{
closed = 1;
nodes = (
"1606 308 LINE",
"1524 308 LINE",
"1524 763 LINE",
"1819 763 LINE",
"1819 -6 LINE SMOOTH",
"1819 -51 OFFCURVE",
"1770 -70 OFFCURVE",
"1727 -70 CURVE SMOOTH",
"1721 -70 OFFCURVE",
"1716 -70 OFFCURVE",
"1711 -69 CURVE",
"1713 -395 LINE",
"2174 -395 OFFCURVE",
"2316 -227 OFFCURVE",
"2316 129 CURVE SMOOTH",
"2316 1072 LINE",
"643 1074 LINE",
"636 1192 OFFCURVE",
"655 1266 OFFCURVE",
"754 1266 CURVE SMOOTH",
"779 1266 OFFCURVE",
"811 1262 OFFCURVE",
"850 1253 CURVE",
"850 1564 LINE",
"782 1587 OFFCURVE",
"652 1610 OFFCURVE",
"542 1610 CURVE SMOOTH",
"289 1610 OFFCURVE",
"162 1476 OFFCURVE",
"162 1207 CURVE SMOOTH",
"162 1119 OFFCURVE",
"164 1074 OFFCURVE",
"164 1072 CURVE",
"81 1072 LINE",
"81 760 LINE",
"165 760 LINE",
"165 299 LINE",
"81 299 LINE",
"81 0 LINE",
"761 0 LINE",
"761 299 LINE",
"651 299 LINE",
"651 760 LINE",
"1044 760 LINE",
"1044 299 LINE",
"962 299 LINE",
"962 0 LINE",
"1606 0 LINE"
);
}
);
width = 2408;
}
);
leftMetricsKey = f;
rightMetricsKey = ij;
},
{
glyphname = fi;
layers = (
{
background = {
paths = (
{
closed = 1;
nodes = (
"765 0 LINE",
"765 299 LINE",
"655 299 LINE",
"655 761 LINE",
"1048 761 LINE",
"1048 299 LINE",
"966 299 LINE",
"966 0 LINE",
"1613 0 LINE",
"1613 299 LINE",
"1529 299 LINE",
"1529 1072 LINE",
"647 1074 LINE",
"643 1146 OFFCURVE",
"650 1196 OFFCURVE",
"668 1224 CURVE SMOOTH",
"686 1252 OFFCURVE",
"716 1266 OFFCURVE",
"758 1266 CURVE SMOOTH",
"783 1266 OFFCURVE",
"815 1262 OFFCURVE",
"854 1253 CURVE",
"854 1564 LINE",
"845 1567 OFFCURVE",
"832 1571 OFFCURVE",
"814 1576 CURVE SMOOTH",
"796 1581 OFFCURVE",
"760 1588 OFFCURVE",
"706 1597 CURVE SMOOTH",
"652 1606 OFFCURVE",
"599 1610 OFFCURVE",
"546 1610 CURVE SMOOTH",
"293 1610 OFFCURVE",
"166 1476 OFFCURVE",
"166 1207 CURVE SMOOTH",
"167 1119 OFFCURVE",
"168 1074 OFFCURVE",
"168 1072 CURVE",
"85 1072 LINE",
"85 761 LINE",
"169 761 LINE",
"169 299 LINE",
"85 299 LINE",
"85 0 LINE"
);
},
{
closed = 1;
nodes = (
"1247 1137 LINE",
"1328 1137 OFFCURVE",
"1396 1159 OFFCURVE",
"1451 1204 CURVE SMOOTH",
"1506 1249 OFFCURVE",
"1533 1310 OFFCURVE",
"1533 1387 CURVE SMOOTH",
"1533 1462 OFFCURVE",
"1506 1522 OFFCURVE",
"1453 1566 CURVE SMOOTH",
"1400 1610 OFFCURVE",
"1331 1632 OFFCURVE",
"1246 1632 CURVE SMOOTH",
"1165 1632 OFFCURVE",
"1098 1610 OFFCURVE",
"1046 1566 CURVE SMOOTH",
"994 1522 OFFCURVE",
"968 1462 OFFCURVE",
"968 1387 CURVE SMOOTH",
"968 1310 OFFCURVE",
"994 1249 OFFCURVE",
"1047 1204 CURVE SMOOTH",
"1100 1159 OFFCURVE",
"1166 1136 OFFCURVE",
"1245 1136 CURVE"
);
}
);
};
layerId = "BC722C43-F174-4026-9892-4620CE50CA16";
paths = (
{
closed = 1;
nodes = (
"765 0 LINE",
"765 299 LINE",
"655 299 LINE",
"655 760 LINE",
"1048 760 LINE",
"1048 299 LINE",
"966 299 LINE",
"966 0 LINE",
"1613 0 LINE",
"1613 299 LINE",
"1529 299 LINE",
"1529 1072 LINE",
"647 1074 LINE",
"640 1192 OFFCURVE",
"659 1266 OFFCURVE",
"758 1266 CURVE SMOOTH",
"783 1266 OFFCURVE",
"815 1262 OFFCURVE",
"854 1253 CURVE",
"854 1564 LINE",
"786 1587 OFFCURVE",
"656 1610 OFFCURVE",
"546 1610 CURVE SMOOTH",
"293 1610 OFFCURVE",
"166 1476 OFFCURVE",
"166 1207 CURVE SMOOTH",
"167 1119 OFFCURVE",
"168 1074 OFFCURVE",
"168 1072 CURVE",
"85 1072 LINE",
"85 760 LINE",
"169 760 LINE",
"169 299 LINE",
"85 299 LINE",
"85 0 LINE"
);
},
{
closed = 1;
nodes = (
"1247 1137 LINE",
"1403 1137 OFFCURVE",
"1533 1225 OFFCURVE",
"1533 1387 CURVE SMOOTH",
"1533 1544 OFFCURVE",
"1409 1632 OFFCURVE",
"1246 1632 CURVE SMOOTH",
"1091 1632 OFFCURVE",
"968 1546 OFFCURVE",
"968 1387 CURVE SMOOTH",
"968 1229 OFFCURVE",
"1089 1136 OFFCURVE",
"1245 1136 CURVE"
);
}
);
width = 1686;
},
{
associatedMasterId = "BC722C43-F174-4026-9892-4620CE50CA16";
layerId = "7A2174FC-D8EA-411B-93F6-FCF3E2249CDE";
name = "Regular Jul 5 16, 14:47";
paths = (
{
closed = 1;
nodes = (
"765 0 LINE",
"765 299 LINE",
"655 299 LINE",
"655 761 LINE",
"1048 761 LINE",
"1048 299 LINE",
"966 299 LINE",
"966 0 LINE",
"1613 0 LINE",
"1613 299 LINE",
"1529 299 LINE",
"1529 1072 LINE",
"647 1074 LINE",
"643 1146 OFFCURVE",
"650 1196 OFFCURVE",
"668 1224 CURVE SMOOTH",
"686 1252 OFFCURVE",
"716 1266 OFFCURVE",
"758 1266 CURVE SMOOTH",
"783 1266 OFFCURVE",
"815 1262 OFFCURVE",
"854 1253 CURVE",
"854 1564 LINE",
"845 1567 OFFCURVE",
"832 1571 OFFCURVE",
"814 1576 CURVE SMOOTH",
"796 1581 OFFCURVE",
"760 1588 OFFCURVE",
"706 1597 CURVE SMOOTH",
"652 1606 OFFCURVE",
"599 1610 OFFCURVE",
"546 1610 CURVE SMOOTH",
"293 1610 OFFCURVE",
"166 1476 OFFCURVE",
"166 1207 CURVE SMOOTH",
"167 1119 OFFCURVE",
"168 1074 OFFCURVE",
"168 1072 CURVE",
"85 1072 LINE",
"85 761 LINE",
"169 761 LINE",
"169 299 LINE",
"85 299 LINE",
"85 0 LINE"
);
},
{
closed = 1;
nodes = (
"1247 1137 LINE",
"1328 1137 OFFCURVE",
"1396 1159 OFFCURVE",
"1451 1204 CURVE SMOOTH",
"1506 1249 OFFCURVE",
"1533 1310 OFFCURVE",
"1533 1387 CURVE SMOOTH",
"1533 1462 OFFCURVE",
"1506 1522 OFFCURVE",
"1453 1566 CURVE SMOOTH",
"1400 1610 OFFCURVE",
"1331 1632 OFFCURVE",
"1246 1632 CURVE SMOOTH",
"1165 1632 OFFCURVE",
"1098 1610 OFFCURVE",
"1046 1566 CURVE SMOOTH",
"994 1522 OFFCURVE",
"968 1462 OFFCURVE",
"968 1387 CURVE SMOOTH",
"968 1310 OFFCURVE",
"994 1249 OFFCURVE",
"1047 1204 CURVE SMOOTH",
"1100 1159 OFFCURVE",
"1166 1136 OFFCURVE",
"1245 1136 CURVE"
);
}
);
width = 1686;
}
);
unicode = FB01;
},
{
glyphname = fl;
layers = (
{
background = {
paths = (
{
closed = 1;
nodes = (
"1621 -3 LINE",
"1621 303 LINE",
"1543 303 LINE",
"1543 1630 LINE",
"964 1630 LINE SMOOTH",
"950 1630 OFFCURVE",
"926 1630 OFFCURVE",
"892 1631 CURVE SMOOTH",
"858 1632 OFFCURVE",
"828 1633 OFFCURVE",
"802 1634 CURVE SMOOTH",
"776 1635 OFFCURVE",
"743 1634 OFFCURVE",
"703 1632 CURVE SMOOTH",
"663 1630 OFFCURVE",
"627 1627 OFFCURVE",
"595 1623 CURVE SMOOTH",
"563 1619 OFFCURVE",
"528 1612 OFFCURVE",
"490 1603 CURVE SMOOTH",
"452 1594 OFFCURVE",
"418 1583 OFFCURVE",
"389 1569 CURVE SMOOTH",
"360 1555 OFFCURVE",
"331 1537 OFFCURVE",
"302 1515 CURVE SMOOTH",
"273 1493 OFFCURVE",
"249 1468 OFFCURVE",
"230 1440 CURVE SMOOTH",
"211 1412 OFFCURVE",
"196 1378 OFFCURVE",
"184 1338 CURVE SMOOTH",
"172 1298 OFFCURVE",
"166 1254 OFFCURVE",
"166 1206 CURVE SMOOTH",
"167 1118 OFFCURVE",
"168 1073 OFFCURVE",
"168 1071 CURVE",
"85 1071 LINE",
"85 760 LINE",
"169 760 LINE",
"169 298 LINE",
"85 298 LINE",
"85 -1 LINE",
"765 -1 LINE",
"765 298 LINE",
"655 298 LINE",
"655 760 LINE",
"827 760 LINE",
"827 1071 LINE",
"650 1071 LINE",
"650 1175 LINE SMOOTH",
"650 1196 OFFCURVE",
"656 1218 OFFCURVE",
"668 1241 CURVE SMOOTH",
"680 1264 OFFCURVE",
"690 1279 OFFCURVE",
"699 1285 CURVE SMOOTH",
"708 1291 OFFCURVE",
"732 1297 OFFCURVE",
"772 1304 CURVE SMOOTH",
"812 1311 OFFCURVE",
"848 1314 OFFCURVE",
"880 1314 CURVE SMOOTH",
"1048 1314 LINE",
"1048 303 LINE",
"974 303 LINE",
"974 -3 LINE"
);
}
);
};
layerId = "BC722C43-F174-4026-9892-4620CE50CA16";
paths = (
{
closed = 1;
nodes = (
"1621 -3 LINE",
"1621 303 LINE",
"1543 303 LINE",
"1543 1630 LINE",
"964 1630 LINE SMOOTH",
"496 1630 OFFCURVE",
"166 1603 OFFCURVE",
"166 1206 CURVE SMOOTH",
"166 1118 OFFCURVE",
"168 1073 OFFCURVE",
"168 1071 CURVE",
"85 1071 LINE",
"85 760 LINE",
"169 760 LINE",
"169 298 LINE",
"85 298 LINE",
"85 -1 LINE",
"765 -1 LINE",
"765 298 LINE",
"655 298 LINE",
"655 760 LINE",
"827 760 LINE",
"827 1071 LINE",
"650 1071 LINE",
"650 1175 LINE SMOOTH",
"650 1298 OFFCURVE",
"752 1314 OFFCURVE",
"880 1314 CURVE SMOOTH",
"1048 1314 LINE",
"1048 303 LINE",
"974 303 LINE",
"974 -3 LINE"
);
}
);
width = 1696;
},
{
associatedMasterId = "BC722C43-F174-4026-9892-4620CE50CA16";
layerId = "4B789674-F6DD-4759-BEC2-E651B7B88A17";
name = "Regular Jul 5 16, 14:38";
paths = (
{
closed = 1;
nodes = (
"1621 -3 LINE",
"1621 303 LINE",
"1543 303 LINE",
"1543 1630 LINE",
"964 1630 LINE SMOOTH",
"950 1630 OFFCURVE",
"926 1630 OFFCURVE",
"892 1631 CURVE SMOOTH",
"858 1632 OFFCURVE",
"828 1633 OFFCURVE",
"802 1634 CURVE SMOOTH",
"776 1635 OFFCURVE",
"743 1634 OFFCURVE",
"703 1632 CURVE SMOOTH",
"663 1630 OFFCURVE",
"627 1627 OFFCURVE",
"595 1623 CURVE SMOOTH",
"563 1619 OFFCURVE",
"528 1612 OFFCURVE",
"490 1603 CURVE SMOOTH",
"452 1594 OFFCURVE",
"418 1583 OFFCURVE",
"389 1569 CURVE SMOOTH",
"360 1555 OFFCURVE",
"331 1537 OFFCURVE",
"302 1515 CURVE SMOOTH",
"273 1493 OFFCURVE",
"249 1468 OFFCURVE",
"230 1440 CURVE SMOOTH",
"211 1412 OFFCURVE",
"196 1378 OFFCURVE",
"184 1338 CURVE SMOOTH",
"172 1298 OFFCURVE",
"166 1254 OFFCURVE",
"166 1206 CURVE SMOOTH",
"167 1118 OFFCURVE",
"168 1073 OFFCURVE",
"168 1071 CURVE",
"85 1071 LINE",
"85 760 LINE",
"169 760 LINE",
"169 298 LINE",
"85 298 LINE",
"85 -1 LINE",
"765 -1 LINE",
"765 298 LINE",
"655 298 LINE",
"655 760 LINE",
"827 760 LINE",
"827 1071 LINE",
"650 1071 LINE",
"650 1175 LINE SMOOTH",
"650 1196 OFFCURVE",
"656 1218 OFFCURVE",
"668 1241 CURVE SMOOTH",
"680 1264 OFFCURVE",
"690 1279 OFFCURVE",
"699 1285 CURVE SMOOTH",
"708 1291 OFFCURVE",
"732 1297 OFFCURVE",
"772 1304 CURVE SMOOTH",
"812 1311 OFFCURVE",
"848 1314 OFFCURVE",
"880 1314 CURVE SMOOTH",
"1048 1314 LINE",
"1048 303 LINE",
"974 303 LINE",
"974 -3 LINE"
);
}
);
width = 1696;
visible = 1;
}
);
unicode = FB02;
},
{
glyphname = ordfeminine;
layers = (
{
background = {
paths = (
{
closed = 1;
nodes = (
"384 807 OFFCURVE",
"426 816 OFFCURVE",
"469 834 CURVE SMOOTH",
"512 852 OFFCURVE",
"546 877 OFFCURVE",
"571 909 CURVE",
"608 821 LINE",
"956 821 LINE",
"956 1046 LINE",
"900 1046 LINE",
"900 1374 LINE SMOOTH",
"900 1408 OFFCURVE",
"894 1439 OFFCURVE",
"881 1466 CURVE SMOOTH",
"868 1493 OFFCURVE",
"852 1515 OFFCURVE",
"834 1532 CURVE SMOOTH",
"816 1549 OFFCURVE",
"793 1564 OFFCURVE",
"765 1576 CURVE SMOOTH",
"737 1588 OFFCURVE",
"711 1597 OFFCURVE",
"687 1603 CURVE SMOOTH",
"663 1609 OFFCURVE",
"636 1614 OFFCURVE",
"605 1617 CURVE SMOOTH",
"574 1620 OFFCURVE",
"550 1622 OFFCURVE",
"534 1623 CURVE SMOOTH",
"518 1624 OFFCURVE",
"500 1624 OFFCURVE",
"480 1624 CURVE SMOOTH",
"427 1624 OFFCURVE",
"371 1620 OFFCURVE",
"311 1611 CURVE SMOOTH",
"251 1602 OFFCURVE",
"205 1593 OFFCURVE",
"172 1584 CURVE SMOOTH",
"122 1571 LINE",
"122 1339 LINE",
"252 1339 LINE",
"287 1386 OFFCURVE",
"340 1409 OFFCURVE",
"410 1409 CURVE SMOOTH",
"514 1409 OFFCURVE",
"566 1368 OFFCURVE",
"566 1287 CURVE SMOOTH",
"566 1254 LINE",
"512 1273 OFFCURVE",
"449 1282 OFFCURVE",
"377 1282 CURVE SMOOTH",
"336 1282 OFFCURVE",
"297 1277 OFFCURVE",
"259 1267 CURVE SMOOTH",
"221 1257 OFFCURVE",
"187 1242 OFFCURVE",
"156 1223 CURVE SMOOTH",
"125 1204 OFFCURVE",
"100 1179 OFFCURVE",
"82 1148 CURVE SMOOTH",
"64 1117 OFFCURVE",
"55 1082 OFFCURVE",
"55 1044 CURVE",
"56 1046 LINE",
"56 973 OFFCURVE",
"84 915 OFFCURVE",
"140 872 CURVE SMOOTH",
"196 829 OFFCURVE",
"264 807 OFFCURVE",
"343 807 CURVE SMOOTH"
);
},
{
closed = 1;
nodes = (
"464 983 OFFCURVE",
"447 990 OFFCURVE",
"434 1004 CURVE SMOOTH",
"421 1018 OFFCURVE",
"415 1036 OFFCURVE",
"415 1059 CURVE",
"417 1058 LINE",
"417 1079 OFFCURVE",
"424 1098 OFFCURVE",
"439 1115 CURVE SMOOTH",
"454 1132 OFFCURVE",
"472 1140 OFFCURVE",
"493 1140 CURVE SMOOTH",
"504 1140 OFFCURVE",
"515 1139 OFFCURVE",
"527 1137 CURVE SMOOTH",
"539 1135 OFFCURVE",
"549 1132 OFFCURVE",
"556 1129 CURVE SMOOTH",
"566 1125 LINE",
"566 1016 LINE",
"557 1007 LINE SMOOTH",
"553 1003 OFFCURVE",
"544 998 OFFCURVE",
"530 992 CURVE SMOOTH",
"516 986 OFFCURVE",
"501 983 OFFCURVE",
"485 983 CURVE SMOOTH"
);
}
);
};
layerId = "BC722C43-F174-4026-9892-4620CE50CA16";
paths = (
{
closed = 1;
nodes = (
"422 807 OFFCURVE",
"519 842 OFFCURVE",
"571 909 CURVE",
"608 821 LINE",
"956 821 LINE",
"956 1046 LINE",
"900 1046 LINE",
"900 1374 LINE SMOOTH",
"900 1559 OFFCURVE",
"721 1624 OFFCURVE",
"480 1624 CURVE SMOOTH",
"375 1624 OFFCURVE",
"255 1607 OFFCURVE",
"122 1571 CURVE",
"122 1339 LINE",
"252 1339 LINE",
"287 1386 OFFCURVE",
"340 1409 OFFCURVE",
"410 1409 CURVE SMOOTH",
"514 1409 OFFCURVE",
"566 1368 OFFCURVE",
"566 1287 CURVE SMOOTH",
"566 1254 LINE",
"512 1273 OFFCURVE",
"449 1282 OFFCURVE",
"377 1282 CURVE SMOOTH",
"192 1282 OFFCURVE",
"55 1189 OFFCURVE",
"56 1046 CURVE SMOOTH",
"56 894 OFFCURVE",
"191 807 OFFCURVE",
"343 807 CURVE SMOOTH"
);
},
{
closed = 1;
nodes = (
"445 983 OFFCURVE",
"415 1011 OFFCURVE",
"415 1059 CURVE SMOOTH",
"417 1098 OFFCURVE",
"449 1140 OFFCURVE",
"493 1140 CURVE SMOOTH",
"517 1140 OFFCURVE",
"544 1134 OFFCURVE",
"566 1125 CURVE",
"566 1016 LINE",
"543 993 OFFCURVE",
"514 983 OFFCURVE",
"485 983 CURVE SMOOTH"
);
}
);
width = 1030;
},
{
associatedMasterId = "BC722C43-F174-4026-9892-4620CE50CA16";
layerId = "B84DE414-532B-4A1F-8C38-D98E167D3312";
name = "Regular Jul 5 16, 10:32";
paths = (
{
closed = 1;
nodes = (
"384 807 OFFCURVE",
"426 816 OFFCURVE",
"469 834 CURVE SMOOTH",
"512 852 OFFCURVE",
"546 877 OFFCURVE",
"571 909 CURVE",
"608 821 LINE",
"956 821 LINE",
"956 1046 LINE",
"900 1046 LINE",
"900 1374 LINE SMOOTH",
"900 1408 OFFCURVE",
"894 1439 OFFCURVE",
"881 1466 CURVE SMOOTH",
"868 1493 OFFCURVE",
"852 1515 OFFCURVE",
"834 1532 CURVE SMOOTH",
"816 1549 OFFCURVE",
"793 1564 OFFCURVE",
"765 1576 CURVE SMOOTH",
"737 1588 OFFCURVE",
"711 1597 OFFCURVE",
"687 1603 CURVE SMOOTH",
"663 1609 OFFCURVE",
"636 1614 OFFCURVE",
"605 1617 CURVE SMOOTH",
"574 1620 OFFCURVE",
"550 1622 OFFCURVE",
"534 1623 CURVE SMOOTH",
"518 1624 OFFCURVE",
"500 1624 OFFCURVE",
"480 1624 CURVE SMOOTH",
"427 1624 OFFCURVE",
"371 1620 OFFCURVE",
"311 1611 CURVE SMOOTH",
"251 1602 OFFCURVE",
"205 1593 OFFCURVE",
"172 1584 CURVE SMOOTH",
"122 1571 LINE",
"122 1339 LINE",
"252 1339 LINE",
"287 1386 OFFCURVE",
"340 1409 OFFCURVE",
"410 1409 CURVE SMOOTH",
"514 1409 OFFCURVE",
"566 1368 OFFCURVE",
"566 1287 CURVE SMOOTH",
"566 1254 LINE",
"512 1273 OFFCURVE",
"449 1282 OFFCURVE",
"377 1282 CURVE SMOOTH",
"336 1282 OFFCURVE",
"297 1277 OFFCURVE",
"259 1267 CURVE SMOOTH",
"221 1257 OFFCURVE",
"187 1242 OFFCURVE",
"156 1223 CURVE SMOOTH",
"125 1204 OFFCURVE",
"100 1179 OFFCURVE",
"82 1148 CURVE SMOOTH",
"64 1117 OFFCURVE",
"55 1082 OFFCURVE",
"55 1044 CURVE",
"56 1046 LINE",
"56 973 OFFCURVE",
"84 915 OFFCURVE",
"140 872 CURVE SMOOTH",
"196 829 OFFCURVE",
"264 807 OFFCURVE",
"343 807 CURVE SMOOTH"
);
},
{
closed = 1;
nodes = (
"464 983 OFFCURVE",
"447 990 OFFCURVE",
"434 1004 CURVE SMOOTH",
"421 1018 OFFCURVE",
"415 1036 OFFCURVE",
"415 1059 CURVE",
"417 1058 LINE",
"417 1079 OFFCURVE",
"424 1098 OFFCURVE",
"439 1115 CURVE SMOOTH",
"454 1132 OFFCURVE",
"472 1140 OFFCURVE",
"493 1140 CURVE SMOOTH",
"504 1140 OFFCURVE",
"515 1139 OFFCURVE",
"527 1137 CURVE SMOOTH",
"539 1135 OFFCURVE",
"549 1132 OFFCURVE",
"556 1129 CURVE SMOOTH",
"566 1125 LINE",
"566 1016 LINE",
"557 1007 LINE SMOOTH",
"553 1003 OFFCURVE",
"544 998 OFFCURVE",
"530 992 CURVE SMOOTH",
"516 986 OFFCURVE",
"501 983 OFFCURVE",
"485 983 CURVE SMOOTH"
);
}
);
width = 1030;
}
);
unicode = 00AA;
},
{
glyphname = ordmasculine;
layers = (
{
background = {
paths = (
{
closed = 1;
nodes = (
"649 271 OFFCURVE",
"757 308 OFFCURVE",
"839 382 CURVE SMOOTH",
"921 456 OFFCURVE",
"962 558 OFFCURVE",
"962 688 CURVE SMOOTH",
"962 817 OFFCURVE",
"922 916 OFFCURVE",
"843 986 CURVE SMOOTH",
"764 1056 OFFCURVE",
"655 1091 OFFCURVE",
"516 1091 CURVE SMOOTH",
"378 1091 OFFCURVE",
"269 1056 OFFCURVE",
"189 986 CURVE SMOOTH",
"109 916 OFFCURVE",
"69 817 OFFCURVE",
"69 688 CURVE",
"68 688 LINE",
"68 558 OFFCURVE",
"109 456 OFFCURVE",
"191 382 CURVE SMOOTH",
"273 308 OFFCURVE",
"381 271 OFFCURVE",
"515 271 CURVE SMOOTH"
);
},
{
closed = 1;
nodes = (
"445 500 OFFCURVE",
"411 562 OFFCURVE",
"411 685 CURVE",
"414 686 LINE",
"414 711 OFFCURVE",
"415 732 OFFCURVE",
"417 750 CURVE SMOOTH",
"419 768 OFFCURVE",
"423 786 OFFCURVE",
"430 804 CURVE SMOOTH",
"437 822 OFFCURVE",
"447 836 OFFCURVE",
"461 845 CURVE SMOOTH",
"475 854 OFFCURVE",
"493 859 OFFCURVE",
"515 859 CURVE SMOOTH",
"537 859 OFFCURVE",
"555 854 OFFCURVE",
"569 845 CURVE SMOOTH",
"583 836 OFFCURVE",
"593 822 OFFCURVE",
"599 804 CURVE SMOOTH",
"605 786 OFFCURVE",
"609 768 OFFCURVE",
"611 750 CURVE SMOOTH",
"613 732 OFFCURVE",
"614 710 OFFCURVE",
"614 685 CURVE SMOOTH",
"614 562 OFFCURVE",
"580 500 OFFCURVE",
"512 500 CURVE SMOOTH"
);
}
);
};
layerId = "BC722C43-F174-4026-9892-4620CE50CA16";
paths = (
{
closed = 1;
nodes = (
"776 803 OFFCURVE",
"962 952 OFFCURVE",
"962 1220 CURVE SMOOTH",
"962 1485 OFFCURVE",
"786 1623 OFFCURVE",
"516 1623 CURVE SMOOTH",
"250 1623 OFFCURVE",
"69 1488 OFFCURVE",
"69 1220 CURVE SMOOTH",
"69 954 OFFCURVE",
"251 803 OFFCURVE",
"515 803 CURVE SMOOTH"
);
},
{
closed = 1;
nodes = (
"444 1032 OFFCURVE",
"411 1093 OFFCURVE",
"414 1218 CURVE SMOOTH",
"416 1307 OFFCURVE",
"425 1391 OFFCURVE",
"515 1391 CURVE SMOOTH",
"603 1391 OFFCURVE",
"614 1313 OFFCURVE",
"614 1217 CURVE SMOOTH",
"614 1094 OFFCURVE",
"580 1032 OFFCURVE",
"512 1032 CURVE SMOOTH"
);
}
);
width = 1030;
},
{
associatedMasterId = "BC722C43-F174-4026-9892-4620CE50CA16";
layerId = "2ACFF92C-18D7-4BAB-A7F6-3D140AE7CE52";
name = "Regular Jul 5 16, 10:32";
paths = (
{
closed = 1;
nodes = (
"649 271 OFFCURVE",
"757 308 OFFCURVE",
"839 382 CURVE SMOOTH",
"921 456 OFFCURVE",
"962 558 OFFCURVE",
"962 688 CURVE SMOOTH",
"962 817 OFFCURVE",
"922 916 OFFCURVE",
"843 986 CURVE SMOOTH",
"764 1056 OFFCURVE",
"655 1091 OFFCURVE",
"516 1091 CURVE SMOOTH",
"378 1091 OFFCURVE",
"269 1056 OFFCURVE",
"189 986 CURVE SMOOTH",
"109 916 OFFCURVE",
"69 817 OFFCURVE",
"69 688 CURVE",
"68 688 LINE",
"68 558 OFFCURVE",
"109 456 OFFCURVE",
"191 382 CURVE SMOOTH",
"273 308 OFFCURVE",
"381 271 OFFCURVE",
"515 271 CURVE SMOOTH"
);
},
{
closed = 1;
nodes = (
"445 500 OFFCURVE",
"411 562 OFFCURVE",
"411 685 CURVE",
"414 686 LINE",
"414 711 OFFCURVE",
"415 732 OFFCURVE",
"417 750 CURVE SMOOTH",
"419 768 OFFCURVE",
"423 786 OFFCURVE",
"430 804 CURVE SMOOTH",
"437 822 OFFCURVE",
"447 836 OFFCURVE",
"461 845 CURVE SMOOTH",
"475 854 OFFCURVE",
"493 859 OFFCURVE",
"515 859 CURVE SMOOTH",
"537 859 OFFCURVE",
"555 854 OFFCURVE",
"569 845 CURVE SMOOTH",
"583 836 OFFCURVE",
"593 822 OFFCURVE",
"599 804 CURVE SMOOTH",
"605 786 OFFCURVE",
"609 768 OFFCURVE",
"611 750 CURVE SMOOTH",
"613 732 OFFCURVE",
"614 710 OFFCURVE",
"614 685 CURVE SMOOTH",
"614 562 OFFCURVE",
"580 500 OFFCURVE",
"512 500 CURVE SMOOTH"
);
}
);
width = 1030;
visible = 1;
}
);
unicode = 00BA;
},
{
glyphname = zero;
layers = (
{
background = {
paths = (
{
closed = 1;
nodes = (
"828 -27 OFFCURVE",
"942 4 OFFCURVE",
"1036 66 CURVE SMOOTH",
"1130 128 OFFCURVE",
"1199 212 OFFCURVE",
"1243 319 CURVE SMOOTH",
"1287 426 OFFCURVE",
"1309 551 OFFCURVE",
"1309 695 CURVE SMOOTH",
"1309 790 OFFCURVE",
"1294 878 OFFCURVE",
"1265 960 CURVE SMOOTH",
"1236 1042 OFFCURVE",
"1195 1113 OFFCURVE",
"1142 1173 CURVE SMOOTH",
"1089 1233 OFFCURVE",
"1024 1280 OFFCURVE",
"946 1314 CURVE SMOOTH",
"868 1348 OFFCURVE",
"783 1365 OFFCURVE",
"691 1366 CURVE SMOOTH",
"598 1365 OFFCURVE",
"512 1347 OFFCURVE",
"434 1313 CURVE SMOOTH",
"356 1279 OFFCURVE",
"291 1232 OFFCURVE",
"238 1172 CURVE SMOOTH",
"185 1112 OFFCURVE",
"144 1041 OFFCURVE",
"115 959 CURVE SMOOTH",
"86 877 OFFCURVE",
"71 789 OFFCURVE",
"71 694 CURVE",
"75 695 LINE",
"75 551 OFFCURVE",
"97 426 OFFCURVE",
"141 319 CURVE SMOOTH",
"185 212 OFFCURVE",
"254 128 OFFCURVE",
"348 66 CURVE SMOOTH",
"442 4 OFFCURVE",
"557 -27 OFFCURVE",
"693 -26 CURVE SMOOTH"
);
},
{
closed = 1;
nodes = (
"688 348 LINE",
"665 348 OFFCURVE",
"645 355 OFFCURVE",
"628 370 CURVE SMOOTH",
"611 385 OFFCURVE",
"598 403 OFFCURVE",
"589 424 CURVE SMOOTH",
"580 445 OFFCURVE",
"573 471 OFFCURVE",
"568 503 CURVE SMOOTH",
"563 535 OFFCURVE",
"560 563 OFFCURVE",
"559 586 CURVE SMOOTH",
"558 609 OFFCURVE",
"557 636 OFFCURVE",
"557 667 CURVE SMOOTH",
"557 695 LINE SMOOTH",
"556 716 OFFCURVE",
"556 738 OFFCURVE",
"557 761 CURVE SMOOTH",
"558 784 OFFCURVE",
"559 806 OFFCURVE",
"560 828 CURVE SMOOTH",
"561 850 OFFCURVE",
"565 871 OFFCURVE",
"571 891 CURVE SMOOTH",
"577 911 OFFCURVE",
"584 929 OFFCURVE",
"593 945 CURVE SMOOTH",
"602 961 OFFCURVE",
"615 973 OFFCURVE",
"631 982 CURVE SMOOTH",
"647 991 OFFCURVE",
"666 995 OFFCURVE",
"687 995 CURVE SMOOTH",
"706 995 OFFCURVE",
"722 992 OFFCURVE",
"736 985 CURVE SMOOTH",
"750 978 OFFCURVE",
"762 969 OFFCURVE",
"771 957 CURVE SMOOTH",
"780 945 OFFCURVE",
"788 931 OFFCURVE",
"795 915 CURVE SMOOTH",
"802 899 OFFCURVE",
"807 882 OFFCURVE",
"810 864 CURVE SMOOTH",
"813 846 OFFCURVE",
"815 827 OFFCURVE",
"817 807 CURVE SMOOTH",
"819 787 OFFCURVE",
"820 768 OFFCURVE",
"820 749 CURVE SMOOTH",
"820 693 LINE",
"820 665 LINE SMOOTH",
"820 626 OFFCURVE",
"819 591 OFFCURVE",
"817 561 CURVE SMOOTH",
"815 531 OFFCURVE",
"810 498 OFFCURVE",
"802 461 CURVE SMOOTH",
"794 424 OFFCURVE",
"780 395 OFFCURVE",
"761 374 CURVE SMOOTH",
"742 353 OFFCURVE",
"718 343 OFFCURVE",
"689 343 CURVE"
);
}
);
};
layerId = "BC722C43-F174-4026-9892-4620CE50CA16";
paths = (
{
closed = 1;
nodes = (
"1080 -26 OFFCURVE",
"1309 242 OFFCURVE",
"1309 695 CURVE SMOOTH",
"1309 1122 OFFCURVE",
"1079 1375 OFFCURVE",
"691 1375 CURVE SMOOTH",
"301 1375 OFFCURVE",
"71 1122 OFFCURVE",
"71 694 CURVE SMOOTH",
"71 241 OFFCURVE",
"302 -26 OFFCURVE",
"693 -26 CURVE SMOOTH"
);
},
{
closed = 1;
nodes = (
"688 348 CURVE SMOOTH",
"589 348 OFFCURVE",
"557 425 OFFCURVE",
"557 667 CURVE SMOOTH",
"557 915 OFFCURVE",
"590 995 OFFCURVE",
"692 995 CURVE SMOOTH",
"789 995 OFFCURVE",
"820 915 OFFCURVE",
"820 665 CURVE SMOOTH",
"820 425 OFFCURVE",
"788 348 OFFCURVE"
);
}
);
width = 1382;
},
{
associatedMasterId = "BC722C43-F174-4026-9892-4620CE50CA16";
background = {
paths = (
{
closed = 1;
nodes = (
"828 -27 OFFCURVE",
"942 4 OFFCURVE",
"1036 66 CURVE SMOOTH",
"1130 128 OFFCURVE",
"1199 212 OFFCURVE",
"1243 319 CURVE SMOOTH",
"1287 426 OFFCURVE",
"1309 551 OFFCURVE",
"1309 695 CURVE SMOOTH",
"1309 790 OFFCURVE",
"1294 878 OFFCURVE",
"1265 960 CURVE SMOOTH",
"1236 1042 OFFCURVE",
"1195 1113 OFFCURVE",
"1142 1173 CURVE SMOOTH",
"1089 1233 OFFCURVE",
"1024 1280 OFFCURVE",
"946 1314 CURVE SMOOTH",
"868 1348 OFFCURVE",
"783 1365 OFFCURVE",
"691 1366 CURVE SMOOTH",
"598 1365 OFFCURVE",
"512 1347 OFFCURVE",
"434 1313 CURVE SMOOTH",
"356 1279 OFFCURVE",
"291 1232 OFFCURVE",
"238 1172 CURVE SMOOTH",
"185 1112 OFFCURVE",
"144 1041 OFFCURVE",
"115 959 CURVE SMOOTH",
"86 877 OFFCURVE",
"71 789 OFFCURVE",
"71 694 CURVE",
"75 695 LINE",
"75 551 OFFCURVE",
"97 426 OFFCURVE",
"141 319 CURVE SMOOTH",
"185 212 OFFCURVE",
"254 128 OFFCURVE",
"348 66 CURVE SMOOTH",
"442 4 OFFCURVE",
"557 -27 OFFCURVE",
"693 -26 CURVE SMOOTH"
);
},
{
closed = 1;
nodes = (
"688 348 LINE",
"665 348 OFFCURVE",
"645 355 OFFCURVE",
"628 370 CURVE SMOOTH",
"611 385 OFFCURVE",
"598 403 OFFCURVE",
"589 424 CURVE SMOOTH",
"580 445 OFFCURVE",
"573 471 OFFCURVE",
"568 503 CURVE SMOOTH",
"563 535 OFFCURVE",
"560 563 OFFCURVE",
"559 586 CURVE SMOOTH",
"558 609 OFFCURVE",
"557 636 OFFCURVE",
"557 667 CURVE SMOOTH",
"557 695 LINE SMOOTH",
"556 716 OFFCURVE",
"556 738 OFFCURVE",
"557 761 CURVE SMOOTH",
"558 784 OFFCURVE",
"559 806 OFFCURVE",
"560 828 CURVE SMOOTH",
"561 850 OFFCURVE",
"565 871 OFFCURVE",
"571 891 CURVE SMOOTH",
"577 911 OFFCURVE",
"584 929 OFFCURVE",
"593 945 CURVE SMOOTH",
"602 961 OFFCURVE",
"615 973 OFFCURVE",
"631 982 CURVE SMOOTH",
"647 991 OFFCURVE",
"666 995 OFFCURVE",
"687 995 CURVE SMOOTH",
"706 995 OFFCURVE",
"722 992 OFFCURVE",
"736 985 CURVE SMOOTH",
"750 978 OFFCURVE",
"762 969 OFFCURVE",
"771 957 CURVE SMOOTH",
"780 945 OFFCURVE",
"788 931 OFFCURVE",
"795 915 CURVE SMOOTH",
"802 899 OFFCURVE",
"807 882 OFFCURVE",
"810 864 CURVE SMOOTH",
"813 846 OFFCURVE",
"815 827 OFFCURVE",
"817 807 CURVE SMOOTH",
"819 787 OFFCURVE",
"820 768 OFFCURVE",
"820 749 CURVE SMOOTH",
"820 693 LINE",
"820 665 LINE SMOOTH",
"820 626 OFFCURVE",
"819 591 OFFCURVE",
"817 561 CURVE SMOOTH",
"815 531 OFFCURVE",
"810 498 OFFCURVE",
"802 461 CURVE SMOOTH",
"794 424 OFFCURVE",
"780 395 OFFCURVE",
"761 374 CURVE SMOOTH",
"742 353 OFFCURVE",
"718 343 OFFCURVE",
"689 343 CURVE"
);
}
);
};
layerId = "D50EFC01-1BCC-42D1-BA11-F1C84ED15633";
name = "Regular Jul 5 16, 09:38";
paths = (
{
closed = 1;
nodes = (
"1078 -29 OFFCURVE",
"1309 234 OFFCURVE",
"1309 695 CURVE SMOOTH",
"1309 1125 OFFCURVE",
"1025 1362 OFFCURVE",
"691 1366 CURVE SMOOTH",
"598 1365 OFFCURVE",
"512 1347 OFFCURVE",
"434 1313 CURVE SMOOTH",
"210 1216 OFFCURVE",
"71 985 OFFCURVE",
"71 694 CURVE",
"75 695 LINE",
"75 238 OFFCURVE",
"302 -29 OFFCURVE",
"693 -26 CURVE SMOOTH"
);
},
{
closed = 1;
nodes = (
"688 348 LINE",
"564 348 OFFCURVE",
"557 555 OFFCURVE",
"557 667 CURVE SMOOTH",
"557 695 LINE SMOOTH",
"556 716 OFFCURVE",
"556 738 OFFCURVE",
"557 761 CURVE SMOOTH",
"560 824 OFFCURVE",
"555 995 OFFCURVE",
"687 995 CURVE SMOOTH",
"747 995 OFFCURVE",
"775 961 OFFCURVE",
"795 915 CURVE SMOOTH",
"813 874 OFFCURVE",
"820 799 OFFCURVE",
"820 749 CURVE SMOOTH",
"820 693 LINE",
"820 665 LINE SMOOTH",
"820 538 OFFCURVE",
"813 343 OFFCURVE",
"689 343 CURVE"
);
}
);
width = 1382;
}
);
unicode = 0030;
},
{
glyphname = one;
layers = (
{
layerId = "BC722C43-F174-4026-9892-4620CE50CA16";
paths = (
{
closed = 1;
nodes = (
"833 0 LINE",
"833 324 LINE",
"737 324 LINE",
"731 1375 LINE",
"69 1208 LINE",
"69 950 LINE",
"233 951 LINE",
"233 324 LINE",
"143 325 LINE",
"144 0 LINE"
);
}
);
width = 904;
}
);
unicode = 0031;
},
{
glyphname = two;
layers = (
{
background = {
paths = (
{
closed = 1;
nodes = (
"1257 0 LINE",
"1252 465 LINE",
"1079 465 LINE",
"1079 435 OFFCURVE",
"1073 410 OFFCURVE",
"1062 390 CURVE SMOOTH",
"1051 370 OFFCURVE",
"1035 355 OFFCURVE",
"1013 345 CURVE SMOOTH",
"991 335 OFFCURVE",
"969 328 OFFCURVE",
"946 324 CURVE SMOOTH",
"923 320 OFFCURVE",
"896 318 OFFCURVE",
"864 317 CURVE SMOOTH",
"703 317 LINE",
"761 360 OFFCURVE",
"804 392 OFFCURVE",
"831 413 CURVE SMOOTH",
"858 434 OFFCURVE",
"897 467 OFFCURVE",
"947 512 CURVE SMOOTH",
"997 557 OFFCURVE",
"1036 597 OFFCURVE",
"1063 632 CURVE SMOOTH",
"1134 723 OFFCURVE",
"1169 819 OFFCURVE",
"1169 921 CURVE SMOOTH",
"1169 992 OFFCURVE",
"1155 1056 OFFCURVE",
"1128 1114 CURVE SMOOTH",
"1101 1172 OFFCURVE",
"1064 1220 OFFCURVE",
"1016 1258 CURVE SMOOTH",
"968 1296 OFFCURVE",
"913 1325 OFFCURVE",
"850 1346 CURVE SMOOTH",
"787 1367 OFFCURVE",
"719 1379 OFFCURVE",
"646 1382 CURVE SMOOTH",
"592 1384 OFFCURVE",
"538 1380 OFFCURVE",
"484 1369 CURVE SMOOTH",
"430 1358 OFFCURVE",
"378 1340 OFFCURVE",
"329 1316 CURVE SMOOTH",
"280 1292 OFFCURVE",
"236 1263 OFFCURVE",
"198 1228 CURVE SMOOTH",
"160 1193 OFFCURVE",
"130 1151 OFFCURVE",
"107 1102 CURVE SMOOTH",
"84 1053 OFFCURVE",
"73 1001 OFFCURVE",
"74 945 CURVE SMOOTH",
"72 874 OFFCURVE",
"84 807 OFFCURVE",
"109 744 CURVE SMOOTH",
"134 681 OFFCURVE",
"172 627 OFFCURVE",
"223 582 CURVE",
"449 756 LINE",
"444 761 OFFCURVE",
"438 767 OFFCURVE",
"431 775 CURVE SMOOTH",
"424 783 OFFCURVE",
"415 798 OFFCURVE",
"404 821 CURVE SMOOTH",
"393 844 OFFCURVE",
"387 866 OFFCURVE",
"387 887 CURVE SMOOTH",
"387 928 OFFCURVE",
"399 962 OFFCURVE",
"422 989 CURVE SMOOTH",
"445 1016 OFFCURVE",
"478 1029 OFFCURVE",
"521 1029 CURVE SMOOTH",
"556 1029 OFFCURVE",
"587 1013 OFFCURVE",
"614 981 CURVE SMOOTH",
"641 949 OFFCURVE",
"656 908 OFFCURVE",
"659 857 CURVE",
"659 815 OFFCURVE",
"654 777 OFFCURVE",
"643 742 CURVE SMOOTH",
"632 707 OFFCURVE",
"615 674 OFFCURVE",
"591 643 CURVE SMOOTH",
"567 612 OFFCURVE",
"545 586 OFFCURVE",
"524 565 CURVE SMOOTH",
"503 544 OFFCURVE",
"474 518 OFFCURVE",
"436 486 CURVE SMOOTH",
"350 413 OFFCURVE",
"243 352 OFFCURVE",
"114 303 CURVE",
"114 0 LINE"
);
}
);
};
layerId = "BC722C43-F174-4026-9892-4620CE50CA16";
paths = (
{
closed = 1;
nodes = (
"1257 0 LINE",
"1252 465 LINE",
"1079 465 LINE",
"1079 334 OFFCURVE",
"966 320 OFFCURVE",
"864 317 CURVE SMOOTH",
"703 317 LINE",
"821 405 OFFCURVE",
"1169 625 OFFCURVE",
"1169 921 CURVE SMOOTH",
"1169 1187 OFFCURVE",
"947 1375 OFFCURVE",
"632 1375 CURVE SMOOTH",
"301 1375 OFFCURVE",
"69 1197 OFFCURVE",
"74 945 CURVE SMOOTH",
"70 813 OFFCURVE",
"132 663 OFFCURVE",
"223 582 CURVE",
"449 756 LINE",
"420 785 OFFCURVE",
"387 836 OFFCURVE",
"387 887 CURVE SMOOTH",
"387 966 OFFCURVE",
"432 1029 OFFCURVE",
"521 1029 CURVE SMOOTH",
"597 1029 OFFCURVE",
"659 951 OFFCURVE",
"659 857 CURVE SMOOTH",
"659 701 OFFCURVE",
"584 611 OFFCURVE",
"436 486 CURVE SMOOTH",
"350 413 OFFCURVE",
"243 352 OFFCURVE",
"114 303 CURVE",
"114 0 LINE"
);
}
);
width = 1329;
}
);
unicode = 0032;
},
{
glyphname = three;
layers = (
{
background = {
paths = (
{
closed = 1;
nodes = (
"774 -18 OFFCURVE",
"932 25 OFFCURVE",
"1048 110 CURVE SMOOTH",
"1164 195 OFFCURVE",
"1222 316 OFFCURVE",
"1222 473 CURVE SMOOTH",
"1222 566 OFFCURVE",
"1188 650 OFFCURVE",
"1119 725 CURVE SMOOTH",
"1050 800 OFFCURVE",
"968 842 OFFCURVE",
"872 851 CURVE",
"1061 1007 OFFCURVE",
"1156 1086 OFFCURVE",
"1156 1088 CURVE SMOOTH",
"1156 1352 LINE",
"87 1352 LINE",
"87 899 LINE",
"281 898 LINE",
"295 951 OFFCURVE",
"307 985 OFFCURVE",
"317 1000 CURVE SMOOTH",
"336 1027 OFFCURVE",
"370 1041 OFFCURVE",
"418 1041 CURVE SMOOTH",
"638 1041 LINE",
"638 1031 LINE",
"296 740 LINE",
"296 582 LINE",
"297 577 LINE",
"301 574 OFFCURVE",
"308 572 OFFCURVE",
"317 572 CURVE SMOOTH",
"321 572 OFFCURVE",
"337 575 OFFCURVE",
"364 582 CURVE SMOOTH",
"391 589 OFFCURVE",
"418 592 OFFCURVE",
"444 592 CURVE SMOOTH",
"474 592 OFFCURVE",
"503 589 OFFCURVE",
"530 584 CURVE SMOOTH",
"557 579 OFFCURVE",
"583 570 OFFCURVE",
"608 558 CURVE SMOOTH",
"633 546 OFFCURVE",
"653 529 OFFCURVE",
"668 506 CURVE SMOOTH",
"683 483 OFFCURVE",
"691 456 OFFCURVE",
"691 425 CURVE SMOOTH",
"691 398 OFFCURVE",
"684 375 OFFCURVE",
"670 355 CURVE SMOOTH",
"656 335 OFFCURVE",
"638 320 OFFCURVE",
"615 309 CURVE SMOOTH",
"592 298 OFFCURVE",
"568 290 OFFCURVE",
"544 285 CURVE SMOOTH",
"520 280 OFFCURVE",
"495 278 OFFCURVE",
"469 278 CURVE SMOOTH",
"343 278 OFFCURVE",
"220 327 OFFCURVE",
"99 424 CURVE",
"99 78 LINE",
"158 38 OFFCURVE",
"226 12 OFFCURVE",
"302 0 CURVE SMOOTH",
"378 -12 OFFCURVE",
"469 -18 OFFCURVE",
"574 -18 CURVE SMOOTH"
);
}
);
};
layerId = "BC722C43-F174-4026-9892-4620CE50CA16";
paths = (
{
closed = 1;
nodes = (
"935 -18 OFFCURVE",
"1222 130 OFFCURVE",
"1222 473 CURVE SMOOTH",
"1222 660 OFFCURVE",
"1066 833 OFFCURVE",
"872 851 CURVE",
"1156 1088 LINE",
"1156 1352 LINE",
"87 1352 LINE",
"87 899 LINE",
"281 898 LINE",
"306 991 OFFCURVE",
"317 1041 OFFCURVE",
"418 1041 CURVE SMOOTH",
"638 1041 LINE",
"638 1031 LINE",
"296 740 LINE",
"296 572 LINE",
"317 572 LINE",
"330 572 OFFCURVE",
"394 592 OFFCURVE",
"444 592 CURVE SMOOTH",
"560 592 OFFCURVE",
"691 553 OFFCURVE",
"691 425 CURVE SMOOTH",
"691 317 OFFCURVE",
"572 278 OFFCURVE",
"469 278 CURVE SMOOTH",
"343 278 OFFCURVE",
"220 327 OFFCURVE",
"99 424 CURVE",
"99 78 LINE",
"225 -8 OFFCURVE",
"390 -18 OFFCURVE",
"574 -18 CURVE SMOOTH"
);
}
);
width = 1297;
}
);
unicode = 0033;
},
{
glyphname = four;
layers = (
{
layerId = "BC722C43-F174-4026-9892-4620CE50CA16";
paths = (
{
closed = 1;
nodes = (
"1176 0 LINE",
"1176 288 LINE",
"1054 288 LINE",
"1054 420 LINE",
"1282 420 LINE",
"1282 677 LINE",
"1055 675 LINE",
"1055 1341 LINE",
"616 1342 LINE",
"65 688 LINE",
"65 419 LINE",
"598 420 LINE",
"598 288 LINE",
"471 288 LINE",
"471 0 LINE"
);
},
{
closed = 1;
nodes = (
"409 678 LINE",
"598 911 LINE",
"598 677 LINE"
);
}
);
width = 1340;
}
);
unicode = 0034;
},
{
glyphname = five;
layers = (
{
background = {
paths = (
{
closed = 1;
nodes = (
"526 -20 OFFCURVE",
"591 -14 OFFCURVE",
"652 -1 CURVE SMOOTH",
"713 12 OFFCURVE",
"770 32 OFFCURVE",
"823 60 CURVE SMOOTH",
"876 88 OFFCURVE",
"922 122 OFFCURVE",
"960 163 CURVE SMOOTH",
"998 204 OFFCURVE",
"1028 254 OFFCURVE",
"1050 313 CURVE SMOOTH",
"1072 372 OFFCURVE",
"1083 438 OFFCURVE",
"1083 511 CURVE SMOOTH",
"1083 634 OFFCURVE",
"1037 736 OFFCURVE",
"945 817 CURVE SMOOTH",
"853 898 OFFCURVE",
"741 939 OFFCURVE",
"608 939 CURVE SMOOTH",
"571 939 OFFCURVE",
"535 938 OFFCURVE",
"500 935 CURVE SMOOTH",
"465 932 OFFCURVE",
"439 929 OFFCURVE",
"422 926 CURVE SMOOTH",
"397 922 LINE",
"397 1061 LINE",
"1008 1061 LINE",
"1008 1358 LINE",
"92 1358 LINE",
"92 564 LINE",
"104 553 LINE",
"161 596 OFFCURVE",
"220 617 OFFCURVE",
"281 617 CURVE SMOOTH",
"320 617 OFFCURVE",
"358 612 OFFCURVE",
"395 601 CURVE SMOOTH",
"432 590 OFFCURVE",
"464 571 OFFCURVE",
"492 544 CURVE SMOOTH",
"520 517 OFFCURVE",
"534 484 OFFCURVE",
"534 445 CURVE SMOOTH",
"534 413 OFFCURVE",
"525 385 OFFCURVE",
"508 362 CURVE SMOOTH",
"491 339 OFFCURVE",
"469 322 OFFCURVE",
"443 311 CURVE SMOOTH",
"417 300 OFFCURVE",
"392 292 OFFCURVE",
"369 287 CURVE SMOOTH",
"346 282 OFFCURVE",
"325 280 OFFCURVE",
"306 280 CURVE SMOOTH",
"283 280 OFFCURVE",
"254 286 OFFCURVE",
"219 297 CURVE SMOOTH",
"184 308 OFFCURVE",
"154 319 OFFCURVE",
"130 330 CURVE SMOOTH",
"94 347 LINE",
"94 75 LINE",
"93 73 LINE",
"124 43 OFFCURVE",
"176 20 OFFCURVE",
"249 4 CURVE SMOOTH",
"322 -12 OFFCURVE",
"392 -20 OFFCURVE",
"458 -20 CURVE SMOOTH"
);
}
);
};
layerId = "BC722C43-F174-4026-9892-4620CE50CA16";
paths = (
{
closed = 1;
nodes = (
"830 -20 OFFCURVE",
"1083 167 OFFCURVE",
"1083 511 CURVE SMOOTH",
"1083 766 OFFCURVE",
"865 939 OFFCURVE",
"608 939 CURVE SMOOTH",
"541 939 OFFCURVE",
"458 932 OFFCURVE",
"397 922 CURVE",
"397 1061 LINE",
"1008 1061 LINE",
"1008 1358 LINE",
"92 1358 LINE",
"92 564 LINE",
"104 553 LINE",
"171 596 OFFCURVE",
"240 617 OFFCURVE",
"311 617 CURVE SMOOTH",
"429 617 OFFCURVE",
"534 554 OFFCURVE",
"534 445 CURVE SMOOTH",
"534 329 OFFCURVE",
"414 280 OFFCURVE",
"316 280 CURVE SMOOTH",
"241 280 OFFCURVE",
"171 303 OFFCURVE",
"94 347 CURVE",
"94 75 LINE",
"93 73 LINE",
"163 5 OFFCURVE",
"349 -20 OFFCURVE",
"458 -20 CURVE SMOOTH"
);
}
);
width = 1157;
}
);
unicode = 0035;
},
{
glyphname = six;
layers = (
{
background = {
paths = (
{
closed = 1;
nodes = (
"805 -19 OFFCURVE",
"906 5 OFFCURVE",
"1000 53 CURVE SMOOTH",
"1187 149 OFFCURVE",
"1314 329 OFFCURVE",
"1316 543 CURVE SMOOTH",
"1318 829 OFFCURVE",
"1129 1009 OFFCURVE",
"844 1023 CURVE",
"851 1041 OFFCURVE",
"879 1076 OFFCURVE",
"927 1128 CURVE SMOOTH",
"975 1180 OFFCURVE",
"1023 1229 OFFCURVE",
"1070 1275 CURVE SMOOTH",
"1117 1321 OFFCURVE",
"1140 1344 OFFCURVE",
"1140 1345 CURVE",
"604 1345 LINE",
"599 1346 LINE",
"590 1337 OFFCURVE",
"572 1319 OFFCURVE",
"545 1293 CURVE SMOOTH",
"518 1267 OFFCURVE",
"496 1246 OFFCURVE",
"480 1230 CURVE SMOOTH",
"464 1214 OFFCURVE",
"441 1191 OFFCURVE",
"412 1161 CURVE SMOOTH",
"383 1131 OFFCURVE",
"359 1105 OFFCURVE",
"340 1083 CURVE SMOOTH",
"321 1061 OFFCURVE",
"298 1034 OFFCURVE",
"272 1002 CURVE SMOOTH",
"246 970 OFFCURVE",
"224 941 OFFCURVE",
"207 914 CURVE SMOOTH",
"190 887 OFFCURVE",
"172 857 OFFCURVE",
"153 823 CURVE SMOOTH",
"134 789 OFFCURVE",
"119 757 OFFCURVE",
"108 727 CURVE SMOOTH",
"97 697 OFFCURVE",
"88 665 OFFCURVE",
"81 632 CURVE SMOOTH",
"74 599 OFFCURVE",
"70 566 OFFCURVE",
"70 534 CURVE SMOOTH",
"70 425 OFFCURVE",
"98 328 OFFCURVE",
"154 243 CURVE SMOOTH",
"210 158 OFFCURVE",
"286 93 OFFCURVE",
"381 48 CURVE SMOOTH",
"476 3 OFFCURVE",
"581 -19 OFFCURVE",
"697 -19 CURVE SMOOTH"
);
},
{
closed = 1;
nodes = (
"663 329 OFFCURVE",
"644 337 OFFCURVE",
"629 353 CURVE SMOOTH",
"614 369 OFFCURVE",
"603 390 OFFCURVE",
"597 416 CURVE SMOOTH",
"591 442 OFFCURVE",
"587 466 OFFCURVE",
"585 487 CURVE SMOOTH",
"583 508 OFFCURVE",
"582 529 OFFCURVE",
"582 551 CURVE SMOOTH",
"582 576 OFFCURVE",
"582 597 OFFCURVE",
"583 613 CURVE SMOOTH",
"584 629 OFFCURVE",
"587 648 OFFCURVE",
"591 671 CURVE SMOOTH",
"595 694 OFFCURVE",
"601 712 OFFCURVE",
"609 725 CURVE SMOOTH",
"617 738 OFFCURVE",
"629 750 OFFCURVE",
"644 760 CURVE SMOOTH",
"659 770 OFFCURVE",
"678 775 OFFCURVE",
"700 776 CURVE SMOOTH",
"720 776 OFFCURVE",
"737 770 OFFCURVE",
"751 757 CURVE SMOOTH",
"765 744 OFFCURVE",
"775 730 OFFCURVE",
"781 715 CURVE SMOOTH",
"787 700 OFFCURVE",
"792 679 OFFCURVE",
"796 653 CURVE SMOOTH",
"800 627 OFFCURVE",
"802 608 OFFCURVE",
"802 596 CURVE SMOOTH",
"802 546 LINE SMOOTH",
"802 401 OFFCURVE",
"763 329 OFFCURVE",
"686 329 CURVE SMOOTH"
);
}
);
};
layerId = "BC722C43-F174-4026-9892-4620CE50CA16";
paths = (
{
closed = 1;
nodes = (
"1086 -19 OFFCURVE",
"1316 269 OFFCURVE",
"1316 542 CURVE SMOOTH",
"1316 780 OFFCURVE",
"1177 1007 OFFCURVE",
"844 1023 CURVE",
"895 1094 OFFCURVE",
"1013 1218 OFFCURVE",
"1140 1345 CURVE",
"599 1345 LINE",
"315 1061 OFFCURVE",
"70 823 OFFCURVE",
"70 534 CURVE SMOOTH",
"70 169 OFFCURVE",
"380 -19 OFFCURVE",
"697 -19 CURVE SMOOTH"
);
},
{
closed = 1;
nodes = (
"619 329 OFFCURVE",
"582 402 OFFCURVE",
"582 551 CURVE SMOOTH",
"582 702 OFFCURVE",
"619 776 OFFCURVE",
"695 776 CURVE SMOOTH",
"767 776 OFFCURVE",
"802 700 OFFCURVE",
"802 546 CURVE SMOOTH",
"802 400 OFFCURVE",
"767 329 OFFCURVE",
"694 329 CURVE SMOOTH"
);
}
);
width = 1385;
},
{
associatedMasterId = "BC722C43-F174-4026-9892-4620CE50CA16";
layerId = "7699AB33-D367-4E70-BC75-D4BD213C956B";
name = "Regular Jul 5 16, 09:55";
paths = (
{
closed = 1;
nodes = (
"805 -19 OFFCURVE",
"906 5 OFFCURVE",
"1000 53 CURVE SMOOTH",
"1094 101 OFFCURVE",
"1170 168 OFFCURVE",
"1228 255 CURVE SMOOTH",
"1286 342 OFFCURVE",
"1315 438 OFFCURVE",
"1316 543 CURVE SMOOTH",
"1317 684 OFFCURVE",
"1275 797 OFFCURVE",
"1189 883 CURVE SMOOTH",
"1103 969 OFFCURVE",
"988 1016 OFFCURVE",
"844 1023 CURVE",
"851 1041 OFFCURVE",
"879 1076 OFFCURVE",
"927 1128 CURVE SMOOTH",
"975 1180 OFFCURVE",
"1023 1229 OFFCURVE",
"1070 1275 CURVE SMOOTH",
"1117 1321 OFFCURVE",
"1140 1344 OFFCURVE",
"1140 1345 CURVE",
"604 1345 LINE",
"599 1346 LINE",
"590 1337 OFFCURVE",
"572 1319 OFFCURVE",
"545 1293 CURVE SMOOTH",
"518 1267 OFFCURVE",
"496 1246 OFFCURVE",
"480 1230 CURVE SMOOTH",
"464 1214 OFFCURVE",
"441 1191 OFFCURVE",
"412 1161 CURVE SMOOTH",
"383 1131 OFFCURVE",
"359 1105 OFFCURVE",
"340 1083 CURVE SMOOTH",
"321 1061 OFFCURVE",
"298 1034 OFFCURVE",
"272 1002 CURVE SMOOTH",
"246 970 OFFCURVE",
"224 941 OFFCURVE",
"207 914 CURVE SMOOTH",
"190 887 OFFCURVE",
"172 857 OFFCURVE",
"153 823 CURVE SMOOTH",
"134 789 OFFCURVE",
"119 757 OFFCURVE",
"108 727 CURVE SMOOTH",
"97 697 OFFCURVE",
"88 665 OFFCURVE",
"81 632 CURVE SMOOTH",
"74 599 OFFCURVE",
"70 566 OFFCURVE",
"70 534 CURVE SMOOTH",
"70 425 OFFCURVE",
"98 328 OFFCURVE",
"154 243 CURVE SMOOTH",
"210 158 OFFCURVE",
"286 93 OFFCURVE",
"381 48 CURVE SMOOTH",
"476 3 OFFCURVE",
"581 -19 OFFCURVE",
"697 -19 CURVE SMOOTH"
);
},
{
closed = 1;
nodes = (
"663 329 OFFCURVE",
"644 337 OFFCURVE",
"629 353 CURVE SMOOTH",
"614 369 OFFCURVE",
"603 390 OFFCURVE",
"597 416 CURVE SMOOTH",
"591 442 OFFCURVE",
"587 466 OFFCURVE",
"585 487 CURVE SMOOTH",
"583 508 OFFCURVE",
"582 529 OFFCURVE",
"582 551 CURVE SMOOTH",
"582 576 OFFCURVE",
"582 597 OFFCURVE",
"583 613 CURVE SMOOTH",
"584 629 OFFCURVE",
"587 648 OFFCURVE",
"591 671 CURVE SMOOTH",
"595 694 OFFCURVE",
"601 712 OFFCURVE",
"609 725 CURVE SMOOTH",
"617 738 OFFCURVE",
"629 750 OFFCURVE",
"644 760 CURVE SMOOTH",
"659 770 OFFCURVE",
"678 775 OFFCURVE",
"700 776 CURVE SMOOTH",
"720 776 OFFCURVE",
"737 770 OFFCURVE",
"751 757 CURVE SMOOTH",
"765 744 OFFCURVE",
"775 730 OFFCURVE",
"781 715 CURVE SMOOTH",
"787 700 OFFCURVE",
"792 679 OFFCURVE",
"796 653 CURVE SMOOTH",
"800 627 OFFCURVE",
"802 608 OFFCURVE",
"802 596 CURVE SMOOTH",
"802 546 LINE SMOOTH",
"802 401 OFFCURVE",
"763 329 OFFCURVE",
"686 329 CURVE SMOOTH"
);
}
);
width = 1385;
visible = 1;
}
);
unicode = 0036;
},
{
glyphname = seven;
layers = (
{
layerId = "BC722C43-F174-4026-9892-4620CE50CA16";
paths = (
{
closed = 1;
nodes = (
"688 0 LINE",
"1214 1067 LINE",
"1214 1337 LINE",
"71 1337 LINE",
"71 878 LINE",
"289 877 LINE",
"289 976 OFFCURVE",
"315 1020 OFFCURVE",
"420 1020 CURVE SMOOTH",
"661 1020 LINE",
"156 0 LINE"
);
}
);
width = 1283;
}
);
unicode = 0037;
},
{
glyphname = eight;
layers = (
{
background = {
paths = (
{
closed = 1;
nodes = (
"729 -18 OFFCURVE",
"781 -15 OFFCURVE",
"831 -9 CURVE SMOOTH",
"881 -3 OFFCURVE",
"934 9 OFFCURVE",
"990 27 CURVE SMOOTH",
"1046 45 OFFCURVE",
"1094 68 OFFCURVE",
"1134 96 CURVE SMOOTH",
"1174 124 OFFCURVE",
"1207 162 OFFCURVE",
"1234 210 CURVE SMOOTH",
"1261 258 OFFCURVE",
"1274 313 OFFCURVE",
"1274 375 CURVE SMOOTH",
"1274 545 OFFCURVE",
"1187 663 OFFCURVE",
"1013 730 CURVE",
"1071 752 OFFCURVE",
"1116 788 OFFCURVE",
"1148 837 CURVE SMOOTH",
"1180 886 OFFCURVE",
"1196 944 OFFCURVE",
"1196 1010 CURVE SMOOTH",
"1196 1067 OFFCURVE",
"1184 1118 OFFCURVE",
"1160 1163 CURVE SMOOTH",
"1136 1208 OFFCURVE",
"1106 1243 OFFCURVE",
"1070 1269 CURVE SMOOTH",
"1034 1295 OFFCURVE",
"991 1316 OFFCURVE",
"942 1333 CURVE SMOOTH",
"893 1350 OFFCURVE",
"847 1361 OFFCURVE",
"804 1367 CURVE SMOOTH",
"761 1373 OFFCURVE",
"718 1376 OFFCURVE",
"675 1377 CURVE SMOOTH",
"630 1376 OFFCURVE",
"586 1373 OFFCURVE",
"543 1367 CURVE SMOOTH",
"500 1361 OFFCURVE",
"454 1350 OFFCURVE",
"405 1333 CURVE SMOOTH",
"356 1316 OFFCURVE",
"313 1294 OFFCURVE",
"277 1268 CURVE SMOOTH",
"241 1242 OFFCURVE",
"211 1206 OFFCURVE",
"187 1161 CURVE SMOOTH",
"163 1116 OFFCURVE",
"151 1065 OFFCURVE",
"151 1008 CURVE SMOOTH",
"151 942 OFFCURVE",
"167 884 OFFCURVE",
"199 835 CURVE SMOOTH",
"231 786 OFFCURVE",
"276 750 OFFCURVE",
"334 728 CURVE",
"160 661 OFFCURVE",
"73 543 OFFCURVE",
"73 373 CURVE",
"76 375 LINE",
"76 313 OFFCURVE",
"89 258 OFFCURVE",
"116 210 CURVE SMOOTH",
"143 162 OFFCURVE",
"176 124 OFFCURVE",
"216 96 CURVE SMOOTH",
"256 68 OFFCURVE",
"304 45 OFFCURVE",
"360 27 CURVE SMOOTH",
"416 9 OFFCURVE",
"469 -3 OFFCURVE",
"519 -9 CURVE SMOOTH",
"569 -15 OFFCURVE",
"621 -18 OFFCURVE",
"675 -18 CURVE SMOOTH"
);
},
{
closed = 1;
nodes = (
"620 238 OFFCURVE",
"593 293 OFFCURVE",
"593 404 CURVE SMOOTH",
"593 519 OFFCURVE",
"620 576 OFFCURVE",
"675 576 CURVE SMOOTH",
"727 576 OFFCURVE",
"753 519 OFFCURVE",
"753 404 CURVE SMOOTH",
"753 293 OFFCURVE",
"726 238 OFFCURVE",
"673 238 CURVE SMOOTH"
);
},
{
closed = 1;
nodes = (
"624 823 OFFCURVE",
"597 876 OFFCURVE",
"597 984 CURVE",
"593 984 LINE",
"593 1003 OFFCURVE",
"594 1019 OFFCURVE",
"596 1032 CURVE SMOOTH",
"598 1045 OFFCURVE",
"601 1059 OFFCURVE",
"606 1074 CURVE SMOOTH",
"611 1089 OFFCURVE",
"619 1100 OFFCURVE",
"631 1108 CURVE SMOOTH",
"643 1116 OFFCURVE",
"658 1120 OFFCURVE",
"677 1121 CURVE",
"693 1120 OFFCURVE",
"707 1116 OFFCURVE",
"719 1108 CURVE SMOOTH",
"731 1100 OFFCURVE",
"739 1089 OFFCURVE",
"744 1074 CURVE SMOOTH",
"749 1059 OFFCURVE",
"752 1045 OFFCURVE",
"754 1032 CURVE SMOOTH",
"756 1019 OFFCURVE",
"757 1003 OFFCURVE",
"757 984 CURVE SMOOTH",
"757 876 OFFCURVE",
"731 823 OFFCURVE",
"679 824 CURVE SMOOTH"
);
}
);
};
layerId = "BC722C43-F174-4026-9892-4620CE50CA16";
paths = (
{
closed = 1;
nodes = (
"989 -18 OFFCURVE",
"1274 87 OFFCURVE",
"1274 375 CURVE SMOOTH",
"1274 545 OFFCURVE",
"1187 663 OFFCURVE",
"1013 730 CURVE",
"1132 775 OFFCURVE",
"1196 881 OFFCURVE",
"1196 1010 CURVE SMOOTH",
"1196 1263 OFFCURVE",
"958 1375 OFFCURVE",
"677 1375 CURVE SMOOTH",
"371 1375 OFFCURVE",
"151 1252 OFFCURVE",
"151 1008 CURVE SMOOTH",
"151 879 OFFCURVE",
"215 773 OFFCURVE",
"334 728 CURVE",
"160 661 OFFCURVE",
"73 543 OFFCURVE",
"73 373 CURVE",
"76 375 LINE",
"76 94 OFFCURVE",
"348 -18 OFFCURVE",
"675 -18 CURVE SMOOTH"
);
},
{
closed = 1;
nodes = (
"616 238 OFFCURVE",
"593 285 OFFCURVE",
"593 404 CURVE SMOOTH",
"593 527 OFFCURVE",
"616 576 OFFCURVE",
"675 576 CURVE SMOOTH",
"731 576 OFFCURVE",
"753 527 OFFCURVE",
"753 404 CURVE SMOOTH",
"753 285 OFFCURVE",
"730 238 OFFCURVE",
"673 238 CURVE SMOOTH"
);
},
{
closed = 1;
nodes = (
"620 824 OFFCURVE",
"597 867 OFFCURVE",
"597 974 CURVE SMOOTH",
"597 1079 OFFCURVE",
"620 1121 OFFCURVE",
"677 1121 CURVE SMOOTH",
"734 1121 OFFCURVE",
"757 1079 OFFCURVE",
"757 974 CURVE SMOOTH",
"757 867 OFFCURVE",
"735 824 OFFCURVE",
"679 824 CURVE SMOOTH"
);
}
);
width = 1346;
},
{
associatedMasterId = "BC722C43-F174-4026-9892-4620CE50CA16";
layerId = "98728384-8934-4866-82C8-C2009F21C17D";
name = "Regular Jul 5 16, 09:56";
paths = (
{
closed = 1;
nodes = (
"729 -18 OFFCURVE",
"781 -15 OFFCURVE",
"831 -9 CURVE SMOOTH",
"881 -3 OFFCURVE",
"934 9 OFFCURVE",
"990 27 CURVE SMOOTH",
"1046 45 OFFCURVE",
"1094 68 OFFCURVE",
"1134 96 CURVE SMOOTH",
"1174 124 OFFCURVE",
"1207 162 OFFCURVE",
"1234 210 CURVE SMOOTH",
"1261 258 OFFCURVE",
"1274 313 OFFCURVE",
"1274 375 CURVE SMOOTH",
"1274 545 OFFCURVE",
"1187 663 OFFCURVE",
"1013 730 CURVE",
"1071 752 OFFCURVE",
"1116 788 OFFCURVE",
"1148 837 CURVE SMOOTH",
"1180 886 OFFCURVE",
"1196 944 OFFCURVE",
"1196 1010 CURVE SMOOTH",
"1196 1067 OFFCURVE",
"1184 1118 OFFCURVE",
"1160 1163 CURVE SMOOTH",
"1136 1208 OFFCURVE",
"1106 1243 OFFCURVE",
"1070 1269 CURVE SMOOTH",
"1034 1295 OFFCURVE",
"991 1316 OFFCURVE",
"942 1333 CURVE SMOOTH",
"893 1350 OFFCURVE",
"847 1361 OFFCURVE",
"804 1367 CURVE SMOOTH",
"761 1373 OFFCURVE",
"718 1376 OFFCURVE",
"675 1377 CURVE SMOOTH",
"630 1376 OFFCURVE",
"586 1373 OFFCURVE",
"543 1367 CURVE SMOOTH",
"500 1361 OFFCURVE",
"454 1350 OFFCURVE",
"405 1333 CURVE SMOOTH",
"356 1316 OFFCURVE",
"313 1294 OFFCURVE",
"277 1268 CURVE SMOOTH",
"241 1242 OFFCURVE",
"211 1206 OFFCURVE",
"187 1161 CURVE SMOOTH",
"163 1116 OFFCURVE",
"151 1065 OFFCURVE",
"151 1008 CURVE SMOOTH",
"151 942 OFFCURVE",
"167 884 OFFCURVE",
"199 835 CURVE SMOOTH",
"231 786 OFFCURVE",
"276 750 OFFCURVE",
"334 728 CURVE",
"160 661 OFFCURVE",
"73 543 OFFCURVE",
"73 373 CURVE",
"76 375 LINE",
"76 313 OFFCURVE",
"89 258 OFFCURVE",
"116 210 CURVE SMOOTH",
"143 162 OFFCURVE",
"176 124 OFFCURVE",
"216 96 CURVE SMOOTH",
"256 68 OFFCURVE",
"304 45 OFFCURVE",
"360 27 CURVE SMOOTH",
"416 9 OFFCURVE",
"469 -3 OFFCURVE",
"519 -9 CURVE SMOOTH",
"569 -15 OFFCURVE",
"621 -18 OFFCURVE",
"675 -18 CURVE SMOOTH"
);
},
{
closed = 1;
nodes = (
"620 238 OFFCURVE",
"593 293 OFFCURVE",
"593 404 CURVE SMOOTH",
"593 519 OFFCURVE",
"620 576 OFFCURVE",
"675 576 CURVE SMOOTH",
"727 576 OFFCURVE",
"753 519 OFFCURVE",
"753 404 CURVE SMOOTH",
"753 293 OFFCURVE",
"726 238 OFFCURVE",
"673 238 CURVE SMOOTH"
);
},
{
closed = 1;
nodes = (
"624 823 OFFCURVE",
"597 876 OFFCURVE",
"597 984 CURVE",
"593 984 LINE",
"593 1003 OFFCURVE",
"594 1019 OFFCURVE",
"596 1032 CURVE SMOOTH",
"598 1045 OFFCURVE",
"601 1059 OFFCURVE",
"606 1074 CURVE SMOOTH",
"611 1089 OFFCURVE",
"619 1100 OFFCURVE",
"631 1108 CURVE SMOOTH",
"643 1116 OFFCURVE",
"658 1120 OFFCURVE",
"677 1121 CURVE",
"693 1120 OFFCURVE",
"707 1116 OFFCURVE",
"719 1108 CURVE SMOOTH",
"731 1100 OFFCURVE",
"739 1089 OFFCURVE",
"744 1074 CURVE SMOOTH",
"749 1059 OFFCURVE",
"752 1045 OFFCURVE",
"754 1032 CURVE SMOOTH",
"756 1019 OFFCURVE",
"757 1003 OFFCURVE",
"757 984 CURVE SMOOTH",
"757 876 OFFCURVE",
"731 823 OFFCURVE",
"679 824 CURVE SMOOTH"
);
}
);
width = 1346;
visible = 1;
}
);
unicode = 0038;
},
{
glyphname = nine;
layers = (
{
background = {
paths = (
{
closed = 1;
nodes = (
"795 13 OFFCURVE",
"819 37 OFFCURVE",
"851 70 CURVE SMOOTH",
"883 103 OFFCURVE",
"911 132 OFFCURVE",
"935 156 CURVE SMOOTH",
"959 180 OFFCURVE",
"988 211 OFFCURVE",
"1022 248 CURVE SMOOTH",
"1056 285 OFFCURVE",
"1085 319 OFFCURVE",
"1110 350 CURVE SMOOTH",
"1135 381 OFFCURVE",
"1161 417 OFFCURVE",
"1188 458 CURVE SMOOTH",
"1215 499 OFFCURVE",
"1237 537 OFFCURVE",
"1254 573 CURVE SMOOTH",
"1271 609 OFFCURVE",
"1285 648 OFFCURVE",
"1296 690 CURVE SMOOTH",
"1307 732 OFFCURVE",
"1313 772 OFFCURVE",
"1313 811 CURVE SMOOTH",
"1313 916 OFFCURVE",
"1287 1011 OFFCURVE",
"1234 1096 CURVE SMOOTH",
"1181 1181 OFFCURVE",
"1108 1247 OFFCURVE",
"1015 1295 CURVE SMOOTH",
"922 1343 OFFCURVE",
"818 1367 OFFCURVE",
"703 1367 CURVE SMOOTH",
"515 1367 OFFCURVE",
"361 1312 OFFCURVE",
"241 1201 CURVE SMOOTH",
"121 1090 OFFCURVE",
"61 950 OFFCURVE",
"61 781 CURVE SMOOTH",
"61 650 OFFCURVE",
"107 541 OFFCURVE",
"200 453 CURVE SMOOTH",
"293 365 OFFCURVE",
"408 321 OFFCURVE",
"546 321 CURVE",
"519 286 OFFCURVE",
"480 242 OFFCURVE",
"429 189 CURVE SMOOTH",
"378 136 OFFCURVE",
"334 91 OFFCURVE",
"297 54 CURVE SMOOTH",
"242 0 LINE",
"780 -2 LINE"
);
},
{
closed = 1;
nodes = (
"619 571 OFFCURVE",
"583 641 OFFCURVE",
"583 780 CURVE SMOOTH",
"583 933 OFFCURVE",
"620 1010 OFFCURVE",
"694 1010 CURVE SMOOTH",
"714 1010 OFFCURVE",
"731 1001 OFFCURVE",
"745 984 CURVE SMOOTH",
"759 967 OFFCURVE",
"769 945 OFFCURVE",
"775 918 CURVE SMOOTH",
"781 891 OFFCURVE",
"785 867 OFFCURVE",
"787 846 CURVE SMOOTH",
"789 825 OFFCURVE",
"790 806 OFFCURVE",
"790 788 CURVE SMOOTH",
"790 643 OFFCURVE",
"757 571 OFFCURVE",
"692 571 CURVE SMOOTH"
);
}
);
};
layerId = "BC722C43-F174-4026-9892-4620CE50CA16";
paths = (
{
closed = 1;
nodes = (
"1099 317 OFFCURVE",
"1313 552 OFFCURVE",
"1313 811 CURVE SMOOTH",
"1313 1167 OFFCURVE",
"1014 1367 OFFCURVE",
"703 1367 CURVE SMOOTH",
"337 1367 OFFCURVE",
"61 1132 OFFCURVE",
"61 781 CURVE SMOOTH",
"61 516 OFFCURVE",
"271 321 OFFCURVE",
"546 321 CURVE",
"500 260 OFFCURVE",
"414 171 OFFCURVE",
"242 0 CURVE",
"780 -2 LINE"
);
},
{
closed = 1;
nodes = (
"613 571 OFFCURVE",
"583 634 OFFCURVE",
"583 791 CURVE SMOOTH",
"583 947 OFFCURVE",
"613 1010 OFFCURVE",
"687 1010 CURVE SMOOTH",
"761 1010 OFFCURVE",
"790 947 OFFCURVE",
"790 791 CURVE SMOOTH",
"790 634 OFFCURVE",
"761 571 OFFCURVE",
"687 571 CURVE SMOOTH"
);
}
);
width = 1375;
},
{
associatedMasterId = "BC722C43-F174-4026-9892-4620CE50CA16";
layerId = "799AC86A-013A-4E45-B748-F9BFA666AC78";
name = "Regular Jul 5 16, 09:58";
paths = (
{
closed = 1;
nodes = (
"795 13 OFFCURVE",
"819 37 OFFCURVE",
"851 70 CURVE SMOOTH",
"883 103 OFFCURVE",
"911 132 OFFCURVE",
"935 156 CURVE SMOOTH",
"959 180 OFFCURVE",
"988 211 OFFCURVE",
"1022 248 CURVE SMOOTH",
"1056 285 OFFCURVE",
"1085 319 OFFCURVE",
"1110 350 CURVE SMOOTH",
"1135 381 OFFCURVE",
"1161 417 OFFCURVE",
"1188 458 CURVE SMOOTH",
"1215 499 OFFCURVE",
"1237 537 OFFCURVE",
"1254 573 CURVE SMOOTH",
"1271 609 OFFCURVE",
"1285 648 OFFCURVE",
"1296 690 CURVE SMOOTH",
"1307 732 OFFCURVE",
"1313 772 OFFCURVE",
"1313 811 CURVE SMOOTH",
"1313 916 OFFCURVE",
"1287 1011 OFFCURVE",
"1234 1096 CURVE SMOOTH",
"1181 1181 OFFCURVE",
"1108 1247 OFFCURVE",
"1015 1295 CURVE SMOOTH",
"922 1343 OFFCURVE",
"818 1367 OFFCURVE",
"703 1367 CURVE SMOOTH",
"515 1367 OFFCURVE",
"361 1312 OFFCURVE",
"241 1201 CURVE SMOOTH",
"121 1090 OFFCURVE",
"61 950 OFFCURVE",
"61 781 CURVE SMOOTH",
"61 650 OFFCURVE",
"107 541 OFFCURVE",
"200 453 CURVE SMOOTH",
"293 365 OFFCURVE",
"408 321 OFFCURVE",
"546 321 CURVE",
"519 286 OFFCURVE",
"480 242 OFFCURVE",
"429 189 CURVE SMOOTH",
"378 136 OFFCURVE",
"334 91 OFFCURVE",
"297 54 CURVE SMOOTH",
"242 0 LINE",
"780 -2 LINE"
);
},
{
closed = 1;
nodes = (
"619 571 OFFCURVE",
"583 641 OFFCURVE",
"583 780 CURVE SMOOTH",
"583 933 OFFCURVE",
"620 1010 OFFCURVE",
"694 1010 CURVE SMOOTH",
"714 1010 OFFCURVE",
"731 1001 OFFCURVE",
"745 984 CURVE SMOOTH",
"759 967 OFFCURVE",
"769 945 OFFCURVE",
"775 918 CURVE SMOOTH",
"781 891 OFFCURVE",
"785 867 OFFCURVE",
"787 846 CURVE SMOOTH",
"789 825 OFFCURVE",
"790 806 OFFCURVE",
"790 788 CURVE SMOOTH",
"790 643 OFFCURVE",
"757 571 OFFCURVE",
"692 571 CURVE SMOOTH"
);
}
);
width = 1375;
}
);
unicode = 0039;
},
{
glyphname = onesuperior;
layers = (
{
layerId = "BC722C43-F174-4026-9892-4620CE50CA16";
paths = (
{
closed = 1;
nodes = (
"522 787 LINE",
"522 977 LINE",
"466 977 LINE",
"462 1592 LINE",
"75 1494 LINE",
"75 1343 LINE",
"171 1344 LINE",
"171 977 LINE",
"118 977 LINE",
"119 787 LINE"
);
}
);
width = 601;
}
);
unicode = 00B9;
},
{
glyphname = twosuperior;
layers = (
{
background = {
paths = (
{
closed = 1;
nodes = (
"793 286 LINE",
"793 570 LINE",
"689 570 LINE",
"689 536 OFFCURVE",
"677 513 OFFCURVE",
"654 501 CURVE SMOOTH",
"631 489 OFFCURVE",
"599 482 OFFCURVE",
"558 481 CURVE SMOOTH",
"461 481 LINE",
"571 564 OFFCURVE",
"643 627 OFFCURVE",
"677 671 CURVE SMOOTH",
"720 725 OFFCURVE",
"741 783 OFFCURVE",
"741 845 CURVE SMOOTH",
"741 929 OFFCURVE",
"711 995 OFFCURVE",
"652 1043 CURVE SMOOTH",
"593 1091 OFFCURVE",
"518 1117 OFFCURVE",
"427 1120 CURVE SMOOTH",
"372 1122 OFFCURVE",
"318 1113 OFFCURVE",
"266 1094 CURVE SMOOTH",
"214 1075 OFFCURVE",
"170 1044 OFFCURVE",
"134 1002 CURVE SMOOTH",
"98 960 OFFCURVE",
"80 911 OFFCURVE",
"80 856 CURVE",
"78 765 OFFCURVE",
"108 692 OFFCURVE",
"169 637 CURVE",
"306 742 LINE",
"281 765 OFFCURVE",
"268 791 OFFCURVE",
"268 819 CURVE SMOOTH",
"268 844 OFFCURVE",
"275 864 OFFCURVE",
"289 880 CURVE SMOOTH",
"303 896 OFFCURVE",
"323 904 OFFCURVE",
"349 904 CURVE SMOOTH",
"370 904 OFFCURVE",
"388 894 OFFCURVE",
"404 875 CURVE SMOOTH",
"420 856 OFFCURVE",
"429 831 OFFCURVE",
"431 800 CURVE",
"431 767 OFFCURVE",
"424 736 OFFCURVE",
"410 707 CURVE SMOOTH",
"396 678 OFFCURVE",
"381 655 OFFCURVE",
"365 639 CURVE SMOOTH",
"349 623 OFFCURVE",
"326 602 OFFCURVE",
"295 576 CURVE SMOOTH",
"243 533 OFFCURVE",
"178 496 OFFCURVE",
"101 465 CURVE",
"105 286 LINE"
);
}
);
};
layerId = "BC722C43-F174-4026-9892-4620CE50CA16";
paths = (
{
closed = 1;
nodes = (
"793 788 LINE",
"793 1072 LINE",
"689 1072 LINE",
"689 1004 OFFCURVE",
"638 983 OFFCURVE",
"558 983 CURVE SMOOTH",
"461 983 LINE",
"625 1107 OFFCURVE",
"741 1199 OFFCURVE",
"741 1347 CURVE SMOOTH",
"741 1539 OFFCURVE",
"599 1623 OFFCURVE",
"409 1623 CURVE SMOOTH",
"221 1623 OFFCURVE",
"80 1522 OFFCURVE",
"80 1350 CURVE SMOOTH",
"80 1262 OFFCURVE",
"110 1195 OFFCURVE",
"169 1139 CURVE",
"306 1244 LINE",
"281 1267 OFFCURVE",
"268 1293 OFFCURVE",
"268 1321 CURVE SMOOTH",
"268 1368 OFFCURVE",
"294 1406 OFFCURVE",
"349 1406 CURVE SMOOTH",
"394 1406 OFFCURVE",
"431 1360 OFFCURVE",
"431 1302 CURVE SMOOTH",
"431 1195 OFFCURVE",
"366 1136 OFFCURVE",
"295 1078 CURVE SMOOTH",
"243 1035 OFFCURVE",
"178 998 OFFCURVE",
"101 967 CURVE",
"105 788 LINE"
);
}
);
width = 873;
}
);
unicode = 00B2;
},
{
glyphname = threesuperior;
layers = (
{
layerId = "BC722C43-F174-4026-9892-4620CE50CA16";
paths = (
{
closed = 1;
nodes = (
"560 792 OFFCURVE",
"730 878 OFFCURVE",
"730 1080 CURVE SMOOTH",
"730 1189 OFFCURVE",
"642 1291 OFFCURVE",
"524 1301 CURVE",
"691 1439 LINE",
"691 1593 LINE",
"65 1593 LINE",
"65 1328 LINE",
"178 1327 LINE",
"194 1385 OFFCURVE",
"208 1410 OFFCURVE",
"258 1410 CURVE SMOOTH",
"386 1410 LINE",
"386 1404 LINE",
"186 1234 LINE",
"186 1136 LINE",
"198 1136 LINE",
"219 1142 OFFCURVE",
"249 1148 OFFCURVE",
"283 1148 CURVE SMOOTH",
"348 1148 OFFCURVE",
"419 1124 OFFCURVE",
"419 1050 CURVE SMOOTH",
"419 986 OFFCURVE",
"351 963 OFFCURVE",
"288 963 CURVE SMOOTH",
"214 963 OFFCURVE",
"142 992 OFFCURVE",
"71 1049 CURVE",
"72 1051 LINE",
"72 848 LINE",
"146 800 OFFCURVE",
"240 792 OFFCURVE",
"350 792 CURVE SMOOTH"
);
}
);
width = 820;
}
);
unicode = 00B3;
},
{
glyphname = foursuperior;
layers = (
{
layerId = "BC722C43-F174-4026-9892-4620CE50CA16";
paths = (
{
closed = 1;
nodes = (
"242 1202 LINE",
"353 1339 LINE",
"353 1201 LINE"
);
},
{
closed = 1;
nodes = (
"693 804 LINE",
"693 973 LINE",
"621 973 LINE",
"621 1050 LINE",
"755 1050 LINE",
"755 1201 LINE",
"622 1200 LINE",
"622 1592 LINE",
"364 1592 LINE",
"40 1208 LINE",
"40 1050 LINE",
"353 1050 LINE",
"353 973 LINE",
"279 973 LINE",
"279 804 LINE"
);
}
);
width = 795;
}
);
unicode = 2074;
},
{
glyphname = fraction;
layers = (
{
layerId = "BC722C43-F174-4026-9892-4620CE50CA16";
paths = (
{
closed = 1;
nodes = (
"-47 -2 LINE",
"455 1621 LINE",
"91 1621 LINE",
"-400 -2 LINE"
);
}
);
width = 55;
}
);
unicode = 2044;
},
{
glyphname = onehalf;
layers = (
{
components = (
{
alignment = -1;
name = fraction;
transform = "{1, 0, 0, 1, 778, 0}";
},
{
name = onesuperior;
transform = "{1, 0, 0, 1, -25, 31}";
},
{
name = twosuperior;
transform = "{1, 0, 0, 1, 973, -784}";
}
);
layerId = "BC722C43-F174-4026-9892-4620CE50CA16";
width = 1816;
},
{
associatedMasterId = "BC722C43-F174-4026-9892-4620CE50CA16";
layerId = "2EDDFFE6-9320-4953-9220-A6863895335A";
name = "Regular Jul 5 16, 09:40";
paths = (
{
closed = 1;
nodes = (
"699 0 LINE",
"1201 1623 LINE",
"837 1623 LINE",
"346 0 LINE"
);
},
{
closed = 1;
nodes = (
"504 818 LINE",
"504 1008 LINE",
"448 1008 LINE",
"444 1623 LINE",
"57 1525 LINE",
"57 1374 LINE",
"153 1375 LINE",
"153 1008 LINE",
"100 1008 LINE",
"101 818 LINE"
);
},
{
closed = 1;
nodes = (
"1724 -1 LINE",
"1724 283 LINE",
"1620 283 LINE",
"1620 249 OFFCURVE",
"1608 226 OFFCURVE",
"1585 214 CURVE SMOOTH",
"1562 202 OFFCURVE",
"1530 195 OFFCURVE",
"1489 194 CURVE SMOOTH",
"1392 194 LINE",
"1502 277 OFFCURVE",
"1574 340 OFFCURVE",
"1608 384 CURVE SMOOTH",
"1651 438 OFFCURVE",
"1672 496 OFFCURVE",
"1672 558 CURVE SMOOTH",
"1672 642 OFFCURVE",
"1642 708 OFFCURVE",
"1583 756 CURVE SMOOTH",
"1524 804 OFFCURVE",
"1449 830 OFFCURVE",
"1358 833 CURVE SMOOTH",
"1303 835 OFFCURVE",
"1249 826 OFFCURVE",
"1197 807 CURVE SMOOTH",
"1145 788 OFFCURVE",
"1101 757 OFFCURVE",
"1065 715 CURVE SMOOTH",
"1029 673 OFFCURVE",
"1011 624 OFFCURVE",
"1011 569 CURVE",
"1009 478 OFFCURVE",
"1039 405 OFFCURVE",
"1100 350 CURVE",
"1237 455 LINE",
"1212 478 OFFCURVE",
"1199 504 OFFCURVE",
"1199 532 CURVE SMOOTH",
"1199 557 OFFCURVE",
"1206 577 OFFCURVE",
"1220 593 CURVE SMOOTH",
"1234 609 OFFCURVE",
"1254 617 OFFCURVE",
"1280 617 CURVE SMOOTH",
"1301 617 OFFCURVE",
"1319 607 OFFCURVE",
"1335 588 CURVE SMOOTH",
"1351 569 OFFCURVE",
"1360 544 OFFCURVE",
"1362 513 CURVE",
"1362 480 OFFCURVE",
"1355 449 OFFCURVE",
"1341 420 CURVE SMOOTH",
"1327 391 OFFCURVE",
"1312 368 OFFCURVE",
"1296 352 CURVE SMOOTH",
"1280 336 OFFCURVE",
"1257 315 OFFCURVE",
"1226 289 CURVE SMOOTH",
"1174 246 OFFCURVE",
"1109 209 OFFCURVE",
"1032 178 CURVE",
"1036 -1 LINE"
);
}
);
width = 1790;
}
);
unicode = 00BD;
},
{
glyphname = onequarter;
layers = (
{
components = (
{
alignment = -1;
name = onesuperior;
transform = "{1, 0, 0, 1, -25, 31}";
},
{
alignment = -1;
name = fraction;
transform = "{1, 0, 0, 1, 772, 0}";
},
{
name = foursuperior;
transform = "{1, 0, 0, 1, 938, -804}";
}
);
layerId = "BC722C43-F174-4026-9892-4620CE50CA16";
width = 1743;
},
{
associatedMasterId = "BC722C43-F174-4026-9892-4620CE50CA16";
layerId = "4573FE74-97A3-481F-BFD1-7850E4E85A40";
name = "Regular Jul 5 16, 09:36";
paths = (
{
closed = 1;
nodes = (
"691 0 LINE",
"1193 1623 LINE",
"829 1623 LINE",
"338 0 LINE"
);
},
{
closed = 1;
nodes = (
"504 818 LINE",
"504 1008 LINE",
"448 1008 LINE",
"444 1623 LINE",
"57 1525 LINE",
"57 1374 LINE",
"153 1375 LINE",
"153 1008 LINE",
"100 1008 LINE",
"101 818 LINE"
);
},
{
closed = 1;
nodes = (
"1147 399 LINE",
"1258 536 LINE",
"1258 398 LINE"
);
},
{
closed = 1;
nodes = (
"1598 1 LINE",
"1598 170 LINE",
"1526 170 LINE",
"1526 247 LINE",
"1660 247 LINE",
"1660 398 LINE",
"1527 397 LINE",
"1527 788 LINE",
"1269 789 LINE",
"945 405 LINE",
"945 247 LINE",
"1258 247 LINE",
"1258 170 LINE",
"1184 170 LINE",
"1184 1 LINE"
);
}
);
width = 1726;
visible = 1;
}
);
unicode = 00BC;
},
{
glyphname = threequarters;
layers = (
{
background = {
paths = (
{
closed = 1;
nodes = (
"1105 -2 LINE",
"1607 1621 LINE",
"1243 1621 LINE",
"752 -2 LINE"
);
},
{
closed = 1;
nodes = (
"729 822 OFFCURVE",
"822 847 OFFCURVE",
"890 897 CURVE SMOOTH",
"958 947 OFFCURVE",
"992 1018 OFFCURVE",
"992 1110 CURVE SMOOTH",
"992 1165 OFFCURVE",
"972 1214 OFFCURVE",
"932 1258 CURVE SMOOTH",
"892 1302 OFFCURVE",
"843 1326 OFFCURVE",
"786 1331 CURVE",
"897 1422 OFFCURVE",
"953 1468 OFFCURVE",
"953 1469 CURVE SMOOTH",
"953 1623 LINE",
"327 1623 LINE",
"327 1358 LINE",
"440 1357 LINE",
"445 1375 OFFCURVE",
"448 1387 OFFCURVE",
"450 1393 CURVE SMOOTH",
"452 1399 OFFCURVE",
"456 1407 OFFCURVE",
"462 1417 CURVE SMOOTH",
"468 1427 OFFCURVE",
"475 1433 OFFCURVE",
"484 1436 CURVE SMOOTH",
"493 1439 OFFCURVE",
"505 1440 OFFCURVE",
"520 1440 CURVE SMOOTH",
"648 1440 LINE",
"648 1434 LINE",
"448 1264 LINE",
"448 1171 LINE",
"449 1168 LINE",
"451 1167 OFFCURVE",
"455 1166 OFFCURVE",
"460 1166 CURVE SMOOTH",
"463 1166 OFFCURVE",
"472 1168 OFFCURVE",
"488 1172 CURVE SMOOTH",
"504 1176 OFFCURVE",
"520 1178 OFFCURVE",
"535 1178 CURVE SMOOTH",
"574 1178 OFFCURVE",
"608 1170 OFFCURVE",
"637 1155 CURVE SMOOTH",
"666 1140 OFFCURVE",
"681 1115 OFFCURVE",
"681 1080 CURVE SMOOTH",
"681 1050 OFFCURVE",
"668 1028 OFFCURVE",
"641 1014 CURVE SMOOTH",
"614 1000 OFFCURVE",
"584 993 OFFCURVE",
"550 993 CURVE SMOOTH",
"476 993 OFFCURVE",
"404 1022 OFFCURVE",
"333 1079 CURVE",
"334 1081 LINE",
"334 878 LINE",
"369 855 OFFCURVE",
"409 840 OFFCURVE",
"453 833 CURVE SMOOTH",
"497 826 OFFCURVE",
"550 822 OFFCURVE",
"612 822 CURVE SMOOTH"
);
},
{
closed = 1;
nodes = (
"1513 395 LINE",
"1624 532 LINE",
"1624 394 LINE"
);
},
{
closed = 1;
nodes = (
"1964 -3 LINE",
"1964 166 LINE",
"1892 166 LINE",
"1892 243 LINE",
"2026 243 LINE",
"2026 394 LINE",
"1893 393 LINE",
"1893 784 LINE",
"1635 785 LINE",
"1311 401 LINE",
"1311 243 LINE",
"1624 243 LINE",
"1624 166 LINE",
"1550 166 LINE",
"1550 -3 LINE"
);
}
);
};
components = (
{
alignment = -1;
name = fraction;
transform = "{1, 0, 0, 1, 940, 0}";
},
{
name = threesuperior;
transform = "{1, 0, 0, 1, -15, 30}";
},
{
name = foursuperior;
transform = "{1, 0, 0, 1, 1117, -803}";
}
);
layerId = "BC722C43-F174-4026-9892-4620CE50CA16";
width = 1922;
},
{
associatedMasterId = "BC722C43-F174-4026-9892-4620CE50CA16";
layerId = "9ED008E2-E05E-4500-9E89-2A7B24D92C3F";
name = "Regular Jul 5 16, 09:32";
paths = (
{
closed = 1;
nodes = (
"843 -2 LINE",
"1345 1621 LINE",
"981 1621 LINE",
"490 -2 LINE"
);
},
{
closed = 1;
nodes = (
"467 822 OFFCURVE",
"560 847 OFFCURVE",
"628 897 CURVE SMOOTH",
"696 947 OFFCURVE",
"730 1018 OFFCURVE",
"730 1110 CURVE SMOOTH",
"730 1165 OFFCURVE",
"710 1214 OFFCURVE",
"670 1258 CURVE SMOOTH",
"630 1302 OFFCURVE",
"581 1326 OFFCURVE",
"524 1331 CURVE",
"635 1422 OFFCURVE",
"691 1468 OFFCURVE",
"691 1469 CURVE SMOOTH",
"691 1623 LINE",
"65 1623 LINE",
"65 1358 LINE",
"178 1357 LINE",
"183 1375 OFFCURVE",
"186 1387 OFFCURVE",
"188 1393 CURVE SMOOTH",
"190 1399 OFFCURVE",
"194 1407 OFFCURVE",
"200 1417 CURVE SMOOTH",
"206 1427 OFFCURVE",
"213 1433 OFFCURVE",
"222 1436 CURVE SMOOTH",
"231 1439 OFFCURVE",
"243 1440 OFFCURVE",
"258 1440 CURVE SMOOTH",
"386 1440 LINE",
"386 1434 LINE",
"186 1264 LINE",
"186 1171 LINE",
"187 1168 LINE",
"189 1167 OFFCURVE",
"193 1166 OFFCURVE",
"198 1166 CURVE SMOOTH",
"201 1166 OFFCURVE",
"210 1168 OFFCURVE",
"226 1172 CURVE SMOOTH",
"242 1176 OFFCURVE",
"258 1178 OFFCURVE",
"273 1178 CURVE SMOOTH",
"312 1178 OFFCURVE",
"346 1170 OFFCURVE",
"375 1155 CURVE SMOOTH",
"404 1140 OFFCURVE",
"419 1115 OFFCURVE",
"419 1080 CURVE SMOOTH",
"419 1050 OFFCURVE",
"406 1028 OFFCURVE",
"379 1014 CURVE SMOOTH",
"352 1000 OFFCURVE",
"322 993 OFFCURVE",
"288 993 CURVE SMOOTH",
"214 993 OFFCURVE",
"142 1022 OFFCURVE",
"71 1079 CURVE",
"72 1081 LINE",
"72 878 LINE",
"107 855 OFFCURVE",
"147 840 OFFCURVE",
"191 833 CURVE SMOOTH",
"235 826 OFFCURVE",
"288 822 OFFCURVE",
"350 822 CURVE SMOOTH"
);
},
{
closed = 1;
nodes = (
"1251 395 LINE",
"1362 532 LINE",
"1362 394 LINE"
);
},
{
closed = 1;
nodes = (
"1702 -3 LINE",
"1702 166 LINE",
"1630 166 LINE",
"1630 243 LINE",
"1764 243 LINE",
"1764 394 LINE",
"1631 393 LINE",
"1631 784 LINE",
"1373 785 LINE",
"1049 401 LINE",
"1049 243 LINE",
"1362 243 LINE",
"1362 166 LINE",
"1288 166 LINE",
"1288 -3 LINE"
);
}
);
width = 1830;
},
{
associatedMasterId = "BC722C43-F174-4026-9892-4620CE50CA16";
background = {
paths = (
{
closed = 1;
nodes = (
"843 -2 LINE",
"1345 1621 LINE",
"981 1621 LINE",
"490 -2 LINE"
);
},
{
closed = 1;
nodes = (
"467 822 OFFCURVE",
"560 847 OFFCURVE",
"628 897 CURVE SMOOTH",
"696 947 OFFCURVE",
"730 1018 OFFCURVE",
"730 1110 CURVE SMOOTH",
"730 1165 OFFCURVE",
"710 1214 OFFCURVE",
"670 1258 CURVE SMOOTH",
"630 1302 OFFCURVE",
"581 1326 OFFCURVE",
"524 1331 CURVE",
"635 1422 OFFCURVE",
"691 1468 OFFCURVE",
"691 1469 CURVE SMOOTH",
"691 1623 LINE",
"65 1623 LINE",
"65 1358 LINE",
"178 1357 LINE",
"183 1375 OFFCURVE",
"186 1387 OFFCURVE",
"188 1393 CURVE SMOOTH",
"190 1399 OFFCURVE",
"194 1407 OFFCURVE",
"200 1417 CURVE SMOOTH",
"206 1427 OFFCURVE",
"213 1433 OFFCURVE",
"222 1436 CURVE SMOOTH",
"231 1439 OFFCURVE",
"243 1440 OFFCURVE",
"258 1440 CURVE SMOOTH",
"386 1440 LINE",
"386 1434 LINE",
"186 1264 LINE",
"186 1171 LINE",
"187 1168 LINE",
"189 1167 OFFCURVE",
"193 1166 OFFCURVE",
"198 1166 CURVE SMOOTH",
"201 1166 OFFCURVE",
"210 1168 OFFCURVE",
"226 1172 CURVE SMOOTH",
"242 1176 OFFCURVE",
"258 1178 OFFCURVE",
"273 1178 CURVE SMOOTH",
"312 1178 OFFCURVE",
"346 1170 OFFCURVE",
"375 1155 CURVE SMOOTH",
"404 1140 OFFCURVE",
"419 1115 OFFCURVE",
"419 1080 CURVE SMOOTH",
"419 1050 OFFCURVE",
"406 1028 OFFCURVE",
"379 1014 CURVE SMOOTH",
"352 1000 OFFCURVE",
"322 993 OFFCURVE",
"288 993 CURVE SMOOTH",
"214 993 OFFCURVE",
"142 1022 OFFCURVE",
"71 1079 CURVE",
"72 1081 LINE",
"72 878 LINE",
"107 855 OFFCURVE",
"147 840 OFFCURVE",
"191 833 CURVE SMOOTH",
"235 826 OFFCURVE",
"288 822 OFFCURVE",
"350 822 CURVE SMOOTH"
);
},
{
closed = 1;
nodes = (
"1251 395 LINE",
"1362 532 LINE",
"1362 394 LINE"
);
},
{
closed = 1;
nodes = (
"1702 -3 LINE",
"1702 166 LINE",
"1630 166 LINE",
"1630 243 LINE",
"1764 243 LINE",
"1764 394 LINE",
"1631 393 LINE",
"1631 784 LINE",
"1373 785 LINE",
"1049 401 LINE",
"1049 243 LINE",
"1362 243 LINE",
"1362 166 LINE",
"1288 166 LINE",
"1288 -3 LINE"
);
}
);
};
layerId = "6B2090A2-B613-487A-B0FE-9243827645CE";
name = "Regular Jul 5 16, 09:44";
paths = (
{
closed = 1;
nodes = (
"843 -2 LINE",
"1345 1621 LINE",
"981 1621 LINE",
"490 -2 LINE"
);
},
{
closed = 1;
nodes = (
"560 822 OFFCURVE",
"730 908 OFFCURVE",
"730 1110 CURVE SMOOTH",
"730 1219 OFFCURVE",
"642 1321 OFFCURVE",
"524 1331 CURVE",
"691 1469 LINE",
"691 1623 LINE",
"65 1623 LINE",
"65 1358 LINE",
"178 1357 LINE",
"194 1415 OFFCURVE",
"208 1440 OFFCURVE",
"258 1440 CURVE SMOOTH",
"386 1440 LINE",
"386 1434 LINE",
"186 1264 LINE",
"186 1166 LINE",
"198 1166 LINE",
"219 1172 OFFCURVE",
"249 1178 OFFCURVE",
"283 1178 CURVE SMOOTH",
"348 1178 OFFCURVE",
"419 1154 OFFCURVE",
"419 1080 CURVE SMOOTH",
"419 1016 OFFCURVE",
"351 993 OFFCURVE",
"288 993 CURVE SMOOTH",
"214 993 OFFCURVE",
"142 1022 OFFCURVE",
"71 1079 CURVE",
"72 1081 LINE",
"72 878 LINE",
"146 830 OFFCURVE",
"240 822 OFFCURVE",
"350 822 CURVE SMOOTH"
);
},
{
closed = 1;
nodes = (
"1251 395 LINE",
"1362 532 LINE",
"1362 394 LINE"
);
},
{
closed = 1;
nodes = (
"1702 -3 LINE",
"1702 166 LINE",
"1630 166 LINE",
"1630 243 LINE",
"1764 243 LINE",
"1764 394 LINE",
"1631 393 LINE",
"1631 784 LINE",
"1373 785 LINE",
"1049 401 LINE",
"1049 243 LINE",
"1362 243 LINE",
"1362 166 LINE",
"1288 166 LINE",
"1288 -3 LINE"
);
}
);
width = 1830;
visible = 1;
}
);
unicode = 00BE;
},
{
glyphname = asterisk;
layers = (
{
layerId = "BC722C43-F174-4026-9892-4620CE50CA16";
paths = (
{
closed = 1;
nodes = (
"662 242 OFFCURVE",
"700 258 OFFCURVE",
"732 290 CURVE SMOOTH",
"764 322 OFFCURVE",
"780 366 OFFCURVE",
"780 422 CURVE SMOOTH",
"780 449 OFFCURVE",
"777 480 OFFCURVE",
"770 516 CURVE SMOOTH",
"763 552 OFFCURVE",
"757 581 OFFCURVE",
"751 602 CURVE SMOOTH",
"745 623 OFFCURVE",
"735 658 OFFCURVE",
"720 708 CURVE SMOOTH",
"705 758 OFFCURVE",
"696 787 OFFCURVE",
"693 796 CURVE",
"701 787 OFFCURVE",
"721 763 OFFCURVE",
"753 725 CURVE SMOOTH",
"785 687 OFFCURVE",
"809 659 OFFCURVE",
"825 641 CURVE SMOOTH",
"841 623 OFFCURVE",
"862 601 OFFCURVE",
"889 576 CURVE SMOOTH",
"916 551 OFFCURVE",
"940 531 OFFCURVE",
"962 516 CURVE",
"1013 486 OFFCURVE",
"1060 475 OFFCURVE",
"1102 484 CURVE SMOOTH",
"1144 493 OFFCURVE",
"1177 516 OFFCURVE",
"1200 553 CURVE SMOOTH",
"1215 576 OFFCURVE",
"1224 601 OFFCURVE",
"1226 628 CURVE SMOOTH",
"1228 655 OFFCURVE",
"1222 683 OFFCURVE",
"1207 712 CURVE SMOOTH",
"1192 741 OFFCURVE",
"1169 766 OFFCURVE",
"1138 787 CURVE SMOOTH",
"1106 808 OFFCURVE",
"1067 827 OFFCURVE",
"1021 845 CURVE SMOOTH",
"975 863 OFFCURVE",
"921 881 OFFCURVE",
"859 899 CURVE SMOOTH",
"797 917 OFFCURVE",
"755 930 OFFCURVE",
"733 938 CURVE",
"752 945 OFFCURVE",
"793 958 OFFCURVE",
"856 977 CURVE SMOOTH",
"919 996 OFFCURVE",
"973 1014 OFFCURVE",
"1019 1031 CURVE SMOOTH",
"1065 1048 OFFCURVE",
"1104 1067 OFFCURVE",
"1136 1088 CURVE SMOOTH",
"1167 1109 OFFCURVE",
"1190 1134 OFFCURVE",
"1205 1163 CURVE SMOOTH",
"1220 1192 OFFCURVE",
"1226 1220 OFFCURVE",
"1224 1247 CURVE SMOOTH",
"1222 1274 OFFCURVE",
"1213 1299 OFFCURVE",
"1198 1322 CURVE SMOOTH",
"1175 1359 OFFCURVE",
"1142 1382 OFFCURVE",
"1100 1391 CURVE SMOOTH",
"1058 1400 OFFCURVE",
"1011 1389 OFFCURVE",
"960 1359 CURVE",
"938 1344 OFFCURVE",
"914 1324 OFFCURVE",
"888 1299 CURVE SMOOTH",
"862 1274 OFFCURVE",
"840 1252 OFFCURVE",
"823 1233 CURVE SMOOTH",
"806 1214 OFFCURVE",
"783 1187 OFFCURVE",
"753 1151 CURVE SMOOTH",
"723 1115 OFFCURVE",
"703 1091 OFFCURVE",
"693 1080 CURVE",
"697 1093 OFFCURVE",
"704 1116 OFFCURVE",
"714 1150 CURVE SMOOTH",
"724 1184 OFFCURVE",
"732 1211 OFFCURVE",
"738 1231 CURVE SMOOTH",
"744 1251 OFFCURVE",
"750 1275 OFFCURVE",
"757 1304 CURVE SMOOTH",
"764 1333 OFFCURVE",
"769 1360 OFFCURVE",
"772 1385 CURVE SMOOTH",
"775 1410 OFFCURVE",
"777 1433 OFFCURVE",
"777 1454 CURVE SMOOTH",
"777 1510 OFFCURVE",
"761 1554 OFFCURVE",
"729 1586 CURVE SMOOTH",
"697 1618 OFFCURVE",
"659 1634 OFFCURVE",
"616 1634 CURVE SMOOTH",
"573 1634 OFFCURVE",
"535 1618 OFFCURVE",
"503 1586 CURVE SMOOTH",
"471 1554 OFFCURVE",
"455 1510 OFFCURVE",
"455 1454 CURVE SMOOTH",
"455 1427 OFFCURVE",
"458 1396 OFFCURVE",
"465 1360 CURVE SMOOTH",
"472 1324 OFFCURVE",
"478 1295 OFFCURVE",
"484 1272 CURVE SMOOTH",
"490 1249 OFFCURVE",
"500 1214 OFFCURVE",
"514 1166 CURVE SMOOTH",
"528 1118 OFFCURVE",
"537 1089 OFFCURVE",
"540 1078 CURVE",
"533 1086 OFFCURVE",
"513 1109 OFFCURVE",
"481 1148 CURVE SMOOTH",
"449 1187 OFFCURVE",
"425 1215 OFFCURVE",
"410 1232 CURVE SMOOTH",
"395 1249 OFFCURVE",
"374 1270 OFFCURVE",
"347 1296 CURVE SMOOTH",
"320 1322 OFFCURVE",
"296 1342 OFFCURVE",
"274 1357 CURVE",
"223 1387 OFFCURVE",
"176 1398 OFFCURVE",
"134 1389 CURVE SMOOTH",
"92 1380 OFFCURVE",
"59 1357 OFFCURVE",
"36 1320 CURVE",
"46 1328 LINE",
"31 1305 OFFCURVE",
"22 1280 OFFCURVE",
"20 1253 CURVE SMOOTH",
"18 1226 OFFCURVE",
"24 1198 OFFCURVE",
"39 1169 CURVE SMOOTH",
"54 1140 OFFCURVE",
"77 1115 OFFCURVE",
"108 1094 CURVE SMOOTH",
"140 1073 OFFCURVE",
"179 1054 OFFCURVE",
"224 1037 CURVE SMOOTH",
"269 1020 OFFCURVE",
"323 1002 OFFCURVE",
"386 983 CURVE SMOOTH",
"449 964 OFFCURVE",
"490 951 OFFCURVE",
"509 944 CURVE",
"488 937 OFFCURVE",
"446 924 OFFCURVE",
"384 906 CURVE SMOOTH",
"322 888 OFFCURVE",
"268 870 OFFCURVE",
"222 852 CURVE SMOOTH",
"176 834 OFFCURVE",
"137 815 OFFCURVE",
"105 794 CURVE SMOOTH",
"74 773 OFFCURVE",
"51 748 OFFCURVE",
"36 719 CURVE SMOOTH",
"21 690 OFFCURVE",
"15 662 OFFCURVE",
"17 635 CURVE SMOOTH",
"19 608 OFFCURVE",
"28 583 OFFCURVE",
"43 560 CURVE SMOOTH",
"66 523 OFFCURVE",
"99 500 OFFCURVE",
"141 491 CURVE SMOOTH",
"183 482 OFFCURVE",
"230 493 OFFCURVE",
"281 523 CURVE",
"303 538 OFFCURVE",
"328 558 OFFCURVE",
"355 584 CURVE SMOOTH",
"382 610 OFFCURVE",
"402 630 OFFCURVE",
"415 645 CURVE SMOOTH",
"428 660 OFFCURVE",
"452 689 OFFCURVE",
"487 731 CURVE SMOOTH",
"522 773 OFFCURVE",
"541 796 OFFCURVE",
"544 800 CURVE",
"540 787 OFFCURVE",
"531 757 OFFCURVE",
"517 711 CURVE SMOOTH",
"503 665 OFFCURVE",
"493 630 OFFCURVE",
"487 606 CURVE SMOOTH",
"481 582 OFFCURVE",
"475 552 OFFCURVE",
"468 516 CURVE SMOOTH",
"461 480 OFFCURVE",
"458 449 OFFCURVE",
"458 422 CURVE SMOOTH",
"458 366 OFFCURVE",
"474 322 OFFCURVE",
"506 290 CURVE SMOOTH",
"538 258 OFFCURVE",
"576 242 OFFCURVE",
"619 242 CURVE SMOOTH"
);
}
);
width = 1243;
}
);
unicode = 002A;
},
{
glyphname = backslash;
layers = (
{
layerId = "BC722C43-F174-4026-9892-4620CE50CA16";
paths = (
{
closed = 1;
nodes = (
"931 0 LINE",
"590 1623 LINE",
"16 1623 LINE",
"358 0 LINE"
);
}
);
width = 947;
}
);
unicode = 005C;
},
{
glyphname = periodcentered;
layers = (
{
layerId = "BC722C43-F174-4026-9892-4620CE50CA16";
paths = (
{
closed = 1;
nodes = (
"329 514 LINE",
"410 514 OFFCURVE",
"478 536 OFFCURVE",
"533 581 CURVE SMOOTH",
"588 626 OFFCURVE",
"615 687 OFFCURVE",
"615 764 CURVE SMOOTH",
"615 839 OFFCURVE",
"588 899 OFFCURVE",
"535 943 CURVE SMOOTH",
"482 987 OFFCURVE",
"413 1009 OFFCURVE",
"328 1009 CURVE SMOOTH",
"247 1009 OFFCURVE",
"180 987 OFFCURVE",
"128 943 CURVE SMOOTH",
"76 899 OFFCURVE",
"50 839 OFFCURVE",
"50 764 CURVE SMOOTH",
"50 687 OFFCURVE",
"76 626 OFFCURVE",
"129 581 CURVE SMOOTH",
"182 536 OFFCURVE",
"248 513 OFFCURVE",
"327 513 CURVE"
);
}
);
width = 670;
}
);
unicode = 00B7;
},
{
glyphname = bullet;
layers = (
{
layerId = "BC722C43-F174-4026-9892-4620CE50CA16";
paths = (
{
closed = 1;
nodes = (
"497 140 OFFCURVE",
"546 148 OFFCURVE",
"593 165 CURVE SMOOTH",
"640 182 OFFCURVE",
"682 206 OFFCURVE",
"720 238 CURVE SMOOTH",
"758 270 OFFCURVE",
"788 312 OFFCURVE",
"811 364 CURVE SMOOTH",
"834 416 OFFCURVE",
"845 473 OFFCURVE",
"845 536 CURVE SMOOTH",
"845 597 OFFCURVE",
"833 652 OFFCURVE",
"810 702 CURVE SMOOTH",
"787 752 OFFCURVE",
"756 792 OFFCURVE",
"718 823 CURVE SMOOTH",
"680 854 OFFCURVE",
"637 877 OFFCURVE",
"590 893 CURVE SMOOTH",
"543 909 OFFCURVE",
"494 917 OFFCURVE",
"443 917 CURVE SMOOTH",
"393 917 OFFCURVE",
"345 909 OFFCURVE",
"299 893 CURVE SMOOTH",
"253 877 OFFCURVE",
"212 854 OFFCURVE",
"175 824 CURVE SMOOTH",
"138 794 OFFCURVE",
"108 755 OFFCURVE",
"86 707 CURVE SMOOTH",
"64 659 OFFCURVE",
"53 605 OFFCURVE",
"53 546 CURVE",
"57 537 LINE",
"57 473 OFFCURVE",
"68 415 OFFCURVE",
"89 364 CURVE SMOOTH",
"110 313 OFFCURVE",
"139 271 OFFCURVE",
"176 239 CURVE SMOOTH",
"213 207 OFFCURVE",
"254 183 OFFCURVE",
"300 166 CURVE SMOOTH",
"346 149 OFFCURVE",
"395 140 OFFCURVE",
"446 140 CURVE SMOOTH"
);
}
);
width = 899;
}
);
unicode = 2022;
},
{
glyphname = colon;
layers = (
{
layerId = "BC722C43-F174-4026-9892-4620CE50CA16";
paths = (
{
closed = 1;
nodes = (
"312 596 LINE",
"393 596 OFFCURVE",
"461 618 OFFCURVE",
"516 663 CURVE SMOOTH",
"571 708 OFFCURVE",
"598 769 OFFCURVE",
"598 846 CURVE SMOOTH",
"598 921 OFFCURVE",
"571 981 OFFCURVE",
"518 1025 CURVE SMOOTH",
"465 1069 OFFCURVE",
"396 1091 OFFCURVE",
"311 1091 CURVE SMOOTH",
"230 1091 OFFCURVE",
"163 1069 OFFCURVE",
"111 1025 CURVE SMOOTH",
"59 981 OFFCURVE",
"33 921 OFFCURVE",
"33 846 CURVE SMOOTH",
"33 769 OFFCURVE",
"59 708 OFFCURVE",
"112 663 CURVE SMOOTH",
"165 618 OFFCURVE",
"231 595 OFFCURVE",
"310 595 CURVE"
);
},
{
closed = 1;
nodes = (
"310 -19 LINE",
"391 -19 OFFCURVE",
"459 3 OFFCURVE",
"514 48 CURVE SMOOTH",
"569 93 OFFCURVE",
"596 154 OFFCURVE",
"596 231 CURVE SMOOTH",
"596 306 OFFCURVE",
"569 366 OFFCURVE",
"516 410 CURVE SMOOTH",
"463 454 OFFCURVE",
"394 476 OFFCURVE",
"309 476 CURVE SMOOTH",
"228 476 OFFCURVE",
"161 454 OFFCURVE",
"109 410 CURVE SMOOTH",
"57 366 OFFCURVE",
"31 306 OFFCURVE",
"31 231 CURVE SMOOTH",
"31 154 OFFCURVE",
"57 93 OFFCURVE",
"110 48 CURVE SMOOTH",
"163 3 OFFCURVE",
"229 -20 OFFCURVE",
"308 -20 CURVE"
);
}
);
width = 629;
}
);
unicode = 003A;
},
{
glyphname = comma;
layers = (
{
layerId = "BC722C43-F174-4026-9892-4620CE50CA16";
paths = (
{
closed = 1;
nodes = (
"220 -448 OFFCURVE",
"355 -405 OFFCURVE",
"442 -319 CURVE SMOOTH",
"529 -233 OFFCURVE",
"572 -97 OFFCURVE",
"572 88 CURVE SMOOTH",
"572 170 OFFCURVE",
"564 262 OFFCURVE",
"548 365 CURVE",
"38 365 LINE",
"38 -1 LINE",
"227 -1 LINE",
"227 -29 OFFCURVE",
"227 -51 OFFCURVE",
"226 -66 CURVE SMOOTH",
"225 -81 OFFCURVE",
"223 -99 OFFCURVE",
"219 -119 CURVE SMOOTH",
"215 -139 OFFCURVE",
"209 -154 OFFCURVE",
"201 -165 CURVE SMOOTH",
"193 -176 OFFCURVE",
"182 -187 OFFCURVE",
"168 -197 CURVE SMOOTH",
"154 -207 OFFCURVE",
"136 -214 OFFCURVE",
"114 -218 CURVE SMOOTH",
"92 -222 OFFCURVE",
"66 -224 OFFCURVE",
"36 -224 CURVE",
"37 -223 LINE",
"37 -448 LINE"
);
}
);
width = 596;
}
);
unicode = 002C;
},
{
glyphname = exclam;
layers = (
{
layerId = "BC722C43-F174-4026-9892-4620CE50CA16";
paths = (
{
closed = 1;
nodes = (
"547 558 LINE",
"631 1331 LINE",
"631 1630 LINE",
"44 1630 LINE",
"44 1331 LINE",
"126 556 LINE"
);
},
{
closed = 1;
nodes = (
"420 -33 OFFCURVE",
"489 -11 OFFCURVE",
"542 33 CURVE SMOOTH",
"595 77 OFFCURVE",
"622 137 OFFCURVE",
"622 212 CURVE SMOOTH",
"622 289 OFFCURVE",
"595 350 OFFCURVE",
"540 395 CURVE SMOOTH",
"485 440 OFFCURVE",
"417 463 OFFCURVE",
"336 463 CURVE",
"334 462 LINE",
"255 462 OFFCURVE",
"189 440 OFFCURVE",
"136 395 CURVE SMOOTH",
"83 350 OFFCURVE",
"57 289 OFFCURVE",
"57 212 CURVE SMOOTH",
"57 137 OFFCURVE",
"83 77 OFFCURVE",
"135 33 CURVE SMOOTH",
"187 -11 OFFCURVE",
"254 -33 OFFCURVE",
"335 -33 CURVE SMOOTH"
);
}
);
width = 679;
}
);
unicode = 0021;
},
{
glyphname = exclamdown;
layers = (
{
layerId = "BC722C43-F174-4026-9892-4620CE50CA16";
paths = (
{
closed = 1;
nodes = (
"640 0 LINE",
"640 299 LINE",
"556 1072 LINE",
"135 1074 LINE",
"53 299 LINE",
"53 0 LINE"
);
},
{
closed = 1;
nodes = (
"345 1158 LINE",
"426 1158 OFFCURVE",
"494 1180 OFFCURVE",
"549 1225 CURVE SMOOTH",
"604 1270 OFFCURVE",
"631 1331 OFFCURVE",
"631 1408 CURVE SMOOTH",
"631 1483 OFFCURVE",
"604 1543 OFFCURVE",
"551 1587 CURVE SMOOTH",
"498 1631 OFFCURVE",
"429 1653 OFFCURVE",
"344 1653 CURVE SMOOTH",
"263 1653 OFFCURVE",
"196 1631 OFFCURVE",
"144 1587 CURVE SMOOTH",
"92 1543 OFFCURVE",
"66 1483 OFFCURVE",
"66 1408 CURVE SMOOTH",
"66 1331 OFFCURVE",
"92 1270 OFFCURVE",
"145 1225 CURVE SMOOTH",
"198 1180 OFFCURVE",
"264 1157 OFFCURVE",
"343 1157 CURVE"
);
}
);
width = 689;
}
);
unicode = 00A1;
},
{
glyphname = numbersign;
layers = (
{
layerId = "BC722C43-F174-4026-9892-4620CE50CA16";
paths = (
{
closed = 1;
nodes = (
"418 0 LINE",
"483 286 LINE",
"647 286 LINE",
"584 0 LINE",
"897 0 LINE",
"962 286 LINE",
"1112 286 LINE",
"1175 585 LINE",
"1031 585 LINE",
"1114 947 LINE",
"1259 947 LINE",
"1322 1246 LINE",
"1182 1246 LINE",
"1269 1623 LINE",
"945 1623 LINE",
"861 1246 LINE",
"703 1246 LINE",
"790 1623 LINE",
"466 1623 LINE",
"382 1246 LINE",
"242 1246 LINE",
"179 947 LINE",
"315 947 LINE",
"235 585 LINE",
"95 585 LINE",
"32 286 LINE",
"168 286 LINE",
"105 0 LINE"
);
},
{
closed = 1;
nodes = (
"635 947 LINE",
"794 947 LINE",
"714 585 LINE",
"552 585 LINE"
);
}
);
width = 1354;
}
);
unicode = 0023;
},
{
glyphname = period;
layers = (
{
layerId = "BC722C43-F174-4026-9892-4620CE50CA16";
paths = (
{
closed = 1;
nodes = (
"305 -27 LINE",
"386 -27 OFFCURVE",
"454 -5 OFFCURVE",
"509 40 CURVE SMOOTH",
"564 85 OFFCURVE",
"591 146 OFFCURVE",
"591 223 CURVE SMOOTH",
"591 298 OFFCURVE",
"564 358 OFFCURVE",
"511 402 CURVE SMOOTH",
"458 446 OFFCURVE",
"389 468 OFFCURVE",
"304 468 CURVE SMOOTH",
"223 468 OFFCURVE",
"156 446 OFFCURVE",
"104 402 CURVE SMOOTH",
"52 358 OFFCURVE",
"26 298 OFFCURVE",
"26 223 CURVE SMOOTH",
"26 146 OFFCURVE",
"52 85 OFFCURVE",
"105 40 CURVE SMOOTH",
"158 -5 OFFCURVE",
"224 -28 OFFCURVE",
"303 -28 CURVE"
);
}
);
width = 617;
}
);
unicode = 002E;
},
{
glyphname = question;
layers = (
{
layerId = "BC722C43-F174-4026-9892-4620CE50CA16";
paths = (
{
closed = 1;
nodes = (
"674 539 LINE",
"674 726 LINE",
"715 740 OFFCURVE",
"751 753 OFFCURVE",
"782 765 CURVE SMOOTH",
"813 777 OFFCURVE",
"849 793 OFFCURVE",
"890 813 CURVE SMOOTH",
"931 833 OFFCURVE",
"967 853 OFFCURVE",
"997 873 CURVE SMOOTH",
"1027 893 OFFCURVE",
"1058 917 OFFCURVE",
"1090 946 CURVE SMOOTH",
"1122 975 OFFCURVE",
"1148 1005 OFFCURVE",
"1168 1036 CURVE SMOOTH",
"1188 1067 OFFCURVE",
"1204 1103 OFFCURVE",
"1217 1144 CURVE SMOOTH",
"1230 1185 OFFCURVE",
"1236 1228 OFFCURVE",
"1236 1273 CURVE SMOOTH",
"1236 1361 OFFCURVE",
"1210 1440 OFFCURVE",
"1158 1511 CURVE SMOOTH",
"1106 1582 OFFCURVE",
"1034 1637 OFFCURVE",
"942 1677 CURVE SMOOTH",
"850 1717 OFFCURVE",
"748 1737 OFFCURVE",
"635 1737 CURVE SMOOTH",
"464 1737 OFFCURVE",
"322 1688 OFFCURVE",
"209 1591 CURVE SMOOTH",
"96 1494 OFFCURVE",
"35 1370 OFFCURVE",
"26 1219 CURVE",
"498 1219 LINE",
"505 1327 OFFCURVE",
"548 1381 OFFCURVE",
"628 1381 CURVE SMOOTH",
"648 1381 OFFCURVE",
"665 1376 OFFCURVE",
"679 1366 CURVE SMOOTH",
"693 1356 OFFCURVE",
"703 1343 OFFCURVE",
"709 1327 CURVE SMOOTH",
"715 1311 OFFCURVE",
"719 1297 OFFCURVE",
"721 1285 CURVE SMOOTH",
"723 1273 OFFCURVE",
"724 1261 OFFCURVE",
"724 1250 CURVE SMOOTH",
"724 1131 OFFCURVE",
"592 1012 OFFCURVE",
"328 893 CURVE",
"328 891 LINE",
"327 539 LINE"
);
},
{
closed = 1;
nodes = (
"507 -25 LINE",
"588 -25 OFFCURVE",
"656 -3 OFFCURVE",
"711 42 CURVE SMOOTH",
"766 87 OFFCURVE",
"793 148 OFFCURVE",
"793 225 CURVE SMOOTH",
"793 300 OFFCURVE",
"766 360 OFFCURVE",
"713 404 CURVE SMOOTH",
"660 448 OFFCURVE",
"591 470 OFFCURVE",
"506 470 CURVE SMOOTH",
"425 470 OFFCURVE",
"358 448 OFFCURVE",
"306 404 CURVE SMOOTH",
"254 360 OFFCURVE",
"228 300 OFFCURVE",
"228 225 CURVE SMOOTH",
"228 148 OFFCURVE",
"254 87 OFFCURVE",
"307 42 CURVE SMOOTH",
"360 -3 OFFCURVE",
"426 -26 OFFCURVE",
"505 -26 CURVE"
);
}
);
width = 1259;
}
);
unicode = 003F;
},
{
glyphname = questiondown;
layers = (
{
layerId = "BC722C43-F174-4026-9892-4620CE50CA16";
paths = (
{
closed = 1;
nodes = (
"816 -16 OFFCURVE",
"958 33 OFFCURVE",
"1071 130 CURVE SMOOTH",
"1184 227 OFFCURVE",
"1245 351 OFFCURVE",
"1254 502 CURVE",
"782 502 LINE",
"775 394 OFFCURVE",
"732 340 OFFCURVE",
"652 340 CURVE SMOOTH",
"632 340 OFFCURVE",
"615 345 OFFCURVE",
"601 355 CURVE SMOOTH",
"587 365 OFFCURVE",
"577 378 OFFCURVE",
"571 394 CURVE SMOOTH",
"565 410 OFFCURVE",
"561 424 OFFCURVE",
"559 436 CURVE SMOOTH",
"557 448 OFFCURVE",
"556 460 OFFCURVE",
"556 471 CURVE SMOOTH",
"556 590 OFFCURVE",
"688 709 OFFCURVE",
"952 828 CURVE",
"953 1180 LINE",
"606 1182 LINE",
"606 995 LINE",
"565 981 OFFCURVE",
"529 968 OFFCURVE",
"498 956 CURVE SMOOTH",
"467 944 OFFCURVE",
"431 928 OFFCURVE",
"390 908 CURVE SMOOTH",
"349 888 OFFCURVE",
"313 868 OFFCURVE",
"283 848 CURVE SMOOTH",
"253 828 OFFCURVE",
"222 804 OFFCURVE",
"190 775 CURVE SMOOTH",
"158 746 OFFCURVE",
"132 716 OFFCURVE",
"112 685 CURVE SMOOTH",
"92 654 OFFCURVE",
"76 618 OFFCURVE",
"63 577 CURVE SMOOTH",
"50 536 OFFCURVE",
"44 493 OFFCURVE",
"44 448 CURVE SMOOTH",
"44 360 OFFCURVE",
"70 281 OFFCURVE",
"122 210 CURVE SMOOTH",
"174 139 OFFCURVE",
"246 84 OFFCURVE",
"338 44 CURVE SMOOTH",
"430 4 OFFCURVE",
"532 -16 OFFCURVE",
"645 -16 CURVE SMOOTH"
);
},
{
closed = 1;
nodes = (
"854 1252 OFFCURVE",
"920 1274 OFFCURVE",
"972 1318 CURVE SMOOTH",
"1024 1362 OFFCURVE",
"1050 1422 OFFCURVE",
"1050 1497 CURVE SMOOTH",
"1050 1574 OFFCURVE",
"1024 1635 OFFCURVE",
"971 1680 CURVE SMOOTH",
"918 1725 OFFCURVE",
"852 1747 OFFCURVE",
"773 1747 CURVE",
"773 1748 LINE",
"692 1748 OFFCURVE",
"624 1725 OFFCURVE",
"569 1680 CURVE SMOOTH",
"514 1635 OFFCURVE",
"486 1574 OFFCURVE",
"486 1497 CURVE SMOOTH",
"486 1422 OFFCURVE",
"513 1362 OFFCURVE",
"566 1318 CURVE SMOOTH",
"619 1274 OFFCURVE",
"688 1252 OFFCURVE",
"773 1252 CURVE SMOOTH"
);
}
);
width = 1288;
}
);
unicode = 00BF;
},
{
glyphname = quotedbl;
layers = (
{
layerId = "BC722C43-F174-4026-9892-4620CE50CA16";
paths = (
{
closed = 1;
nodes = (
"1008 945 LINE",
"1108 1624 LINE",
"628 1624 LINE",
"708 945 LINE"
);
},
{
closed = 1;
nodes = (
"421 945 LINE",
"521 1624 LINE",
"41 1624 LINE",
"121 945 LINE"
);
}
);
width = 1148;
}
);
unicode = 0022;
},
{
glyphname = quotesingle;
layers = (
{
layerId = "BC722C43-F174-4026-9892-4620CE50CA16";
paths = (
{
closed = 1;
nodes = (
"421 945 LINE",
"521 1624 LINE",
"41 1624 LINE",
"121 945 LINE"
);
}
);
width = 561;
}
);
unicode = 0027;
},
